<?xml version="1.0" encoding="UTF-8" standalone="no"?>
<!-- Created with Inkscape (http://www.inkscape.org/) -->

<svg
   xmlns:dc="http://purl.org/dc/elements/1.1/"
   xmlns:cc="http://creativecommons.org/ns#"
   xmlns:rdf="http://www.w3.org/1999/02/22-rdf-syntax-ns#"
   xmlns:svg="http://www.w3.org/2000/svg"
   xmlns="http://www.w3.org/2000/svg"
   xmlns:sodipodi="http://sodipodi.sourceforge.net/DTD/sodipodi-0.dtd"
   xmlns:inkscape="http://www.inkscape.org/namespaces/inkscape"
   version="1.1"
   id="svg2"
   xml:space="preserve"
   width="278.76672"
   height="105.6331"
   viewBox="0 0 278.76671 105.6331"
   sodipodi:docname="3-6-9-12.svg"
   inkscape:version="0.92.2 5c3e80d, 2017-08-06"><metadata
     id="metadata8"><rdf:RDF><cc:Work
         rdf:about=""><dc:format>image/svg+xml</dc:format><dc:type
           rdf:resource="http://purl.org/dc/dcmitype/StillImage" /><dc:title></dc:title></cc:Work></rdf:RDF></metadata><defs
     id="defs6"><clipPath
       clipPathUnits="userSpaceOnUse"
       id="clipPath22"><path
         d="m 724.329,532.5896 -5.923,36.088 41.322,6.783 5.924,-36.089"
         id="path20"
         inkscape:connector-curvature="0" /></clipPath><clipPath
       clipPathUnits="userSpaceOnUse"
       id="clipPath34"><path
         d="m 743.609,479.3386 19.721,94.818 75.7251,-15.75 -19.7211,-94.818"
         id="path32"
         inkscape:connector-curvature="0" /></clipPath><clipPath
       clipPathUnits="userSpaceOnUse"
       id="clipPath46"><path
         d="m 787.894,441.2556 -9.041,29.9 23.8791,7.22 9.0408,-29.9"
         id="path44"
         inkscape:connector-curvature="0" /></clipPath><clipPath
       clipPathUnits="userSpaceOnUse"
       id="clipPath62"><path
         d="m 442.504,184.8056 h 70.026 v 138.859 h -70.026 z"
         id="path60"
         inkscape:connector-curvature="0" /></clipPath><clipPath
       clipPathUnits="userSpaceOnUse"
       id="clipPath74"><path
         d="m 594.516,184.8056 h 70.027 v 138.859 h -70.027 z"
         id="path72"
         inkscape:connector-curvature="0" /></clipPath><clipPath
       clipPathUnits="userSpaceOnUse"
       id="clipPath86"><path
         d="m 746.5291,184.8056 h 70.026 v 138.859 h -70.026 z"
         id="path84"
         inkscape:connector-curvature="0" /></clipPath><clipPath
       clipPathUnits="userSpaceOnUse"
       id="clipPath104"><path
         d="m 476.33,353.2536 v 31.663 h 31.663 v -31.663"
         id="path102"
         inkscape:connector-curvature="0" /></clipPath><clipPath
       clipPathUnits="userSpaceOnUse"
       id="clipPath122"><path
         d="m 585.742,337.5716 c -5.01,0 -9.815,1.944 -13.357,5.403 -3.542,3.46 -5.533,8.153 -5.533,13.045 0,4.893 1.991,9.585 5.533,13.045 3.542,3.46 8.347,5.403 13.357,5.403 5.01,0 9.815,-1.943 13.357,-5.403 3.543,-3.46 5.533,-8.152 5.533,-13.045 0,-4.892 -1.99,-9.585 -5.533,-13.045 -3.542,-3.459 -8.347,-5.403 -13.357,-5.403"
         id="path120"
         inkscape:connector-curvature="0" /></clipPath><clipPath
       clipPathUnits="userSpaceOnUse"
       id="clipPath138"><path
         d="m 671.02,361.0806 c -4.974,0 -9.745,1.897 -13.263,5.274 -3.517,3.376 -5.493,7.957 -5.493,12.732 0,4.776 1.976,9.356 5.493,12.733 3.518,3.376 8.289,5.274 13.263,5.274 4.974,0 9.745,-1.898 13.262,-5.274 3.518,-3.377 5.494,-7.957 5.494,-12.733 0,-4.775 -1.976,-9.356 -5.493,-12.732 -3.518,-3.377 -8.289,-5.274 -13.263,-5.274"
         id="path136"
         inkscape:connector-curvature="0" /></clipPath><clipPath
       clipPathUnits="userSpaceOnUse"
       id="clipPath156"><path
         d="m 772.527,364.2556 c -5.053,0 -9.9,1.711 -13.473,4.756 -3.574,3.046 -5.581,7.177 -5.581,11.484 0,4.307 2.007,8.437 5.581,11.483 3.573,3.045 8.42,4.756 13.473,4.756 5.053,0 9.9,-1.711 13.473,-4.756 3.573,-3.046 5.5811,-7.176 5.5811,-11.483 0,-4.307 -2.0081,-8.438 -5.5811,-11.484 -3.573,-3.045 -8.42,-4.756 -13.473,-4.756"
         id="path154"
         inkscape:connector-curvature="0" /></clipPath><clipPath
       clipPathUnits="userSpaceOnUse"
       id="clipPath172"><path
         d="m 698.397,457.1296 -7.881,38.001 55.119,11.431 7.881,-38.001"
         id="path170"
         inkscape:connector-curvature="0" /></clipPath><clipPath
       clipPathUnits="userSpaceOnUse"
       id="clipPath182"><path
         d="m 683.9,567.8785 7.4149,16.833 24.4151,-10.755 -7.4151,-16.8339"
         id="path180"
         inkscape:connector-curvature="0" /></clipPath><clipPath
       clipPathUnits="userSpaceOnUse"
       id="clipPath192"><path
         d="m 206.33,8.9996 -5.924,36.089 41.322,6.783 5.924,-36.089"
         id="path190"
         inkscape:connector-curvature="0" /></clipPath><clipPath
       clipPathUnits="userSpaceOnUse"
       id="clipPath204"><path
         d="m 345.128,536.7736 -12.519,41.404 33.066,9.998 12.519,-41.404"
         id="path202"
         inkscape:connector-curvature="0" /></clipPath><clipPath
       clipPathUnits="userSpaceOnUse"
       id="clipPath216"><path
         d="m 335.919,140.5386 10.207,30.784 44.651,-14.804 -10.207,-30.785"
         id="path214"
         inkscape:connector-curvature="0" /></clipPath><clipPath
       clipPathUnits="userSpaceOnUse"
       id="clipPath226"><path
         d="m 206.567,456.5446 7.415,16.833 24.415,-10.755 -7.415,-16.833"
         id="path224"
         inkscape:connector-curvature="0" /></clipPath><clipPath
       clipPathUnits="userSpaceOnUse"
       id="clipPath308"><path
         d="m 518.51,174.3156 h 70.026 v 138.86 H 518.51 Z"
         id="path306"
         inkscape:connector-curvature="0" /></clipPath><clipPath
       clipPathUnits="userSpaceOnUse"
       id="clipPath320"><path
         d="m 670.5229,174.3156 h 70.026 v 138.86 h -70.026 z"
         id="path318"
         inkscape:connector-curvature="0" /></clipPath><clipPath
       clipPathUnits="userSpaceOnUse"
       id="clipPath704"><path
         d="m 222.035,164.1286 98.903,4.352 1.733,-39.379 -19.227,2.318 -1.357,-11.256 3.691,-83.884 -13.878,-0.61 -2.376,-19.716 -55.784,-2.454 13.912,2.283 -5.924,36.089 -14.648,-2.405"
         id="path702"
         inkscape:connector-curvature="0"
         style="clip-rule:evenodd" /></clipPath><clipPath
       clipPathUnits="userSpaceOnUse"
       id="clipPath716"><path
         d="m 228.673,13.2766 -1.593,36.19 14.648,2.405 5.924,-36.089 -13.912,-2.283"
         id="path714"
         inkscape:connector-curvature="0"
         style="clip-rule:evenodd" /></clipPath><clipPath
       clipPathUnits="userSpaceOnUse"
       id="clipPath728"><path
         d="m 230.0659,155.517 70.3436,3.0982 5.3866,-122.2985 -70.3436,-3.0983"
         id="path726"
         inkscape:connector-curvature="0"
         style="clip-rule:evenodd" /></clipPath><clipPath
       clipPathUnits="userSpaceOnUse"
       id="clipPath740"><path
         d="m 401.731,119.5706 -15.081,-125.093 -98.287,11.849 1.16,9.627 38.053,1.675 -4.905,111.473"
         id="path738"
         inkscape:connector-curvature="0"
         style="clip-rule:evenodd" /></clipPath><clipPath
       clipPathUnits="userSpaceOnUse"
       id="clipPath752"><path
         d="m 303.444,131.4196 19.227,-2.318 4.905,-111.473 -38.053,-1.675 2.377,19.716 13.878,0.61 -3.691,83.884"
         id="path750"
         inkscape:connector-curvature="0"
         style="clip-rule:evenodd" /></clipPath><clipPath
       clipPathUnits="userSpaceOnUse"
       id="clipPath764"><path
         d="m 305.778,36.2796 -13.878,-0.61 10.187,84.494"
         id="path762"
         inkscape:connector-curvature="0"
         style="clip-rule:evenodd" /></clipPath><clipPath
       clipPathUnits="userSpaceOnUse"
       id="clipPath776"><path
         d="m 309.0753,120.788 69.9031,-8.428 -11.7279,-97.2716 -69.903,8.4281"
         id="path774"
         inkscape:connector-curvature="0"
         style="clip-rule:evenodd" /></clipPath></defs><sodipodi:namedview
     pagecolor="#ffffff"
     bordercolor="#666666"
     borderopacity="1"
     objecttolerance="10"
     gridtolerance="10"
     guidetolerance="10"
     inkscape:pageopacity="0"
     inkscape:pageshadow="2"
     inkscape:window-width="1135"
     inkscape:window-height="706"
     id="namedview4"
     showgrid="false"
     fit-margin-top="0"
     fit-margin-left="0"
     fit-margin-right="0"
     fit-margin-bottom="0"
     inkscape:zoom="1.682015"
     inkscape:cx="145.84857"
     inkscape:cy="-1.7566927"
     inkscape:window-x="0"
     inkscape:window-y="0"
     inkscape:window-maximized="0"
     inkscape:current-layer="g10" /><g
     id="g10"
     inkscape:groupmode="layer"
     inkscape:label="Flyer-3-6-9-12-Apprivoiser-2018"
     transform="matrix(1.3333333,0,0,-1.3333333,-28.925355,705.69419)"><g
       id="g16"
       transform="matrix(0.60619736,0,0,0.60619736,-391.57283,157.56974)"><g
         id="g18"
         clip-path="url(#clipPath22)"><path
           d="m 745.0212,555.3901 2.5696,-15.6596 3.3679,4.6906 3.853,-5.163 1.9444,1.4511 -3.7088,4.9678 5.4424,0.8936"
           style="fill:#49bd4f;fill-opacity:1;fill-rule:nonzero;stroke:none"
           id="path24"
           inkscape:connector-curvature="0" /><path
           d="m 746.9332,560.0906 c -0.5328,1.9422 -1.1527,3.7022 -1.8283,5.205 3.0632,-0.6722 5.7326,-2.588 7.3507,-5.2753 -1.642,0.1605 -3.51,0.1867 -5.5224,0.0703 m -5.145,-0.5741 c -1.069,-0.1755 -2.1057,-0.3816 -3.1075,-0.6102 -0.1178,2.4479 0.005,4.4611 0.2452,6.018 0.6085,0.2112 1.2376,0.3842 1.8942,0.492 0.6567,0.1079 1.308,0.145 1.9521,0.1395 0.7236,-1.3987 1.4848,-3.2666 2.1555,-5.6237 -1.0224,-0.1037 -2.0705,-0.24 -3.1395,-0.4156 m -3.8799,-9.3639 c -2.448,-0.1181 -4.461,0.005 -6.0169,0.2447 -0.2122,0.6093 -0.3854,1.2392 -0.4931,1.8959 -0.1078,0.6566 -0.145,1.3088 -0.1385,1.9531 1.3977,0.7246 3.2658,1.485 5.623,2.156 0.1035,-1.0224 0.2398,-2.0705 0.4153,-3.1404 0.1754,-1.069 0.3813,-2.1057 0.6102,-3.1093 m 2.3213,-7.1575 c -3.0616,0.6735 -5.728,2.5878 -7.3438,5.2736 1.64,-0.1598 3.5043,-0.1876 5.5141,-0.0717 0.5315,-1.9405 1.154,-3.6991 1.8297,-5.2019 m -3.4342,20.9342 c -0.16,-1.64 -0.1885,-3.5064 -0.0719,-5.516 -1.9413,-0.5329 -3.7001,-1.1546 -5.2029,-1.8305 0.6737,3.0618 2.5891,5.7294 5.2748,7.3465 m 20.744,-9.4404 c -0.004,0.2105 -0.002,0.4203 -0.0169,0.6319 -0.0301,0.4761 -0.0794,0.9556 -0.1582,1.4359 -0.0771,0.4693 -0.1786,0.9271 -0.2978,1.3771 -0.0627,0.2387 -0.1418,0.4681 -0.2148,0.7004 -0.0524,0.164 -0.0944,0.3335 -0.152,0.4948 -0.003,10e-4 -0.007,0.003 -0.01,0.003 -2.0699,5.8378 -7.5809,9.7938 -13.7734,9.89 -0.002,0.002 -0.005,0.007 -0.007,0.01 -0.1975,0.002 -0.3979,-0.0125 -0.5961,-0.0167 -0.216,-0.006 -0.4304,-0.004 -0.6487,-0.0188 -0.4654,-0.0312 -0.9346,-0.0809 -1.4057,-0.1582 -0.4702,-0.0772 -0.9306,-0.1802 -1.3816,-0.2995 -0.2126,-0.0556 -0.414,-0.1264 -0.6215,-0.1897 -0.1893,-0.0594 -0.3829,-0.1091 -0.5693,-0.1747 l -0.004,-0.0119 c -5.8368,-2.0713 -9.7944,-7.5821 -9.8903,-13.7744 -0.003,-0.003 -0.007,-0.005 -0.009,-0.007 -0.002,-0.1824 0.0113,-0.3679 0.0153,-0.553 0.006,-0.232 0.003,-0.4616 0.0187,-0.6948 0.0321,-0.4654 0.0814,-0.9327 0.1584,-1.402 0.0767,-0.4674 0.1793,-0.926 0.2975,-1.3762 0.0621,-0.235 0.1407,-0.4607 0.2134,-0.6912 0.052,-0.1678 0.0965,-0.3406 0.1547,-0.5056 0.003,-0.001 0.007,-0.003 0.0101,-0.004 2.0703,-5.8348 7.5804,-9.7911 13.7729,-9.8872 0.002,-0.002 0.005,-0.006 0.007,-0.009 0.1844,-0.003 0.3715,0.0119 0.5568,0.015 0.2311,0.006 0.4606,0.004 0.6936,0.0205 0.4646,0.031 0.9309,0.0802 1.3993,0.1571 l 0.0432,0.007 -0.0229,0.1396 -0.5391,3.2851 c -0.0137,-0.002 -0.0281,-0.006 -0.0428,-0.009 -0.6567,-0.1078 -1.308,-0.145 -1.9521,-0.1394 -0.7254,1.3974 -1.4846,3.2656 -2.1553,5.6228 1.0225,0.1028 2.0706,0.239 3.1396,0.4145 l 0.0431,0.007 -0.3211,1.9571 c -0.0138,-0.002 -0.0272,-0.006 -0.0428,-0.009 -1.1729,-0.1926 -2.2805,-0.3339 -3.3251,-0.4337 -0.2394,1.0218 -0.4597,2.1173 -0.6521,3.2901 -0.1926,1.1738 -0.334,2.2823 -0.4336,3.326 1.0218,0.2395 2.1165,0.4598 3.2892,0.6524 1.1719,0.1924 2.2787,0.3335 3.3213,0.434 0.0144,-0.0589 0.0293,-0.1149 0.0427,-0.174 0.317,-0.0583 0.6248,-0.1748 0.9058,-0.3587 l 1.3875,-0.9087 c -0.1054,0.5391 -0.2241,1.061 -0.3425,1.581 2.4517,0.1178 4.4676,-0.005 6.0246,-0.2453 0.213,-0.6082 0.3861,-1.2381 0.4939,-1.8948 0.1073,-0.6539 0.15,-1.3052 0.144,-1.9465 -0.439,-0.2277 -0.9086,-0.4586 -1.4401,-0.6911 l 1.3251,-0.8671 3.1226,-2.045 c 0.2859,1.1136 0.4287,2.2726 0.4489,3.4539 0.004,0.004 0.009,0.006 0.0135,0.01 0.003,0.192 -0.0126,0.3874 -0.0169,0.5801"
           style="fill:#49bd4f;fill-opacity:1;fill-rule:nonzero;stroke:none"
           id="path26"
           inkscape:connector-curvature="0" /></g></g><g
       id="g28"
       transform="matrix(0.60619736,0,0,0.60619736,-367.04867,190.56588)"><g
         id="g30"
         clip-path="url(#clipPath34)"><path
           d="m 777.4338,510.9758 -7.2371,1.5052 c -2.1199,0.4408 -3.589,2.369 -3.2059,4.2112 l 4.2413,20.3932 c 0.3828,1.8407 2.4989,3.0232 4.6187,2.5824 l 6.5424,-1.3607 22.4184,-4.6623 10.4921,-2.182 c 2.1198,-0.4409 3.5889,-2.369 3.2061,-4.2097 l -4.2412,-20.3933 c -0.3831,-1.8422 -2.4992,-3.0248 -4.619,-2.5839 l -11.1852,2.3262 z m 41.5636,26.8596 -21.7382,4.6973 -20.6337,4.2912 c -4.8676,1.0123 -9.6786,-2.1448 -10.6906,-7.0109 l -5.5828,-26.8442 c -1.0127,-4.8692 2.1413,-9.6796 7.009,-10.6919 l 40.7136,-8.4672 c 4.8692,-1.0127 9.6796,2.1413 10.6922,7.0106 l 5.5828,26.8441 c 0.8921,4.2892 -1.453,8.5318 -5.3523,10.171"
           style="fill:#00adef;fill-opacity:1;fill-rule:nonzero;stroke:none"
           id="path36"
           inkscape:connector-curvature="0" /><path
           d="m 806.3846,556.9063 11.2118,-20.09 15.0765,7.1277"
           style="fill:none;stroke:#00adef;stroke-width:3.61599994;stroke-linecap:round;stroke-linejoin:miter;stroke-miterlimit:10;stroke-dasharray:none;stroke-opacity:1"
           id="path38"
           inkscape:connector-curvature="0" /></g></g><g
       id="g40"
       transform="matrix(0.60619736,0,0,0.60619736,-257.8047,213.75236)"><g
         id="g42"
         clip-path="url(#clipPath46)"><path
           d="m 792.5657,455.4748 -2.2821,-0.6903 c -0.6685,-0.2022 -1.3821,0.1173 -1.5578,0.6983 l -1.945,6.4308 c -0.1756,0.5804 0.2414,1.2419 0.9098,1.4441 l 2.0631,0.624 7.0695,2.1381 3.3086,1.0007 c 0.6684,0.2022 1.3821,-0.1173 1.5577,-0.6977 l 1.945,-6.4309 c 0.1757,-0.5809 -0.2413,-1.2423 -0.9097,-1.4445 l -3.5272,-1.0668 z m 7.6291,14.0207 -6.8822,-2.0233 -6.5066,-1.968 c -1.535,-0.4643 -2.4107,-2.1008 -1.9466,-3.6353 l 2.5603,-8.4651 c 0.4645,-1.5354 2.1,-2.4114 3.635,-1.9471 l 12.8387,3.8831 c 1.5354,0.4644 2.4113,2.1 1.947,3.6355 l -2.5603,8.465 c -0.4091,1.3525 -1.7279,2.1925 -3.0853,2.0552"
           style="fill:#49bd4f;fill-opacity:1;fill-rule:nonzero;stroke:none"
           id="path48"
           inkscape:connector-curvature="0" /><path
           d="m 793.6798,472.9515 6.2753,-3.9608 3.1709,4.345"
           style="fill:none;stroke:#49bd4f;stroke-width:1.16630006;stroke-linecap:round;stroke-linejoin:miter;stroke-miterlimit:10;stroke-dasharray:none;stroke-opacity:1"
           id="path50"
           inkscape:connector-curvature="0" /></g></g><g
       id="g52"><text
         transform="scale(1,-1)"
         style="font-variant:normal;font-weight:500;font-size:52.20571899px;font-family:Cosmos;-inkscape-font-specification:Cosmos-Medium;writing-mode:lr-tb;fill:#fab20b;fill-opacity:1;fill-rule:nonzero;stroke:none;stroke-width:0.60619736"
         id="text94"
         x="17.717409"
         y="-450.85342"><tspan
           x="17.717409"
           y="-450.85342"
           id="tspan92"
           style="stroke-width:0.60619736">3</tspan></text>
<path
         d="m 28.113437,465.35595 h 9.52154 v 7.05917 h -9.52154 z"
         style="fill:#00adef;fill-opacity:1;fill-rule:nonzero;stroke:none;stroke-width:0.60619736"
         id="path96"
         inkscape:connector-curvature="0" /><g
         id="g98"
         transform="matrix(0.60619736,0,0,0.60619736,-265.38489,245.41082)"><g
           id="g100"
           clip-path="url(#clipPath104)"><path
             d="m 487.8037,364.3892 h -2.4166 c -0.7078,0 -1.3064,0.5193 -1.3064,1.1345 v 6.8096 c 0,0.6146 0.5986,1.1339 1.3064,1.1339 h 2.1846 7.4859 3.5034 c 0.7078,0 1.3064,-0.5193 1.3064,-1.1339 v -6.8096 c 0,-0.6152 -0.5986,-1.1345 -1.3064,-1.1345 h -3.7349 z m 11.5153,11.3636 -7.2704,0.0565 h -6.8898 c -1.6254,0 -2.9551,-1.3308 -2.9551,-2.9556 V 363.89 c 0,-1.6258 1.3297,-2.9556 2.9551,-2.9556 h 13.5948 c 1.6259,0 2.9556,1.3298 2.9556,2.9556 v 8.9637 c 0,1.4322 -1.033,2.634 -2.3902,2.8991"
             style="fill:#070402;fill-opacity:1;fill-rule:nonzero;stroke:none"
             id="path106"
             inkscape:connector-curvature="0" /><path
             d="m 494.0126,381.0173 4.9259,-5.6839 4.3511,3.2849"
             style="fill:none;stroke:#070402;stroke-width:1.18210006;stroke-linecap:round;stroke-linejoin:miter;stroke-miterlimit:10;stroke-dasharray:none;stroke-opacity:1"
             id="path108"
             inkscape:connector-curvature="0" /></g></g><text
         transform="scale(0.99995009,-1.0000499)"
         style="font-variant:normal;font-weight:500;font-size:52.20250702px;font-family:Cosmos;-inkscape-font-specification:Cosmos-Medium;writing-mode:lr-tb;fill:#49bd4f;fill-opacity:1;fill-rule:nonzero;stroke:none;stroke-width:0.60616708"
         id="text112"
         x="72.134895"
         y="-450.83212"><tspan
           x="72.134895"
           y="-450.83212"
           id="tspan110"
           style="stroke-width:0.60616708">6</tspan></text>
<path
         d="m 101.14143,461.22896 c 0,-6.1763 -5.126853,-11.18313 -11.451133,-11.18313 -6.32421,0 -11.45107,5.00683 -11.45107,11.18313 0,6.17624 5.12686,11.18313 11.45107,11.18313 6.32428,0 11.451133,-5.00689 11.451133,-11.18313"
         style="fill:#49bd4f;fill-opacity:1;fill-rule:evenodd;stroke:none;stroke-width:0.60619736"
         id="path114"
         inkscape:connector-curvature="0" /><g
         id="g116"
         transform="matrix(0.60619736,0,0,0.60619736,-265.38489,245.41082)"><g
           id="g118"
           clip-path="url(#clipPath122)"><path
             d="m 593.7036,358.4801 c -0.6897,0 -1.2451,0.5567 -1.2451,1.2459 0,0.6891 0.5554,1.2458 1.2451,1.2458 0.6864,0 1.2465,-0.5567 1.2465,-1.2458 0,-0.6892 -0.5601,-1.2459 -1.2465,-1.2459 m -3.1023,1.8397 c -0.6891,0 -1.2452,0.5567 -1.2452,1.2451 0,0.6898 0.5561,1.2458 1.2452,1.2458 0.6864,0 1.2464,-0.556 1.2464,-1.2458 0,-0.6884 -0.56,-1.2451 -1.2464,-1.2451 m 0,-3.4273 c -0.6891,0 -1.2452,0.5574 -1.2452,1.2458 0,0.6898 0.5561,1.2458 1.2452,1.2458 0.6864,0 1.2464,-0.556 1.2464,-1.2458 0,-0.6884 -0.56,-1.2458 -1.2464,-1.2458 m -6.8108,3.7894 v -1.5647 -0.1344 h -0.1344 -1.5701 v -1.5701 -0.1344 h -0.1351 -1.5667 -0.1345 v 0.1344 1.5701 h -1.5687 -0.1352 v 0.1344 1.5647 0.1344 h 0.1352 1.5687 v 1.5715 0.1344 h 0.1345 1.5667 0.1351 v -0.1344 -1.5715 h 1.5701 0.1344 z m 11.7818,1.9971 c -3.0341,4.9846 -7.6045,1.5167 -7.6045,1.5167 -0.2966,-0.2243 -0.8425,-0.4087 -1.2141,-0.4094 h -1.2248 c -0.3709,-7e-4 -0.9175,0.1831 -1.2134,0.4074 0,0 -4.5711,3.4685 -7.6046,-1.5161 -3.0341,-4.9832 -1.812,-10.4096 -1.812,-10.4096 0.2149,-1.3289 0.9196,-2.216 2.2525,-2.1045 1.3289,0.1108 4.2117,3.578 4.2117,3.578 0.2379,0.2858 0.7364,0.5195 1.1073,0.5195 l 7.339,10e-4 c 0.371,0 0.8696,-0.2338 1.1073,-0.5196 0,0 2.8842,-3.4672 4.2138,-3.5779 1.3309,-0.1115 2.0383,0.7762 2.2504,2.1044 0,0 1.2249,5.4258 -1.8086,10.4097"
             style="fill:#070402;fill-opacity:1;fill-rule:nonzero;stroke:none"
             id="path124"
             inkscape:connector-curvature="0" /></g></g><text
         transform="scale(0.99995001,-1.00005)"
         style="font-variant:normal;font-weight:500;font-size:52.20310974px;font-family:Cosmos;-inkscape-font-specification:Cosmos-Medium;writing-mode:lr-tb;fill:#ef2970;fill-opacity:1;fill-rule:nonzero;stroke:none;stroke-width:0.60616708"
         id="text128"
         x="125.40114"
         y="-450.83087"><tspan
           x="125.40114"
           y="-450.83087"
           id="tspan126"
           style="stroke-width:0.60616708">9</tspan></text>
<path
         d="m 152.7555,475.21242 c 0,-6.02845 -5.09042,-10.91549 -11.36984,-10.91549 -6.27936,0 -11.36984,4.88704 -11.36984,10.91549 0,6.02845 5.09048,10.91549 11.36984,10.91549 6.27942,0 11.36984,-4.88704 11.36984,-10.91549"
         style="fill:#ef2970;fill-opacity:1;fill-rule:evenodd;stroke:none;stroke-width:0.60619736"
         id="path130"
         inkscape:connector-curvature="0" /><g
         id="g132"
         transform="matrix(0.60619736,0,0,0.60619736,-265.38489,245.41082)"><g
           id="g134"
           clip-path="url(#clipPath138)"><path
             d="m 671.5408,379.5765 v -10.0413 l 2.5835,2.5834 1.8768,-3.6188 1.3627,0.7067 -1.8068,3.4822 h 3.4898"
             style="fill:#070402;fill-opacity:1;fill-rule:nonzero;stroke:none"
             id="path140"
             inkscape:connector-curvature="0" /><path
             d="m 673.2162,382.3154 c -0.1337,1.2674 -0.3404,2.4298 -0.6084,3.4375 1.8439,-0.7338 3.3144,-2.2037 4.0493,-4.0476 -1.0088,0.2686 -2.1724,0.4765 -3.4409,0.6101 m -3.2714,0.169 c -0.6854,0 -1.3539,-0.0223 -2.0028,-0.0624 0.1773,1.5406 0.4605,2.7849 0.7697,3.7325 0.4016,0.0695 0.8121,0.113 1.2331,0.113 0.4211,0 0.8316,-0.0435 1.2332,-0.113 0.3086,-0.9476 0.5924,-2.1919 0.7697,-3.7325 -0.649,0.0401 -1.3173,0.0624 -2.0029,0.0624 m -3.382,-5.449 c -1.5406,0.1772 -2.7849,0.4605 -3.7319,0.7697 -0.07,0.4022 -0.1136,0.8132 -0.1136,1.2343 0,0.421 0.0436,0.8321 0.1136,1.2337 0.947,0.3092 2.1913,0.5925 3.7319,0.7697 -0.04,-0.6489 -0.0624,-1.3173 -0.0624,-2.0034 0,-0.6855 0.0224,-1.3539 0.0624,-2.004 m 0.7161,-4.7071 c -1.8427,0.7344 -3.3114,2.2031 -4.0451,4.0457 1.0075,-0.2679 2.1688,-0.4764 3.4356,-0.6101 0.1331,-1.2661 0.3416,-2.428 0.6095,-3.4356 m 6e-4,13.4234 c -0.268,-1.0076 -0.477,-2.1701 -0.6101,-3.4368 -1.2668,-0.1337 -2.4287,-0.3416 -3.4362,-0.6096 0.7343,1.8427 2.2036,3.312 4.0463,4.0464 m 11.9853,-8.0214 c 0.0188,0.1319 0.0418,0.2626 0.0542,0.3963 0.03,0.3003 0.0482,0.6048 0.0482,0.9128 0,0.3009 -0.0164,0.5971 -0.0447,0.8904 -0.0148,0.1555 -0.0406,0.3068 -0.0624,0.4594 -0.016,0.1077 -0.0247,0.2179 -0.0442,0.3244 -0.002,0.001 -0.004,0.002 -0.006,0.003 -0.6943,3.8573 -3.7301,6.8925 -7.5868,7.5874 -10e-4,0.002 -0.002,0.005 -0.004,0.007 -0.1231,0.0218 -0.2497,0.033 -0.374,0.0507 -0.1354,0.0182 -0.2691,0.0418 -0.4069,0.0547 -0.2939,0.0283 -0.5919,0.0454 -0.894,0.0454 -0.3015,0 -0.5995,-0.0171 -0.8933,-0.0454 -0.1384,-0.0129 -0.2715,-0.0365 -0.4076,-0.0547 -0.1242,-0.0177 -0.2502,-0.0289 -0.3733,-0.0507 l -0.003,-0.007 c -3.8567,-0.6949 -6.8925,-3.7301 -7.5868,-7.5868 -0.002,-10e-4 -0.005,-0.002 -0.006,-0.004 -0.02,-0.1136 -0.0306,-0.2308 -0.0471,-0.3468 -0.02,-0.1455 -0.0453,-0.2886 -0.0595,-0.4358 -0.0276,-0.2939 -0.0447,-0.5907 -0.0447,-0.8916 0,-0.2998 0.0171,-0.5966 0.0447,-0.8898 0.0147,-0.1531 0.0406,-0.3021 0.0624,-0.4535 0.0154,-0.1101 0.0254,-0.2226 0.0448,-0.3315 0.002,-10e-4 0.004,-0.002 0.006,-0.004 0.6949,-3.8555 3.7301,-6.8907 7.5868,-7.5856 10e-4,-0.002 0.002,-0.004 0.003,-0.007 0.1148,-0.0206 0.2332,-0.0306 0.3492,-0.0477 0.1449,-0.02 0.288,-0.0447 0.4353,-0.0583 0.2932,-0.0283 0.5894,-0.0453 0.8897,-0.0453 h 0.0277 v 0.0895 2.1065 c -0.009,0 -0.0183,-10e-4 -0.0277,-10e-4 -0.421,0 -0.8315,0.0436 -1.2331,0.1131 -0.3097,0.9469 -0.5924,2.1913 -0.7697,3.7318 0.6489,-0.0406 1.3174,-0.063 2.0028,-0.063 h 0.0277 v 1.2549 c -0.009,1e-4 -0.0177,-10e-4 -0.0277,-10e-4 -0.752,0 -1.4581,0.0253 -2.1206,0.0701 -0.0447,0.6625 -0.07,1.3692 -0.07,2.1212 0,0.7526 0.0253,1.4593 0.07,2.1212 0.6625,0.0448 1.3686,0.0701 2.1206,0.0701 0.7515,0 1.457,-0.0253 2.1183,-0.0695 0.003,-0.0383 0.007,-0.0748 0.009,-0.1131 0.1919,-0.0689 0.3721,-0.1731 0.5288,-0.3168 l 0.7732,-0.7096 c -0.0106,0.3474 -0.0312,0.6855 -0.0519,1.0223 1.543,-0.1779 2.7891,-0.4611 3.7367,-0.7709 0.0706,-0.4016 0.1142,-0.8127 0.1142,-1.2337 0,-0.4193 -0.0401,-0.8304 -0.1095,-1.2302 -0.2974,-0.0972 -0.6143,-0.1932 -0.97,-0.2839 l 0.7385,-0.6772 1.7403,-1.5971 c 0.2926,0.6661 0.5005,1.3751 0.6342,2.1106 0.003,0.002 0.006,0.003 0.009,0.005 0.0218,0.1196 0.0318,0.2432 0.0489,0.364"
             style="fill:#070402;fill-opacity:1;fill-rule:nonzero;stroke:none"
             id="path142"
             inkscape:connector-curvature="0" /></g></g><text
         transform="scale(1,-1)"
         style="font-variant:normal;font-weight:500;font-size:52.20511246px;font-family:Cosmos;-inkscape-font-specification:Cosmos-Medium;writing-mode:lr-tb;fill:#00adef;fill-opacity:1;fill-rule:nonzero;stroke:none;stroke-width:0.60619736"
         id="text146"
         x="166.76199"
         y="-450.85461"><tspan
           x="166.76199 188.54611"
           y="-450.85461"
           sodipodi:role="line"
           id="tspan144"
           style="stroke-width:0.60619736">12</tspan></text>
<path
         d="m 214.46948,476.06595 c 0,-5.43687 -5.17129,-9.84435 -11.55049,-9.84435 -6.37919,0 -11.55048,4.40748 -11.55048,9.84435 0,5.43686 5.17129,9.84434 11.55048,9.84434 6.3792,0 11.55049,-4.40748 11.55049,-9.84434"
         style="fill:#00adef;fill-opacity:1;fill-rule:evenodd;stroke:none;stroke-width:0.60619736"
         id="path148"
         inkscape:connector-curvature="0" /><g
         id="g150"
         transform="matrix(0.60619736,0,0,0.60619736,-265.38489,245.41082)"><g
           id="g152"
           clip-path="url(#clipPath156)"><path
             d="m 773.7422,390.0769 c 2.6382,0 4.7746,-2.1381 4.7746,-4.7751 0,-2.6358 -2.1364,-4.774 -4.7746,-4.774 -2.6369,0 -4.7722,2.1382 -4.7722,4.774 0,2.637 2.1353,4.7751 4.7722,4.7751"
             style="fill:#070402;fill-opacity:1;fill-rule:nonzero;stroke:none"
             id="path158"
             inkscape:connector-curvature="0" /><path
             d="m 777.6426,380.9457 c -1.0361,-0.9281 -2.4028,-1.4941 -3.9004,-1.4941 -1.4964,0 -2.863,0.566 -3.898,1.4941 -2.7805,-1.4774 -4.6895,-4.4841 -4.7108,-7.9591 h 17.22 c -0.0212,3.475 -1.9304,6.4822 -4.7108,7.9591"
             style="fill:#070402;fill-opacity:1;fill-rule:nonzero;stroke:none"
             id="path160"
             inkscape:connector-curvature="0" /></g></g><text
         transform="scale(1,-1)"
         style="font-variant:normal;font-weight:500;font-size:43.19216919px;font-family:Cosmos;-inkscape-font-specification:Cosmos-Medium;writing-mode:lr-tb;fill:#303a4b;fill-opacity:1;fill-rule:nonzero;stroke:none;stroke-width:0.60619736"
         id="text164"
         x="53.770573"
         y="-452.32635"><tspan
           x="53.770573 108.75418 159.54819"
           y="-452.32635"
           sodipodi:role="line"
           id="tspan162"
           style="stroke-width:0.60619736">---</tspan></text>
<g
         id="g166"
         transform="matrix(0.60619736,0,0,0.60619736,-257.8047,213.75236)"><g
           id="g168"
           clip-path="url(#clipPath172)"><path
             d="m 736.7267,483.6799 c -1.2944,-0.2684 -2.5532,0.5602 -2.8214,1.8533 -0.2682,1.2932 0.5574,2.554 1.8518,2.8224 1.2881,0.2671 2.5557,-0.5596 2.8238,-1.8528 0.2682,-1.2931 -0.5662,-2.5557 -1.8543,-2.8229 m -6.5376,2.245 c -1.2931,-0.2682 -2.5531,0.5601 -2.8211,1.852 -0.2684,1.2944 0.5586,2.5542 1.8518,2.8223 1.2881,0.2672 2.5554,-0.5583 2.8238,-1.8527 0.2679,-1.2919 -0.5664,-2.5545 -1.8545,-2.8216 m 1.3337,-6.4316 c -1.2931,-0.2681 -2.5535,0.5614 -2.8213,1.8533 -0.2685,1.2945 0.5585,2.5542 1.8517,2.8224 1.2881,0.2671 2.5555,-0.5583 2.8239,-1.8528 0.2678,-1.2919 -0.5663,-2.5557 -1.8544,-2.8229 m -14.2551,4.4608 0.6088,-2.9362 0.0523,-0.2523 -0.2523,-0.0523 -2.9463,-0.611 0.6109,-2.9464 0.0523,-0.2523 -0.2535,-0.0526 -2.94,-0.6096 -0.2523,-0.0523 -0.0523,0.2522 -0.611,2.9464 -2.9438,-0.6104 -0.2536,-0.0526 -0.0523,0.2523 -0.6089,2.9362 -0.0523,0.2523 0.2536,0.0526 2.9438,0.6104 -0.6115,2.9489 -0.0523,0.2523 0.2523,0.0523 2.94,0.6097 0.2536,0.0526 0.0523,-0.2523 0.6115,-2.9489 2.9463,0.611 0.2523,0.0523 z m 21.332,8.3323 c -7.6334,8.1732 -14.8606,-0.1129 -14.8606,-0.1129 -0.4692,-0.5364 -1.4219,-1.0949 -2.1189,-1.2408 l -2.2985,-0.4766 c -0.6958,-0.1456 -1.7929,-0.0135 -2.4355,0.2923 0,0 -9.9276,4.7301 -13.6804,-5.8041 -3.7546,-10.532 0.6505,-20.2393 0.6505,-20.2393 0.9203,-2.4102 2.5877,-3.8006 5.0458,-3.0728 2.4506,0.725 6.5111,8.3533 6.5111,8.3533 0.335,0.6288 1.1798,1.2614 1.8758,1.4057 l 13.7716,2.8585 c 0.6959,0.1443 1.7226,-0.1003 2.2801,-0.5441 0,0 6.7614,-5.384 9.2995,-5.0746 2.541,0.3088 3.523,2.2499 3.4041,4.825 0,0 0.1872,10.6583 -7.4446,18.8304"
             style="fill:#fab20b;fill-opacity:1;fill-rule:nonzero;stroke:none"
             id="path174"
             inkscape:connector-curvature="0" /></g></g><g
         id="g176"
         transform="matrix(0.60619736,0,0,0.60619736,-391.57283,157.56974)"><g
           id="g178"
           clip-path="url(#clipPath182)"><path
             d="m 706.0159,567.5934 c -0.5734,0.2526 -0.8312,0.9187 -0.5788,1.4916 0.2523,0.5728 0.9178,0.8322 1.4912,0.5796 0.5705,-0.2513 0.8323,-0.9192 0.5799,-1.4921 -0.2523,-0.5728 -0.9217,-0.8305 -1.4923,-0.5791 m -1.9052,2.6653 c -0.5728,0.2523 -0.8312,0.9187 -0.579,1.4909 0.2526,0.5734 0.9184,0.832 1.4912,0.5797 0.5705,-0.2514 0.8325,-0.9187 0.5799,-1.4921 -0.252,-0.5722 -0.9215,-0.8299 -1.4921,-0.5785 m -1.2551,-2.849 c -0.5728,0.2523 -0.8309,0.9192 -0.5788,1.4915 0.2526,0.5734 0.9184,0.832 1.4912,0.5797 0.5706,-0.2513 0.8325,-0.9186 0.58,-1.4921 -0.2521,-0.5722 -0.9218,-0.8305 -1.4924,-0.5791 m -4.2738,5.644 -0.573,-1.3006 -0.0493,-0.1118 -0.1117,0.0493 -1.3052,0.5749 -0.5749,-1.3052 -0.0493,-0.1117 -0.1123,0.0495 -1.3024,0.5737 -0.1117,0.0493 0.0492,0.1117 0.575,1.3052 -1.304,0.5745 -0.1123,0.0495 0.0492,0.1117 0.573,1.3007 0.0493,0.1117 0.1123,-0.0495 1.304,-0.5744 0.5754,1.3062 0.0493,0.1118 0.1117,-0.0493 1.3024,-0.5737 0.1123,-0.0495 -0.0492,-0.1118 -0.5755,-1.3062 1.3052,-0.575 0.1117,-0.0492 z m 10.5251,-2.6543 c -0.6969,5.2545 -5.766,4.0455 -5.766,4.0455 -0.3287,-0.0778 -0.85,-0.0312 -1.1591,0.1043 l -1.0182,0.4485 c -0.3086,0.1352 -0.6956,0.4881 -0.8595,0.783 0,0 -2.5296,4.5571 -6.8765,1.5245 -4.347,-3.0313 -5.3181,-7.9896 -5.3181,-7.9896 -0.3081,-1.1833 -0.0472,-2.1788 1.1017,-2.5743 1.1452,-0.3945 4.8113,1.432 4.8113,1.432 0.3023,0.1505 0.8023,0.1622 1.1107,0.0264 l 6.1011,-2.6864 c 0.3083,-0.1358 0.6372,-0.5127 0.7302,-0.8373 0,0 1.1278,-3.9383 2.1925,-4.5173 1.0655,-0.5801 1.9786,-0.1011 2.6413,0.9253 0,0 3.005,4.0616 2.3086,9.3154"
             style="fill:#00adef;fill-opacity:1;fill-rule:nonzero;stroke:none"
             id="path184"
             inkscape:connector-curvature="0" /></g></g><g
         id="g456" /><g
         id="g546" /><g
         id="g622" /><g
         id="g660" /></g></g></svg>