<?xml version="1.0" encoding="UTF-8" standalone="no"?>
<svg
   xmlns:dc="http://purl.org/dc/elements/1.1/"
   xmlns:cc="http://creativecommons.org/ns#"
   xmlns:rdf="http://www.w3.org/1999/02/22-rdf-syntax-ns#"
   xmlns:svg="http://www.w3.org/2000/svg"
   xmlns="http://www.w3.org/2000/svg"
   xmlns:sodipodi="http://sodipodi.sourceforge.net/DTD/sodipodi-0.dtd"
   xmlns:inkscape="http://www.inkscape.org/namespaces/inkscape"
   height="221.91054"
   version="1.1"
   viewBox="0 0 283.02808 221.91054"
   width="283.02808"
   id="svg17"
   sodipodi:docname="birthday.svg"
   inkscape:version="0.92.2 5c3e80d, 2017-08-06">
  <metadata
     id="metadata21">
    <rdf:RDF>
      <cc:Work
         rdf:about="">
        <dc:format>image/svg+xml</dc:format>
        <dc:type
           rdf:resource="http://purl.org/dc/dcmitype/StillImage" />
        <dc:title />
      </cc:Work>
    </rdf:RDF>
  </metadata>
  <sodipodi:namedview
     pagecolor="#ffffff"
     bordercolor="#666666"
     borderopacity="1"
     objecttolerance="10"
     gridtolerance="10"
     guidetolerance="10"
     inkscape:pageopacity="0"
     inkscape:pageshadow="2"
     inkscape:window-width="986"
     inkscape:window-height="704"
     id="namedview19"
     showgrid="false"
     inkscape:zoom="0.921875"
     inkscape:cx="164.08231"
     inkscape:cy="69.095163"
     inkscape:window-x="0"
     inkscape:window-y="0"
     inkscape:window-maximized="0"
     inkscape:current-layer="9"
     fit-margin-top="0"
     fit-margin-left="0"
     fit-margin-right="0"
     fit-margin-bottom="0" />
  <desc
     id="desc4" />
  <defs
     id="defs6" />
  <g
     id="SVG"
     style="fill:none;fill-rule:evenodd;stroke:none;stroke-width:1"
     transform="translate(-10.104589,-23.849487)">
    <g
       id="Cake"
       style="stroke:none">
      <g
         id="9"
         transform="translate(0,50)"
         style="stroke:none">
        <path
           d="M 67.259229,105.83044 H 235.97671 v 41.60651 c 0,6.91905 -5.6054,12.52646 -12.52197,12.52646 H 79.781199 c -6.916572,0 -12.52197,-5.60741 -12.52197,-12.52646 z"
           id="Fill-1"
           style="fill:#f8e6c4;stroke:none;stroke-width:0.39081788"
           inkscape:connector-curvature="0" />
        <path
           d="M 234.95384,75.107414 H 68.282102 c -6.916572,0 -12.52197,4.567046 -12.52197,10.200798 v 19.079418 c 0,7.07444 7.037684,12.80828 15.720917,12.80828 8.683234,0 15.720917,-5.73384 15.720917,-12.80828 h 0.613461 c 0,7.07444 7.037684,12.80828 15.720913,12.80828 8.68324,0 15.72092,-5.73384 15.72092,-12.80828 h 0.61083 c 0,7.07444 7.04032,12.80828 15.72355,12.80828 8.6806,0 15.72092,-5.73384 15.72092,-12.80828 h 0.61082 c 0,7.07444 7.04032,12.80828 15.72092,12.80828 8.68324,0 15.72355,-5.73384 15.72355,-12.80828 h 0.61083 c 0,7.07444 7.03768,12.80828 15.72092,12.80828 8.68323,0 15.72091,-5.73384 15.72091,-12.80828 h 0.61346 c 0,7.07444 7.03769,12.80828 15.72092,12.80828 8.68323,0 15.72092,-5.73384 15.72092,-12.80828 V 85.308212 c 0,-5.633752 -5.6054,-10.200798 -12.52197,-10.200798"
           id="Fill-3"
           style="fill:#d4ff2a;fill-opacity:0.94117647;stroke:none;stroke-width:0.39081788"
           inkscape:connector-curvature="0" />
        <polygon
           id="Fill-5"
           points="277.55789,111.91112 233.76168,111.91112 233.76168,181.06941 277.55789,181.06941 "
           style="fill:#f8e6c4;stroke:none"
           transform="matrix(0.39081789,0,0,0.39081789,51.811078,4.2334697)" />
        <path
           d="m 160.24696,31.915075 c 0,4.706643 -3.81504,8.523053 -8.51999,8.523053 -4.70495,0 -8.51736,-3.81641 -8.51736,-8.523053 0,-4.706642 8.51736,-22.2689778 8.51736,-22.2689778 0,0 8.51999,17.5623358 8.51999,22.2689778"
           id="Fill-7"
           style="fill:#fbae3a;stroke:none;stroke-width:0.39081788"
           inkscape:connector-curvature="0" />
        <path
           d="m 235.97671,147.43669 v -30.72093 c 6.62959,-1.50654 11.50042,-6.44759 11.50042,-12.32629 V 85.30742 c 0,-5.633746 -5.60804,-10.200798 -12.52198,-10.200798 h -18.92249 v 29.282848 c -0.43706,50.07689 -39.93287,55.57368 -39.93287,55.57368 h 47.35495 c 6.91657,0 12.52197,-5.60741 12.52197,-12.52646"
           id="Fill-8"
           style="opacity:0.15;fill:#010202;stroke:none;stroke-width:0.39081788"
           inkscape:connector-curvature="0" />
      </g>
    </g>
  </g>
</svg>
