<?xml version="1.0" encoding="UTF-8" standalone="no"?>
<svg
   xmlns:dc="http://purl.org/dc/elements/1.1/"
   xmlns:cc="http://creativecommons.org/ns#"
   xmlns:rdf="http://www.w3.org/1999/02/22-rdf-syntax-ns#"
   xmlns:svg="http://www.w3.org/2000/svg"
   xmlns="http://www.w3.org/2000/svg"
   xmlns:sodipodi="http://sodipodi.sourceforge.net/DTD/sodipodi-0.dtd"
   xmlns:inkscape="http://www.inkscape.org/namespaces/inkscape"
   enable-background="new 0 0 500 500"
   height="103.89836"
   id="Layer_1"
   version="1.1"
   viewBox="0 0 86.583034 103.89836"
   width="86.583038"
   xml:space="preserve"
   sodipodi:docname="cadenas.svg"
   inkscape:version="0.92.2 5c3e80d, 2017-08-06"><metadata
     id="metadata9"><rdf:RDF><cc:Work
         rdf:about=""><dc:format>image/svg+xml</dc:format><dc:type
           rdf:resource="http://purl.org/dc/dcmitype/StillImage" /><dc:title /></cc:Work></rdf:RDF></metadata><defs
     id="defs7" /><sodipodi:namedview
     pagecolor="#ffffff"
     bordercolor="#666666"
     borderopacity="1"
     objecttolerance="10"
     gridtolerance="10"
     guidetolerance="10"
     inkscape:pageopacity="0"
     inkscape:pageshadow="2"
     inkscape:window-width="1072"
     inkscape:window-height="695"
     id="namedview5"
     showgrid="false"
     inkscape:zoom="0.472"
     inkscape:cx="-285.09865"
     inkscape:cy="-11.609647"
     inkscape:window-x="295"
     inkscape:window-y="19"
     inkscape:window-maximized="0"
     inkscape:current-layer="Layer_1"
     fit-margin-top="0"
     fit-margin-left="0"
     fit-margin-right="0"
     fit-margin-bottom="0" /><path
     d="M 15.152068,28.139218 V 43.290811 H 8.658495 C 3.874797,43.290811 0,47.165367 0,51.949065 v 43.291518 c 0,4.783457 3.874797,8.657777 8.658495,8.657777 h 69.265576 c 4.78346,0 8.65897,-3.87432 8.65897,-8.657777 V 51.949065 c 0,-4.783698 -3.87551,-8.658254 -8.65897,-8.658254 H 71.430977 V 28.139218 C 71.430977,12.598095 58.832166,0 43.291521,0 27.750876,0 15.152068,12.597857 15.152068,28.139218 Z M 25.975007,43.290811 V 28.139218 c 0,-9.567162 7.74888,-17.316754 17.316275,-17.316754 9.567394,0 17.316753,7.749592 17.316753,17.316754 v 15.151593 z m 8.658021,23.810318 c 0,-4.783457 3.874556,-8.658013 8.658254,-8.658013 4.783703,0 8.65802,3.874556 8.65802,8.658013 0,3.052384 -1.580508,5.736674 -3.960805,7.273354 0,0 0.845768,5.10937 1.796836,11.12574 0,1.79589 -1.45019,3.24607 -3.247026,3.24607 h -6.494045 c -1.796596,0 -3.246553,-1.45018 -3.246553,-3.24607 l 1.796836,-11.12574 c -2.38053,-1.53668 -3.961517,-4.22121 -3.961517,-7.273354 z"
     id="path2"
     style="clip-rule:evenodd;fill:#d4ff2a;fill-rule:evenodd;stroke-width:0.23824382;fill-opacity:1"
     inkscape:connector-curvature="0" /></svg>