<?xml version="1.0" encoding="UTF-8" standalone="no"?>
<svg
   xmlns:dc="http://purl.org/dc/elements/1.1/"
   xmlns:cc="http://creativecommons.org/ns#"
   xmlns:rdf="http://www.w3.org/1999/02/22-rdf-syntax-ns#"
   xmlns:svg="http://www.w3.org/2000/svg"
   xmlns="http://www.w3.org/2000/svg"
   xmlns:sodipodi="http://sodipodi.sourceforge.net/DTD/sodipodi-0.dtd"
   xmlns:inkscape="http://www.inkscape.org/namespaces/inkscape"
   height="76.99411"
   style="overflow:visible"
   viewBox="0 0 98.444069 76.99411"
   width="98.444069"
   xml:space="preserve"
   version="1.1"
   id="svg11"
   sodipodi:docname="color.svg"
   inkscape:version="0.92.2 5c3e80d, 2017-08-06"><metadata
     id="metadata17"><rdf:RDF><cc:Work
         rdf:about=""><dc:format>image/svg+xml</dc:format><dc:type
           rdf:resource="http://purl.org/dc/dcmitype/StillImage" /><dc:title></dc:title></cc:Work></rdf:RDF></metadata><defs
     id="defs15" /><sodipodi:namedview
     pagecolor="#ffffff"
     bordercolor="#666666"
     borderopacity="1"
     objecttolerance="10"
     gridtolerance="10"
     guidetolerance="10"
     inkscape:pageopacity="0"
     inkscape:pageshadow="2"
     inkscape:window-width="1217"
     inkscape:window-height="809"
     id="namedview13"
     showgrid="false"
     fit-margin-top="0"
     fit-margin-left="0"
     fit-margin-right="0"
     fit-margin-bottom="0"
     inkscape:zoom="2.97995"
     inkscape:cx="16"
     inkscape:cy="62.994112"
     inkscape:window-x="0"
     inkscape:window-y="0"
     inkscape:window-maximized="0"
     inkscape:current-layer="svg11" /><g
     id="g9"
     transform="scale(3.0763771,2.7497897)"><g
       id="Color_Board"><g
         id="Color_Board_1_"><path
           d="m 28,20 h -5 c -1.7,0 -3,-1.3 -3,-3 0,-1.7 1.3,-3 3,-3 h 2 c 3.9,0 7,-3.1 7,-7 C 32,3.1 28.9,0 25,0 H 14 C 6.3,0 0,6.3 0,14 0,21.7 6.3,28 14,28 h 14 c 2.2,0 4,-1.8 4,-4 0,-2.2 -1.8,-4 -4,-4 z"
           id="Board"
           style="fill:#e6e6e6"
           inkscape:connector-curvature="0" /><circle
           cx="13"
           cy="4"
           id="Yellow_x5F_Color"
           r="2"
           style="fill:#ffe167" /><circle
           cx="7"
           cy="7"
           id="Green_x5F_Color"
           r="2"
           style="fill:#0ba55f" /><circle
           cx="5"
           cy="14"
           id="Red_x5F_Color"
           r="2"
           style="fill:#dd2c2c" /><circle
           cx="8"
           cy="20"
           id="Blue_x5F_Color"
           r="2"
           style="fill:#2c81ba" /></g></g></g></svg>