<?xml version="1.0" encoding="UTF-8" standalone="no"?>
<!-- Created with Inkscape (http://www.inkscape.org/) -->

<svg
   xmlns:dc="http://purl.org/dc/elements/1.1/"
   xmlns:cc="http://creativecommons.org/ns#"
   xmlns:rdf="http://www.w3.org/1999/02/22-rdf-syntax-ns#"
   xmlns:svg="http://www.w3.org/2000/svg"
   xmlns="http://www.w3.org/2000/svg"
   xmlns:xlink="http://www.w3.org/1999/xlink"
   xmlns:sodipodi="http://sodipodi.sourceforge.net/DTD/sodipodi-0.dtd"
   xmlns:inkscape="http://www.inkscape.org/namespaces/inkscape"
   version="1.1"
   id="svg2"
   xml:space="preserve"
   width="560.63409"
   height="649.91931"
   viewBox="0 0 560.63407 649.91928"
   sodipodi:docname="family.svg"
   inkscape:version="0.92.2 5c3e80d, 2017-08-06"><metadata
     id="metadata8"><rdf:RDF><cc:Work
         rdf:about=""><dc:format>image/svg+xml</dc:format><dc:type
           rdf:resource="http://purl.org/dc/dcmitype/StillImage" /><dc:title></dc:title></cc:Work></rdf:RDF></metadata><defs
     id="defs6"><clipPath
       clipPathUnits="userSpaceOnUse"
       id="clipPath148"><path
         d="M 0,800 H 800 V 0 H 0 Z"
         id="path146"
         inkscape:connector-curvature="0" /></clipPath><clipPath
       clipPathUnits="userSpaceOnUse"
       id="clipPath260"><path
         d="M 0,800 H 800 V 0 H 0 Z"
         id="path258"
         inkscape:connector-curvature="0" /></clipPath><linearGradient
       id="linearGradient5272"
       inkscape:collect="always"><stop
         id="stop5268"
         offset="0"
         style="stop-color:#9300b8;stop-opacity:1;" /><stop
         id="stop5270"
         offset="1"
         style="stop-color:#9300b8;stop-opacity:0;" /></linearGradient><linearGradient
       id="linearGradient3879"
       inkscape:collect="always"><stop
         id="stop3875"
         offset="0"
         style="stop-color:#ffffff;stop-opacity:1;" /><stop
         id="stop3877"
         offset="1"
         style="stop-color:#ffffff;stop-opacity:0;" /></linearGradient><linearGradient
       id="linearGradient3827"
       inkscape:collect="always"><stop
         id="stop3823"
         offset="0"
         style="stop-color:#87aade;stop-opacity:1" /><stop
         id="stop3825"
         offset="1"
         style="stop-color:#dbdee3;stop-opacity:1" /></linearGradient><linearGradient
       id="linearGradient3805"
       inkscape:collect="always"><stop
         id="stop3801"
         offset="0"
         style="stop-color:#162d50;stop-opacity:1;" /><stop
         id="stop3803"
         offset="1"
         style="stop-color:#162d50;stop-opacity:0" /></linearGradient><linearGradient
       id="linearGradient3570"
       inkscape:collect="always"><stop
         id="stop3566"
         offset="0"
         style="stop-color:#00fe00;stop-opacity:1;" /><stop
         id="stop3568"
         offset="1"
         style="stop-color:#00fe00;stop-opacity:0;" /></linearGradient><linearGradient
       id="linearGradient2736"
       inkscape:collect="always"><stop
         id="stop2732"
         offset="0"
         style="stop-color:#554400;stop-opacity:1" /><stop
         id="stop2734"
         offset="1"
         style="stop-color:#ffcc00;stop-opacity:1" /></linearGradient><linearGradient
       id="linearGradient13699"
       inkscape:collect="always"><stop
         id="stop13695"
         offset="0"
         style="stop-color:#ff5555;stop-opacity:1" /><stop
         id="stop13697"
         offset="1"
         style="stop-color:#ff0000;stop-opacity:1" /></linearGradient><linearGradient
       id="linearGradient11714"
       inkscape:collect="always"><stop
         id="stop11710"
         offset="0"
         style="stop-color:#000000;stop-opacity:1;" /><stop
         id="stop11712"
         offset="1"
         style="stop-color:#554400;stop-opacity:1" /></linearGradient><linearGradient
       inkscape:collect="always"
       id="linearGradient11708"><stop
         style="stop-color:#554400;stop-opacity:1"
         offset="0"
         id="stop11704" /><stop
         style="stop-color:#000000;stop-opacity:1"
         offset="1"
         id="stop11706" /></linearGradient><linearGradient
       id="linearGradient11639"
       inkscape:collect="always"><stop
         id="stop11635"
         offset="0"
         style="stop-color:#2b2200;stop-opacity:1;" /><stop
         id="stop11637"
         offset="1"
         style="stop-color:#000000;stop-opacity:1" /></linearGradient><linearGradient
       id="linearGradient11591"
       inkscape:collect="always"><stop
         id="stop11587"
         offset="0"
         style="stop-color:#2b2200;stop-opacity:1;" /><stop
         id="stop11589"
         offset="1"
         style="stop-color:#907300;stop-opacity:1" /></linearGradient><linearGradient
       id="linearGradient11559"
       inkscape:collect="always"><stop
         id="stop11555"
         offset="0"
         style="stop-color:#aa8800;stop-opacity:1;" /><stop
         id="stop11557"
         offset="1"
         style="stop-color:#ffcc00;stop-opacity:1" /></linearGradient><linearGradient
       id="linearGradient11535"
       inkscape:collect="always"><stop
         id="stop11531"
         offset="0"
         style="stop-color:#554400;stop-opacity:1;" /><stop
         id="stop11533"
         offset="1"
         style="stop-color:#554400;stop-opacity:0;" /></linearGradient><linearGradient
       id="linearGradient11483"
       inkscape:collect="always"><stop
         id="stop11479"
         offset="0"
         style="stop-color:#554400;stop-opacity:1;" /><stop
         id="stop11481"
         offset="1"
         style="stop-color:#a0892c;stop-opacity:1" /></linearGradient><linearGradient
       id="linearGradient11467"
       inkscape:collect="always"><stop
         id="stop11463"
         offset="0"
         style="stop-color:#d4aa00;stop-opacity:1;" /><stop
         id="stop11465"
         offset="1"
         style="stop-color:#554400;stop-opacity:1" /></linearGradient><linearGradient
       id="linearGradient11451"
       inkscape:collect="always"><stop
         id="stop11447"
         offset="0"
         style="stop-color:#222b00;stop-opacity:1;" /><stop
         id="stop11449"
         offset="1"
         style="stop-color:#000000;stop-opacity:1" /></linearGradient><linearGradient
       id="linearGradient11441"
       inkscape:collect="always"><stop
         id="stop11437"
         offset="0"
         style="stop-color:#28220b;stop-opacity:1;" /><stop
         id="stop11439"
         offset="1"
         style="stop-color:#000000;stop-opacity:1" /></linearGradient><linearGradient
       id="linearGradient10712"
       inkscape:collect="always"><stop
         id="stop10708"
         offset="0"
         style="stop-color:#5d6c53;stop-opacity:1;" /><stop
         id="stop10710"
         offset="1"
         style="stop-color:#2b2200;stop-opacity:1" /></linearGradient><linearGradient
       id="linearGradient5851"
       inkscape:collect="always"><stop
         id="stop5847"
         offset="0"
         style="stop-color:#00aa88;stop-opacity:1;" /><stop
         id="stop5849"
         offset="1"
         style="stop-color:#005544;stop-opacity:1" /></linearGradient><linearGradient
       id="linearGradient5134"
       inkscape:collect="always"><stop
         id="stop5130"
         offset="0"
         style="stop-color:#939dac;stop-opacity:1;" /><stop
         id="stop5132"
         offset="1"
         style="stop-color:#939dac;stop-opacity:0;" /></linearGradient><linearGradient
       id="linearGradient4892"
       inkscape:collect="always"><stop
         id="stop4888"
         offset="0"
         style="stop-color:#214478;stop-opacity:1;" /><stop
         id="stop4890"
         offset="1"
         style="stop-color:#214478;stop-opacity:0;" /></linearGradient><linearGradient
       gradientUnits="userSpaceOnUse"
       y2="76.369003"
       x2="78.844505"
       y1="76.369003"
       x1="54.909721"
       id="linearGradient4894"
       xlink:href="#linearGradient4892"
       inkscape:collect="always" /><linearGradient
       gradientTransform="translate(-73.248985,38.91643)"
       gradientUnits="userSpaceOnUse"
       y2="161.1933"
       x2="-6.8345628"
       y1="-88.010132"
       x1="-12.778862"
       id="linearGradient5136"
       xlink:href="#linearGradient5134"
       inkscape:collect="always" /><linearGradient
       gradientTransform="translate(-0.2285689,0.99821375)"
       y2="100.34581"
       x2="320.46729"
       y1="104.91491"
       x1="320.61758"
       gradientUnits="userSpaceOnUse"
       id="linearGradient5855"
       xlink:href="#linearGradient5851"
       inkscape:collect="always" /><linearGradient
       gradientTransform="translate(79.375002,52.916669)"
       gradientUnits="userSpaceOnUse"
       y2="601.45782"
       x2="283.86301"
       y1="619.91956"
       x1="313.77054"
       id="linearGradient7990"
       xlink:href="#linearGradient11714"
       inkscape:collect="always" /><linearGradient
       gradientUnits="userSpaceOnUse"
       y2="325.71582"
       x2="63.527805"
       y1="512.95837"
       x1="64.491188"
       id="linearGradient10714"
       xlink:href="#linearGradient10712"
       inkscape:collect="always" /><linearGradient
       gradientTransform="translate(2.0163302,88.242674)"
       gradientUnits="userSpaceOnUse"
       y2="573.39673"
       x2="429.83542"
       y1="558.82568"
       x1="402.8605"
       id="linearGradient11443"
       xlink:href="#linearGradient11441"
       inkscape:collect="always" /><linearGradient
       gradientTransform="translate(1.5561202,82.685504)"
       gradientUnits="userSpaceOnUse"
       y2="637.26495"
       x2="357.4267"
       y1="592.51556"
       x1="359.04874"
       id="linearGradient11453"
       xlink:href="#linearGradient11451"
       inkscape:collect="always" /><linearGradient
       gradientTransform="translate(1.5561202,82.685504)"
       gradientUnits="userSpaceOnUse"
       y2="588.64325"
       x2="348.11783"
       y1="518.90112"
       x1="350.95239"
       id="linearGradient11469"
       xlink:href="#linearGradient11467"
       inkscape:collect="always" /><linearGradient
       gradientTransform="translate(1.5561202,50.935503)"
       gradientUnits="userSpaceOnUse"
       y2="568.66229"
       x2="330.65869"
       y1="595.44684"
       x1="343.34433"
       id="linearGradient11477"
       xlink:href="#linearGradient11483"
       inkscape:collect="always" /><linearGradient
       gradientTransform="translate(1.5561202,50.935503)"
       gradientUnits="userSpaceOnUse"
       y2="568.66229"
       x2="330.65869"
       y1="608.15826"
       x1="331.68094"
       id="linearGradient11485"
       xlink:href="#linearGradient11483"
       inkscape:collect="always" /><linearGradient
       gradientTransform="translate(1.5561202,82.685504)"
       gradientUnits="userSpaceOnUse"
       y2="612.49072"
       x2="317.7218"
       y1="597.13116"
       x1="317.58954"
       id="linearGradient11537"
       xlink:href="#linearGradient11535"
       inkscape:collect="always" /><linearGradient
       gradientTransform="translate(1.5561202,82.685504)"
       gradientUnits="userSpaceOnUse"
       y2="535.54846"
       x2="308.21674"
       y1="596.86835"
       x1="307.28714"
       id="linearGradient11593"
       xlink:href="#linearGradient11591"
       inkscape:collect="always" /><linearGradient
       gradientTransform="translate(1.5561202,82.685504)"
       gradientUnits="userSpaceOnUse"
       y2="597.51276"
       x2="312.62866"
       y1="588.7359"
       x1="329.80084"
       id="linearGradient11641"
       xlink:href="#linearGradient11639"
       inkscape:collect="always" /><linearGradient
       y2="552.05945"
       x2="373.01385"
       y1="577.68439"
       x1="374.85495"
       gradientTransform="matrix(1.5054753,0,0,1.3473626,-227.53751,-139.98561)"
       gradientUnits="userSpaceOnUse"
       id="linearGradient11694"
       xlink:href="#linearGradient11559"
       inkscape:collect="always" /><linearGradient
       gradientTransform="matrix(1.895197,0,0,2.2584794,-412.52435,-641.21214)"
       y2="544.77649"
       x2="376.49164"
       y1="517.39709"
       x1="375.50555"
       gradientUnits="userSpaceOnUse"
       id="linearGradient11702"
       xlink:href="#linearGradient11708"
       inkscape:collect="always" /><radialGradient
       gradientUnits="userSpaceOnUse"
       gradientTransform="matrix(0.94948755,0.31380469,-0.3198394,0.96774696,3.2260671,-9.7611682)"
       r="62.496632"
       fy="534.58228"
       fx="-99.61071"
       cy="534.58228"
       cx="-99.61071"
       id="radialGradient13703"
       xlink:href="#linearGradient13699"
       inkscape:collect="always" /><radialGradient
       r="62.496632"
       fy="546.29144"
       fx="113.7719"
       cy="546.29144"
       cx="113.7719"
       gradientTransform="matrix(0.94948755,0.31380469,-0.3198394,0.96774696,3.2260671,-9.7611682)"
       gradientUnits="userSpaceOnUse"
       id="radialGradient13721"
       xlink:href="#linearGradient13699"
       inkscape:collect="always" /><linearGradient
       gradientTransform="translate(6.6666666e-8,-1.0666666e-6)"
       gradientUnits="userSpaceOnUse"
       y2="938.14185"
       x2="107.77657"
       y1="995.87384"
       x1="87.238396"
       id="linearGradient2740"
       xlink:href="#linearGradient2736"
       inkscape:collect="always" /><radialGradient
       gradientUnits="userSpaceOnUse"
       gradientTransform="matrix(0.69893251,-0.03330499,0.03327505,0.69830411,166.02901,300.57565)"
       r="94.024368"
       fy="924.13342"
       fx="653.60626"
       cy="924.13342"
       cx="653.60626"
       id="radialGradient3572"
       xlink:href="#linearGradient3570"
       inkscape:collect="always" /><linearGradient
       gradientUnits="userSpaceOnUse"
       y2="956.12378"
       x2="-327.60294"
       y1="858.55872"
       x1="-305.95526"
       id="linearGradient3799"
       xlink:href="#linearGradient3805"
       inkscape:collect="always" /><linearGradient
       gradientUnits="userSpaceOnUse"
       y2="1104.6816"
       x2="-426.27332"
       y1="978.82269"
       x1="-353.04562"
       id="linearGradient3807"
       xlink:href="#linearGradient3805"
       inkscape:collect="always" /><linearGradient
       gradientTransform="translate(2.9666667e-6)"
       y2="956.12378"
       x2="-327.60294"
       y1="858.55872"
       x1="-305.95526"
       gradientUnits="userSpaceOnUse"
       id="linearGradient3811"
       xlink:href="#linearGradient3805"
       inkscape:collect="always" /><linearGradient
       gradientTransform="translate(-1.3966667e-6)"
       y2="1122.7511"
       x2="-244.31454"
       y1="941.66205"
       x1="-244.65642"
       gradientUnits="userSpaceOnUse"
       id="linearGradient3815"
       xlink:href="#linearGradient3805"
       inkscape:collect="always" /><linearGradient
       y2="956.12378"
       x2="-327.60294"
       y1="858.55872"
       x1="-305.95526"
       gradientTransform="translate(3.1031457e-6)"
       gradientUnits="userSpaceOnUse"
       id="linearGradient3819"
       xlink:href="#linearGradient3805"
       inkscape:collect="always" /><linearGradient
       gradientUnits="userSpaceOnUse"
       y2="844.82806"
       x2="-227.32668"
       y1="598.96399"
       x1="-221.47278"
       id="linearGradient3829"
       xlink:href="#linearGradient3827"
       inkscape:collect="always" /><linearGradient
       gradientUnits="userSpaceOnUse"
       y2="-1098.6392"
       x2="14.961507"
       y1="-1078.6383"
       x1="37.630531"
       id="linearGradient3881"
       xlink:href="#linearGradient3879"
       inkscape:collect="always" /><linearGradient
       gradientUnits="userSpaceOnUse"
       y2="848.56659"
       x2="-411.17413"
       y1="872.3938"
       x1="-427.85361"
       id="linearGradient3923"
       xlink:href="#linearGradient3827"
       inkscape:collect="always" /><linearGradient
       gradientUnits="userSpaceOnUse"
       y2="1052.4124"
       x2="-314.53064"
       y1="844.59875"
       x1="-191.42099"
       id="linearGradient4083"
       xlink:href="#linearGradient3879"
       inkscape:collect="always" /><linearGradient
       y2="-941.76904"
       x2="1172.1039"
       y1="-1364.186"
       x1="1336.9044"
       gradientUnits="userSpaceOnUse"
       id="linearGradient5266"
       xlink:href="#linearGradient5272"
       inkscape:collect="always" /><linearGradient
       gradientUnits="userSpaceOnUse"
       y2="23.806196"
       x2="1356.9921"
       y1="-195.6684"
       x1="1525.1714"
       id="linearGradient5675"
       xlink:href="#linearGradient5272"
       inkscape:collect="always" /><linearGradient
       gradientUnits="userSpaceOnUse"
       y2="-59.015114"
       x2="1424.1705"
       y1="-195.6684"
       x1="1525.1714"
       id="linearGradient5683"
       xlink:href="#linearGradient5272"
       inkscape:collect="always" /><linearGradient
       y2="4.188067"
       x2="1440.4407"
       y1="-198.17149"
       x1="1453.2074"
       gradientTransform="matrix(1.3783808,0,0,1.3783808,-548.56964,33.56843)"
       gradientUnits="userSpaceOnUse"
       id="linearGradient5898"
       xlink:href="#linearGradient5272"
       inkscape:collect="always" /><linearGradient
       y2="23.806196"
       x2="1356.9921"
       y1="-198.17149"
       x1="1453.2074"
       gradientTransform="matrix(1.3783808,0,0,1.3783808,-548.56964,33.56843)"
       gradientUnits="userSpaceOnUse"
       id="linearGradient5900"
       xlink:href="#linearGradient5272"
       inkscape:collect="always" /></defs><sodipodi:namedview
     pagecolor="#ffffff"
     bordercolor="#666666"
     borderopacity="1"
     objecttolerance="10"
     gridtolerance="10"
     guidetolerance="10"
     inkscape:pageopacity="0"
     inkscape:pageshadow="2"
     inkscape:window-width="1442"
     inkscape:window-height="719"
     id="namedview4"
     showgrid="false"
     inkscape:zoom="0.62578945"
     inkscape:cx="279.65437"
     inkscape:cy="304.32231"
     inkscape:window-x="0"
     inkscape:window-y="0"
     inkscape:window-maximized="0"
     inkscape:current-layer="g5657"
     fit-margin-top="0"
     fit-margin-left="0"
     fit-margin-right="0"
     fit-margin-bottom="0" /><g
     id="g10"
     inkscape:groupmode="layer"
     inkscape:label="05"
     transform="matrix(1.3333333,0,0,-1.3333333,-251.61577,720.33458)"><g
       id="g254"
       transform="translate(15.254238,-18.644069)"
       style="stroke:#d4ff2a;stroke-opacity:1"><g
         id="g256"
         clip-path="url(#clipPath260)"
         style="stroke:#d4ff2a;stroke-opacity:1"><g
           transform="matrix(2.8346458,0,0,-2.8346458,81.299594,763.40726)"
           id="layer1"
           inkscape:label="Layer 1"><g
             transform="matrix(-1,0,0,1,398.24852,1.4480552e-6)"
             id="g5737"><g
               id="g5735" /></g><g
             transform="matrix(0.83550484,0,0,0.83550484,36.238825,73.187212)"
             id="g9600" /><g
             transform="translate(15.875,-15.875)"
             id="g12776" /><g
             transform="rotate(-37.418013,126.6673,554.28453)"
             id="g13761" /><flowRoot
             xml:space="preserve"
             id="flowRoot6931"
             style="font-style:normal;font-weight:normal;font-size:40px;line-height:125%;font-family:Sans;letter-spacing:0px;word-spacing:0px;fill:#000000;fill-opacity:1;stroke:none;stroke-width:1px;stroke-linecap:butt;stroke-linejoin:miter;stroke-opacity:1"
             transform="matrix(0.26458333,0,0,0.26458334,-180.70673,792.85701)"><flowRegion
               id="flowRegion6933"><rect
                 id="rect6935"
                 width="48.476715"
                 height="128.17375"
                 x="1082.707"
                 y="2419.5564" /></flowRegion><flowPara
               id="flowPara6937" /></flowRoot><g
             style="stroke-width:1.20322895"
             transform="matrix(0.83109708,0,0,0.83109708,-1261.6929,-297.08303)"
             id="g5657"><circle
               r="80.585754"
               cy="550.32269"
               cx="1651.0258"
               id="path939"
               style="fill:#2c3e50;fill-opacity:1;stroke:none;stroke-width:6.49952126;stroke-miterlimit:4;stroke-dasharray:none;stroke-opacity:1" /><path
               style="fill:#34495e;fill-opacity:1;fill-rule:evenodd;stroke:none;stroke-width:0.5189175;stroke-linecap:butt;stroke-linejoin:miter;stroke-miterlimit:4;stroke-dasharray:none;stroke-opacity:1"
               d="m 1608.5247,578.60926 41.7755,10.31169 42.0535,-9.39097 -25.631,-14.79784 -13.0051,-47.99812 13.3848,-11.09833 7.9742,10.14973 -5.2213,-18.68695 -30.1874,19.16123 -5.7905,49.32625 z"
               id="path7816"
               inkscape:connector-curvature="0" /></g></g><g
           id="g262"
           transform="translate(439.3275,252.7059)"
           style="stroke:#d4ff2a;stroke-opacity:1"><path
             d="M 0,0 C -0.146,-0.101 -0.169,-0.152 0,0"
             style="fill:#1d1d1b;fill-opacity:1;fill-rule:nonzero;stroke:#d4ff2a;stroke-opacity:1"
             id="path264"
             inkscape:connector-curvature="0" /></g><g
           id="g266"
           transform="translate(497.8535,166.153)"
           style="stroke:#d4ff2a;stroke-opacity:1"><path
             d="m 0,0 c -1.539,-0.605 -3.56,-0.964 -5.134,-0.276 -1.293,0.564 -1.755,1.764 -1.825,3.042 1.055,0.368 1.624,1.351 1.942,2.481 0.382,-0.509 0.721,-1.057 1.015,-1.616 0.282,-0.536 0.348,-1.12 1.008,-1.346 0.481,-0.166 0.909,0.262 0.938,0.713 0.039,0.635 -0.578,1.002 -0.947,1.403 -0.548,0.594 -1.052,1.242 -1.656,1.78 -0.045,0.04 -0.092,0.064 -0.138,0.084 0.004,0.022 0.009,0.045 0.012,0.067 0.22,-0.147 0.455,-0.279 0.711,-0.39 C -3.108,5.52 -2.119,5.494 -1.183,4.943 -0.295,4.42 0.435,5.19 0.378,5.989 0.468,5.727 0.56,5.465 0.648,5.201 0.946,4.317 1.161,3.266 1.834,2.585 2.161,2.254 2.902,2.469 2.833,2.998 2.723,3.852 2.259,4.588 1.896,5.359 1.44,6.328 1.001,7.304 0.481,8.24 1.294,8.091 2.096,8.056 2.765,8.262 3.837,6.968 4.586,5.454 4.082,3.714 3.798,2.734 3.105,1.924 2.271,1.277 2.063,1.309 1.85,1.218 1.811,0.957 1.81,0.951 1.81,0.945 1.809,0.939 1.224,0.55 0.596,0.234 0,0 M -0.34,7.926 C -0.151,7.475 0.021,7.017 0.185,6.556 0.165,6.586 0.157,6.62 0.134,6.65 -0.243,7.128 -0.519,7.819 -0.708,8.526 -0.534,8.472 -0.356,8.431 -0.179,8.385 -0.329,8.29 -0.424,8.126 -0.34,7.926 M -7.267,5.795 c -0.125,-0.416 -0.38,-0.613 -0.355,-0.718 -0.521,0.366 -0.826,2.022 -0.887,2.508 -0.3,2.4 0.471,4.45 1.863,6.047 0.244,0.122 0.442,0.319 0.538,0.566 0.991,0.956 2.216,1.72 3.566,2.256 C -0.549,15.566 1.181,14.077 2.026,12.02 2.177,11.652 2.255,11.354 2.275,11.112 1.765,11.108 1.309,10.705 1.276,10.23 0.418,10.271 -0.792,10.781 -1.533,11.134 -2.206,11.455 -3.219,11.087 -3.152,10.206 -3.096,9.473 -2.96,8.667 -2.746,7.883 -3.632,8.205 -4.202,8.687 -4.893,9.551 -5.555,10.378 -6.734,9.623 -6.792,8.764 -6.861,7.752 -6.973,6.769 -7.267,5.795 m -28.645,86.583 c 3.066,-11.702 6.412,-23.396 9.182,-35.162 2.044,-8.68 3.311,-17.511 3.626,-26.422 0.146,-4.146 -0.085,-8.285 -0.495,-12.408 -0.061,-0.616 -0.13,-6.918 -2.167,-7.018 -2.782,-0.137 -5.564,-0.271 -8.346,-0.406 -8.432,-0.409 -16.865,-0.815 -25.298,-1.206 -2.477,-0.115 -5.128,-0.417 -7.815,-0.673 -0.188,1.14 -2.048,1.059 -2.309,-0.203 -3.541,-0.278 -7.078,-0.362 -10.308,0.272 -5.429,1.067 -4.038,12.454 -3.74,16.102 0.506,6.191 1.882,12.284 2.215,18.491 0.451,8.421 0.282,16.875 0.578,25.303 0.365,10.408 1.125,20.901 3.545,31.056 1.034,4.339 2.605,9.382 5.349,13.309 0.284,-4.186 1.555,-8.017 3.212,-11.957 0.329,-0.784 1.445,-1.142 1.936,-0.253 1.41,2.555 2.348,5.279 3.163,8.05 0.775,-1.652 1.953,-2.839 3.011,-4.403 0.165,-0.244 0.386,-0.389 0.63,-0.442 0.123,-8.222 -0.88,-16.202 -2.93,-24.185 -0.975,-3.799 -2.207,-7.516 -3.322,-11.266 -0.07,-0.064 -0.143,-0.122 -0.212,-0.186 -0.435,-0.409 -0.45,-0.942 -0.245,-1.385 -0.639,-2.24 -1.222,-4.496 -1.657,-6.796 -2.072,-10.964 3.195,-19.132 10.614,-26.724 0.474,-0.485 1.207,-0.429 1.688,0 8.632,7.689 13.161,16.46 12.218,28.125 -1.232,15.239 -6.739,30.372 -10.486,45.104 -0.018,0.068 -0.056,0.11 -0.081,0.17 0.644,0.463 1.256,0.96 1.803,1.512 0.741,-2.113 1.61,-4.177 2.687,-6.15 0.467,-0.855 1.731,-0.615 1.996,0.261 1.223,4.049 2.925,7.911 4.404,11.863 1.356,-2.284 2.235,-5.157 2.95,-7.072 1.864,-4.987 3.256,-10.157 4.604,-15.301 m 3.894,-159.038 c 0.011,0.002 0.019,0.01 0.03,0.013 7.124,0.101 14.238,0.557 21.362,0.661 -0.102,-0.821 -0.237,-1.636 -0.441,-2.439 -0.474,-2.219 -1.728,-1.355 -3.73,-1.179 -3.469,0.306 -6.976,0.214 -10.452,0.127 -3.57,-0.089 -7.139,-0.306 -10.707,-0.457 -4.284,-0.182 -6.04,-0.414 -5.952,3.267 3.356,-0.631 6.526,-0.628 9.89,0.007 M -42.734,8.078 c 2.35,0.106 4.701,0.214 7.052,0.32 -0.773,-10.074 0.366,-20.57 0.782,-30.644 0.497,-12.028 1.023,-24.056 1.23,-36.093 0.045,-2.617 1.337,-6.081 -2.389,-6.423 -5.589,-0.512 -4.584,4.046 -4.705,7.971 -0.225,7.308 -0.42,14.617 -0.634,21.925 -0.413,14.062 -0.549,28.126 -0.864,42.189 -0.008,0.383 -0.212,0.626 -0.472,0.755 m -28.387,-79.39 c -2.721,0.236 -5.508,0.077 -8.231,-0.018 -5.812,-0.202 -11.608,-0.893 -17.403,-1.389 -0.116,1.251 -0.122,2.673 1.116,3.047 2.503,0.756 5.223,1.069 7.797,1.38 3.035,0.366 6.071,0.487 9.076,0.999 0.12,-0.325 0.366,-0.604 0.722,-0.678 2.953,-0.609 5.997,-0.253 8.912,0.451 -0.177,-1.592 -0.331,-3.937 -1.989,-3.792 m -6.724,77.366 c -0.003,0.014 -0.012,0.021 -0.016,0.035 2.522,-0.251 5.414,-0.014 8.049,0.3 -1.265,-12.398 -1.566,-24.835 -1.35,-37.296 0.115,-6.598 0.412,-13.193 0.739,-19.782 0.146,-2.948 0.336,-5.894 0.513,-8.84 0.09,-1.48 0.181,-2.959 0.272,-4.438 0.149,-2.414 -2.258,-1.902 -4.199,-2.095 -5.104,-0.505 -3.014,12.201 -2.899,15.651 0.209,6.287 0.657,12.566 0.999,18.846 0.683,12.537 0.837,25.333 -2.108,37.619 m 12.178,112.777 c 0.774,-0.186 1.554,-0.342 2.336,-0.473 -1.553,-4.707 -2.409,-9.665 -4.368,-14.218 -1.642,3.47 -2.584,7.093 -2.847,10.98 1.367,1.553 2.969,2.848 4.879,3.711 m 11.962,-0.778 c 2.181,0.214 4.348,0.609 6.472,1.19 -0.159,-0.477 -0.045,-1.003 0.569,-1.276 0.579,-0.258 1.102,-0.643 1.583,-1.109 -1.27,-3.653 -2.794,-7.204 -4.057,-10.855 -1.858,3.895 -3.154,7.965 -4.567,12.05 m -5.997,-11.494 c -1.346,1.08 -2.402,2.609 -3.068,4.158 -0.068,0.158 -0.182,0.247 -0.312,0.292 0.658,2.356 1.281,4.725 2.071,7.039 1.974,-0.198 3.96,-0.223 5.941,-0.101 0.513,-2.312 1.084,-4.622 1.774,-6.892 -0.049,-0.046 -0.105,-0.075 -0.148,-0.133 -1.561,-2.094 -4.162,-2.924 -6.258,-4.363 m 3.23,-9.574 c -0.563,-0.554 -1.209,-1.177 -1.718,-1.862 0.297,3.255 0.372,6.564 0.128,9.961 0.546,0.275 1.095,0.563 1.638,0.87 0.544,-2.459 1.143,-4.903 1.759,-7.344 -0.705,-0.344 -1.307,-1.134 -1.807,-1.625 m -1.894,-7.441 c -0.194,-0.185 -0.391,-0.367 -0.585,-0.553 -0.032,-0.031 -0.057,-0.067 -0.088,-0.099 0.096,0.559 0.186,1.12 0.271,1.682 0.079,0.02 0.159,0.049 0.238,0.092 -0.199,-0.402 -0.099,-0.822 0.164,-1.122 m 6.465,-3.568 c -3.252,-2.577 -6.545,-5.061 -9.53,-7.928 0.732,2.843 1.413,5.681 1.974,8.54 0.315,-0.206 0.732,-0.243 1.077,0.101 -0.069,-0.068 -0.104,-0.098 -0.146,-0.136 0.039,0.027 0.075,0.054 0.128,0.081 0.222,0.115 0.437,0.231 0.644,0.371 0.7,0.475 1.29,1.222 1.898,1.808 0.976,0.941 1.965,1.908 3.008,2.799 0.479,-1.808 0.961,-3.616 1.438,-5.424 -0.178,-0.039 -0.35,-0.101 -0.491,-0.212 m 0.655,-4.258 c -0.266,-0.207 -0.548,-0.389 -0.818,-0.59 0.509,0.71 0.965,1.474 1.382,2.277 0.119,-0.461 0.241,-0.921 0.359,-1.382 -0.304,0.011 -0.626,-0.075 -0.923,-0.305 m 0.822,-3.504 c 0.262,0.403 0.509,0.822 0.744,1.255 0.089,-0.359 0.179,-0.719 0.267,-1.079 -0.326,0.075 -0.681,0.033 -1.011,-0.176 M -61.975,75.35 c 1.943,1.709 4.003,3.266 6.083,4.796 -1.81,-1.804 -3.936,-3.316 -6.083,-4.796 m 5.481,-0.118 c -0.671,-0.558 -1.37,-1.087 -2.091,-1.591 -1.601,-0.763 -3.186,-1.551 -4.684,-2.491 0.051,0.192 0.103,0.382 0.155,0.573 0.131,0.024 0.262,0.049 0.401,0.118 2.115,1.059 4.191,2.187 6.219,3.391 m 8.09,-6.447 c -5.235,-4.299 -11.369,-7.315 -17.743,-9.531 0.332,2.13 0.851,4.236 1.373,6.254 0.134,0.517 0.271,1.03 0.407,1.544 2.499,1.53 5.059,2.993 7.415,4.67 2.78,1.337 5.605,2.61 8.061,4.496 0.559,-2.366 1.065,-4.745 1.538,-7.131 -0.346,0.05 -0.717,-0.028 -1.051,-0.302 M -66.447,53.676 c -0.004,-0.003 -0.006,-0.007 -0.01,-0.01 -0.011,0.158 -0.015,0.315 -0.022,0.473 1.94,1.466 3.992,2.752 6.076,3.986 -2.087,-1.372 -4.123,-2.821 -6.044,-4.449 m 17.289,-7.394 c -1.776,-3.518 -4.327,-6.787 -7.648,-9.896 -1.294,1.346 -2.545,2.725 -3.703,4.165 0.134,0 0.268,0.003 0.418,0.048 4.027,1.236 7.588,3.258 10.933,5.683 m -13.19,-2.15 c -0.22,-0.117 -0.347,-0.299 -0.399,-0.5 -1.037,1.603 -1.929,3.299 -2.61,5.126 1.183,0.714 2.362,1.436 3.535,2.165 5.335,3.137 10.846,5.968 15.645,9.928 0.122,-2.665 -0.074,-5.183 -0.562,-7.586 -0.222,0.013 -0.449,-0.013 -0.672,-0.144 -5.025,-2.947 -9.787,-6.246 -14.937,-8.989 m -25.33,105.053 c 10.601,-1.518 20.955,1.635 29.827,7.499 4.596,3.039 8.804,7.02 12.08,11.444 1.894,2.559 3.516,5.204 4.926,8.06 0.163,0.332 0.307,0.703 0.444,1.086 -0.273,-12.468 4.965,-26.058 17.897,-29.588 0.129,-0.036 0.246,-0.037 0.357,-0.027 -0.389,-1.72 -0.899,-3.414 -1.529,-5.058 -6.192,-16.151 -23.177,-24.528 -39.488,-21.839 -0.155,0.428 -0.572,0.775 -1.156,0.664 -0.35,-0.067 -0.693,-0.146 -1.028,-0.235 -1.025,0.233 -2.046,0.505 -3.058,0.828 -12.625,4.028 -18.56,15.125 -19.272,27.166 m -0.879,-21.205 c -2.053,2.684 -0.227,5.402 1.995,7.172 1.179,-2.511 2.682,-4.836 4.526,-6.902 -1.89,-1.689 -4.677,-2.68 -6.521,-0.27 m 0.884,26.2 c 9.587,0.043 19.877,5.435 27.897,10.051 6.154,3.542 13.724,8.602 17.669,15.187 -0.658,-1.693 -1.224,-3.46 -2.027,-4.922 -2.795,-5.087 -6.759,-9.43 -11.121,-13.209 -8.949,-7.754 -20.717,-11.836 -32.483,-10.629 -0.028,1.169 -0.003,2.345 0.065,3.522 m 2.696,13.045 c 5.604,-5.083 18.001,0.046 23.639,2.301 6.168,2.467 15.012,6.439 19.437,12.426 -4.127,-7.593 -12.958,-12.731 -20.141,-16.751 -7.796,-4.363 -16.505,-8.177 -25.483,-9.129 0.379,3.801 1.248,7.579 2.548,11.153 m 13.574,18.056 c 0.03,-0.34 0.218,-0.673 0.614,-0.827 7.892,-3.078 16.147,-1.83 24.364,-1.235 -9.608,-4.188 -20.054,-6.374 -30.373,-3.518 -0.941,0.26 -1.585,-1.158 -0.676,-1.605 10.763,-5.291 26.256,0.175 35.832,6.315 0.088,-0.049 0.177,-0.095 0.264,-0.145 -4.763,-6.162 -13.614,-10.009 -20.495,-12.8 -6.935,-2.814 -15.232,-5.506 -22.61,-2.943 2.781,6.963 7.254,13.027 13.08,16.758 m 18.693,3.367 c 0.121,-0.362 0.423,-0.668 0.904,-0.707 3.069,-0.247 6.179,-1.407 9.142,-2.968 -0.387,-0.193 -0.779,-0.377 -1.17,-0.564 -0.016,0.002 -0.027,0.009 -0.044,0.01 -8.885,0.187 -17.522,-1.252 -26.107,1.706 4.934,2.737 10.753,3.843 17.275,2.523 m 14.243,-10.734 c 2.275,-10.117 8.064,-21.985 16.624,-26.973 0.083,-0.048 0.165,-0.071 0.245,-0.079 -0.064,-0.498 -0.121,-0.998 -0.208,-1.494 -0.065,0.04 -0.121,0.087 -0.203,0.114 -11.967,3.963 -17.11,16.57 -16.458,28.432 m 0.379,3.593 c 0.962,-3.144 3.895,-6.259 5.756,-8.597 2.861,-3.592 6.186,-7.091 9.895,-9.9 1.015,-3.49 1.311,-7.14 0.995,-10.762 -8.063,8.264 -14.183,17.611 -16.681,29.01 0.012,0.083 0.024,0.166 0.035,0.249 m 4.381,-2.47 c 3.878,-2.999 7.007,-6.83 9.307,-11.142 0.297,-0.559 0.566,-1.126 0.818,-1.699 -2.413,2.125 -4.706,4.357 -6.886,6.789 -2.079,2.32 -3.592,5.078 -5.321,7.62 0.719,-0.526 1.415,-1.052 2.082,-1.568 m 6.588,-53.715 c -2.126,-1.109 -4.885,-0.75 -7.133,0.148 1.733,1.268 3.372,2.679 4.885,4.235 0.496,0.51 0.968,1.035 1.429,1.566 1.929,-1.755 3.956,-4.311 0.819,-5.949 M 33.53,-18.29 C 22.322,-15.934 4.737,-14.646 2.853,-0.777 4.233,0.139 5.368,1.39 5.997,2.96 6.954,5.349 5.834,7.785 4.221,9.614 c 0.131,0.333 0.218,0.723 0.24,1.195 0.156,3.372 -3.419,6.553 -6.253,7.634 -0.502,0.192 -0.928,-0.086 -1.161,-0.487 -1.431,-0.377 -2.75,-0.982 -3.892,-1.777 -8.36,14.917 -5.987,34.63 -8.48,51.032 -1.42,9.344 -4.347,18.481 -8.328,27.034 -3.422,7.354 -9.353,18.057 -17.083,21.629 -0.133,0.061 -0.28,0.056 -0.412,0.014 -1.041,1.739 -2.307,3.208 -3.894,4.018 3.304,1.112 6.483,2.643 9.412,4.6 3.025,-1.863 7.201,-2.363 10.28,-0.393 3.653,2.336 1.325,6.519 -1.263,8.583 -0.035,0.027 -0.073,0.034 -0.108,0.056 6.506,8.346 8.896,18.905 6.723,28.767 0.557,0.101 0.986,0.881 0.448,1.303 -0.339,0.267 -0.662,0.545 -0.996,0.815 -1.187,4.077 -3.153,8.001 -5.994,11.546 -5.663,7.065 -16.127,14.227 -25.266,14.764 -0.097,0.006 -0.172,-0.02 -0.254,-0.035 -27.992,8.067 -45.037,-30.205 -34.953,-53.766 -3.179,-1.878 -5.63,-5.604 -3.177,-9.12 2.451,-3.513 6.694,-2.572 9.391,-0.074 0.754,-0.737 1.553,-1.439 2.407,-2.093 2.98,-2.278 6.218,-3.952 9.586,-5.106 -7.915,-4.592 -10.568,-16.324 -12.091,-24.61 -2.65,-14.414 -2.58,-29.239 -2.793,-43.841 -0.102,-6.952 -0.841,-13.597 -1.735,-20.506 -0.867,-6.701 -2.711,-16.586 2.036,-22.396 0.976,-1.194 2.56,-1.839 4.424,-2.158 -0.108,-0.138 -0.169,-0.319 -0.135,-0.534 3.766,-23.662 -0.779,-47.248 0.189,-70.984 -6.458,-0.019 -13.178,-0.787 -19.349,-2.606 -0.534,-0.157 -0.901,-0.633 -0.908,-1.192 -0.02,-1.681 -0.042,-3.363 -0.059,-5.045 -0.008,-0.662 0.596,-1.353 1.295,-1.295 9.63,0.797 19.149,1.88 28.829,1.548 0.623,-0.022 1.222,0.557 1.189,1.189 -0.099,1.887 0.217,3.729 0.192,5.614 0.27,0.206 0.459,0.528 0.443,0.872 -1.119,24.349 -2.488,48.579 -0.115,72.887 1.502,0.198 2.828,0.374 3.798,0.42 6.647,0.316 13.294,0.62 19.942,0.921 -0.223,-0.139 -0.392,-0.368 -0.399,-0.714 -0.491,-23.869 0.377,-47.786 1.081,-71.644 -0.057,-0.068 -0.102,-0.148 -0.127,-0.246 -0.564,-2.253 -0.455,-4.349 -0.461,-6.669 -0.002,-0.615 0.512,-1.12 1.123,-1.124 10.593,-0.063 21.149,1.239 31.712,-0.078 0.561,-0.07 0.981,0.427 1.159,0.883 0.861,2.192 1.315,4.463 1.49,6.806 0.049,0.654 -0.586,1.211 -1.207,1.207 -7.285,-0.041 -14.558,-0.495 -21.839,-0.655 -0.007,12.086 -0.498,24.165 -0.992,36.239 -0.494,12.09 -0.201,24.416 -1.223,36.463 3.213,0.145 6.426,0.289 9.639,0.437 0.539,0.025 1.099,0.364 1.219,0.928 2.672,12.571 2.272,25.185 0.27,37.824 -1.83,11.551 -5.725,22.501 -8.409,33.832 -1.946,8.216 -3.942,16.427 -6.603,24.446 -0.622,1.874 -1.353,4.368 -2.358,6.766 2.171,-2.578 4.71,-4.923 6.749,-7.61 3.198,-4.213 5.703,-8.916 7.909,-13.706 4.345,-9.436 6.832,-19.886 8,-30.178 1.694,-14.921 0.271,-33.148 8.426,-46.475 -2.194,-2.312 -3.189,-5.533 -2.04,-9.125 0.339,-1.06 1.154,-2.514 2.316,-2.902 -0.216,-1.568 0.084,-3.118 1.503,-4.207 1.978,-1.521 4.784,-1.289 7.02,-0.548 0.454,0.151 0.896,0.341 1.328,0.549 -0.078,-14.415 20.28,-16.947 31.317,-18.934 1.369,-0.246 1.97,1.816 0.581,2.108"
             style="fill:#1d1d1b;fill-opacity:1;fill-rule:nonzero;stroke:#d4ff2a;stroke-opacity:1"
             id="path268"
             inkscape:connector-curvature="0" /></g><g
           id="g270"
           transform="translate(448.9462,297.4241)"
           style="stroke:#d4ff2a;stroke-opacity:1"><path
             d="m 0,0 c -4.134,-5.041 -10.293,-4.739 -15.425,-1.383 -0.963,0.629 -1.818,-0.885 -0.893,-1.527 5.741,-3.979 13.082,-4.215 17.728,1.5 C 2.213,-0.423 0.817,0.997 0,0"
             style="fill:#1d1d1b;fill-opacity:1;fill-rule:nonzero;stroke:#d4ff2a;stroke-opacity:1"
             id="path272"
             inkscape:connector-curvature="0" /></g><g
           id="g274"
           transform="translate(431.4886,309.7163)"
           style="stroke:#d4ff2a;stroke-opacity:1"><path
             d="m 0,0 c 0.004,0.472 0.011,0.945 0.012,1.417 0.002,1.439 -2.324,1.835 -2.571,0.348 -0.153,-0.921 -0.768,-2.905 -0.017,-3.806 0.002,-0.181 0.002,-0.362 0.004,-0.544 -0.008,-0.827 0.634,-1.236 1.275,-1.231 0.642,-0.005 1.283,0.404 1.275,1.231 0.003,0.285 0.004,0.569 0.007,0.853 C 0.487,-1.072 0.401,-0.399 0,0"
             style="fill:#1d1d1b;fill-opacity:1;fill-rule:nonzero;stroke:#d4ff2a;stroke-opacity:1"
             id="path276"
             inkscape:connector-curvature="0" /></g><g
           id="g278"
           transform="translate(451.0942,309.0553)"
           style="stroke:#d4ff2a;stroke-opacity:1"><path
             d="m 0,0 c -0.048,0.199 -0.105,0.403 -0.164,0.61 0,0.01 0.005,0.016 0.005,0.027 0.004,0.954 0.072,1.932 -0.006,2.882 -0.001,0.01 -0.006,0.016 -0.007,0.025 C -0.173,3.776 -0.174,4.008 -0.175,4.24 -0.18,5.409 -2.021,6.097 -2.538,4.88 -3.012,3.766 -3.034,2.503 -2.74,1.313 -2.734,1.087 -2.728,0.86 -2.727,0.637 -2.729,0.067 -2.419,-0.292 -2.021,-0.47 -1.962,-0.573 -1.91,-0.68 -1.847,-0.778 -1.228,-1.748 0.271,-1.126 0,0"
             style="fill:#1d1d1b;fill-opacity:1;fill-rule:nonzero;stroke:#d4ff2a;stroke-opacity:1"
             id="path280"
             inkscape:connector-curvature="0" /></g><g
           id="g282"
           transform="translate(441.3312,302.326)"
           style="stroke:#d4ff2a;stroke-opacity:1"><path
             d="m 0,0 c -0.914,0.461 -1.959,0.484 -2.935,0.808 0.043,0.49 0.161,0.982 0.565,1.275 0.65,0.469 1.506,0.663 2.243,0.948 C 0.767,3.376 0.433,4.753 -0.53,4.493 -1.532,4.224 -2.646,4.076 -3.511,3.462 -4.595,2.695 -4.881,1.417 -4.896,0.159 -4.899,-0.157 -4.715,-0.532 -4.418,-0.673 -3.06,-1.321 -1.436,-1.845 0,-1.124 0.425,-0.91 0.424,-0.214 0,0"
             style="fill:#1d1d1b;fill-opacity:1;fill-rule:nonzero;stroke:#d4ff2a;stroke-opacity:1"
             id="path284"
             inkscape:connector-curvature="0" /></g><g
           id="g286"
           transform="translate(360.6637,184.3319)"
           style="stroke:#d4ff2a;stroke-opacity:1"><path
             d="M 0,0 C -0.788,-0.166 -2.115,0.103 -2.941,-0.233 -2.938,0.074 -2.945,0.378 -2.97,0.675 -2.977,0.757 -3.01,0.82 -3.03,0.892 -1.504,1.865 -0.231,3.205 0.64,4.721 2.715,2.64 3.469,0.731 0,0 m -13.135,4.943 c -2.067,3.315 -0.83,6.806 2.295,8.823 0.142,0.091 0.224,0.221 0.271,0.362 2.907,1.338 6.021,1.467 8.619,-1.178 3.36,-3.422 0.872,-7.898 -2.378,-10.197 -3.166,-2.239 -6.881,-0.897 -8.807,2.19 m 3.226,-11.082 c -3.437,0.519 -3.461,4.414 -2.844,7.258 2.182,-1.647 5.052,-2.098 7.725,-1.191 -0.175,-2.861 -1.322,-6.605 -4.881,-6.067 m -6.169,15.824 c -0.077,0.191 -0.202,0.365 -0.383,0.49 -2.002,1.371 -3.453,3.586 -2.079,5.925 0.54,0.919 1.133,1.209 1.717,1.129 0.204,-0.162 0.45,-0.253 0.696,-0.261 0.849,-0.519 1.62,-1.667 2.092,-2.633 -10e-4,-0.001 -0.003,-0.002 -0.004,-0.003 -0.329,-0.307 -0.331,-0.721 -0.169,-1.064 -0.996,-0.996 -1.606,-2.237 -1.87,-3.583 m -4.683,-6.873 c -1.715,2.891 1.744,4.993 4.064,5.562 0.213,0.052 0.373,0.159 0.488,0.295 -0.086,-1.452 0.208,-2.987 0.929,-4.466 0.199,-0.409 0.432,-0.783 0.678,-1.142 -1.828,-1.649 -4.578,-2.913 -6.159,-0.249 m 11.887,14.197 c -1.544,-0.317 -3.045,-0.99 -4.355,-1.993 -0.281,1.315 -0.775,2.522 -1.866,3.365 1.14,4.67 4.68,1.755 6.221,-1.372 m 6.296,5.034 c 3.182,-0.616 2.557,-4.698 1.698,-7.095 -1.622,1.462 -3.622,2.189 -5.674,2.256 0.203,2.31 1.108,5.394 3.976,4.839 M 4.41,10.407 C 4.134,8.97 2.887,7.934 1.633,7.182 c 0.459,1.89 0.276,3.888 -0.817,5.727 1.87,0.274 4.078,0.025 3.594,-2.502 m 1.971,1.699 c -0.379,2.555 -3.052,2.975 -5.292,2.76 1.03,3.297 1.128,7.642 -2.701,8.93 -3.45,1.161 -5.498,-1.203 -6.409,-4.052 -1.026,1.71 -2.458,3.199 -4.433,3.409 -2.735,0.292 -4.063,-1.773 -4.613,-4.103 -0.848,-0.033 -1.7,-0.396 -2.304,-0.962 -2.755,-2.58 -1.769,-6.045 0.477,-8.384 -3.153,-1.378 -5.382,-4.309 -3.631,-7.922 1.594,-3.289 4.928,-2.943 7.564,-1.46 -0.459,-3.728 0.51,-7.845 4.828,-8.502 4.089,-0.621 6.497,2.837 7.065,6.417 1.349,-0.962 5,0.183 6.044,0.699 3.083,1.523 1.407,4.556 -0.301,6.535 2.352,1.463 4.145,3.67 3.706,6.635"
             style="fill:#1d1d1b;fill-opacity:1;fill-rule:nonzero;stroke:#d4ff2a;stroke-opacity:1"
             id="path288"
             inkscape:connector-curvature="0" /></g><g
           id="g290"
           transform="translate(379.6912,274.3766)"
           style="stroke:#d4ff2a;stroke-opacity:1"><path
             d="m 0,0 c -0.175,1.767 -2.953,1.788 -2.782,0 2.083,-21.862 -32.249,-21.852 -37.379,-3.364 -0.314,1.131 -1.964,0.65 -1.739,-0.479 C -37.455,-26.187 2.431,-24.566 0,0"
             style="fill:#1d1d1b;fill-opacity:1;fill-rule:nonzero;stroke:#d4ff2a;stroke-opacity:1"
             id="path292"
             inkscape:connector-curvature="0" /></g><g
           id="g294"
           transform="translate(349.9987,288.9726)"
           style="stroke:#d4ff2a;stroke-opacity:1"><path
             d="m 0,0 c -0.296,0.194 -0.759,0.194 -1.055,0 -0.503,-0.331 -0.74,-0.793 -0.849,-1.31 -0.347,-0.217 -0.616,-0.565 -0.639,-1.034 -0.121,-2.519 -0.029,-5.141 0.686,-7.574 0.438,-1.494 2.698,-1.204 2.709,0.367 0.013,1.908 0.024,3.815 0.024,5.722 C 0.876,-2.492 1.271,-0.836 0,0"
             style="fill:#1d1d1b;fill-opacity:1;fill-rule:nonzero;stroke:#d4ff2a;stroke-opacity:1"
             id="path296"
             inkscape:connector-curvature="0" /></g><g
           id="g298"
           transform="translate(368.1891,285.5209)"
           style="stroke:#d4ff2a;stroke-opacity:1"><path
             d="m 0,0 c 0,0.129 0.003,0.258 0.002,0.387 0.005,0.921 -0.709,1.379 -1.423,1.376 -0.713,0.003 -1.427,-0.455 -1.422,-1.376 -0.007,-1.219 0.008,-2.438 0.018,-3.657 -0.002,-0.465 -0.017,-0.946 0.006,-1.422 0.004,-0.469 0.004,-0.938 0.007,-1.407 -0.006,-0.901 0.693,-1.349 1.391,-1.345 0.699,-0.004 1.397,0.444 1.391,1.345 10e-4,0.005 0,0.011 10e-4,0.017 C 0.099,-5.97 0.2,-5.827 0.227,-5.634 0.501,-3.701 0.305,-1.881 0,0"
             style="fill:#1d1d1b;fill-opacity:1;fill-rule:nonzero;stroke:#d4ff2a;stroke-opacity:1"
             id="path300"
             inkscape:connector-curvature="0" /></g><g
           id="g302"
           transform="translate(362.6502,270.8631)"
           style="stroke:#d4ff2a;stroke-opacity:1"><path
             d="M 0,0 C -0.285,2.901 -3.436,4.239 -5.972,4.433 -7.008,4.512 -7.226,2.84 -6.216,2.627 c 1.448,-0.306 3.499,-0.978 3.979,-2.579 0.508,-1.694 -2.872,-1.78 -3.735,-1.833 -1.522,-0.093 -1.54,-2.328 0,-2.376 C -3.52,-4.238 0.309,-3.15 0,0"
             style="fill:#1d1d1b;fill-opacity:1;fill-rule:nonzero;stroke:#d4ff2a;stroke-opacity:1"
             id="path304"
             inkscape:connector-curvature="0" /></g><g
           id="g306"
           transform="translate(405.5945,203.3757)"
           style="stroke:#d4ff2a;stroke-opacity:1"><path
             d="M 0,0 C 0.769,-0.06 1.635,-0.356 2.04,-0.683 2.575,-1.114 2.729,-1.439 2.877,-2.114 2.973,-2.555 2.922,-3.409 2.817,-3.915 2.528,-5.305 1.839,-6.624 0.978,-7.557 0.874,-7.67 0.764,-7.777 0.652,-7.881 0.598,-7.93 0.542,-7.977 0.487,-8.024 0.474,-8.035 0.479,-8.031 0.471,-8.038 0.465,-8.043 0.469,-8.039 0.461,-8.045 0.355,-8.123 0.244,-8.192 0.13,-8.257 0.064,-8.295 0.039,-8.312 0.027,-8.322 0.013,-8.324 -0.011,-8.329 -0.076,-8.35 c -0.049,-0.017 -0.1,-0.028 -0.151,-0.04 -0.024,-0.002 -0.046,-0.004 -0.061,-0.005 -0.026,0.006 -0.043,0.008 -0.059,0.011 -0.01,0.006 -0.018,0.012 -0.037,0.023 -0.006,0.003 -0.014,0.009 -0.021,0.014 -0.044,0.04 -0.086,0.08 -0.126,0.124 -0.007,0.007 -0.006,0.005 -0.006,0.003 -0.004,0.01 -0.018,0.035 -0.07,0.122 -0.021,0.034 -0.099,0.202 -0.118,0.237 -0.122,0.314 -0.199,0.646 -0.261,0.976 -0.162,0.88 -0.155,1.969 -0.122,2.931 0.043,1.243 -1.862,1.232 -1.923,0 -0.036,-0.735 -0.068,-1.583 -0.007,-2.427 -0.881,0.934 -2.131,1.466 -3.442,1.621 0.005,0.049 0.013,0.097 0.017,0.146 0.016,0.2 0.032,0.4 0.049,0.601 0.002,0.025 0.012,0.072 0.022,0.115 0.016,0.045 0.033,0.09 0.049,0.135 0.005,0.014 -0.002,0.027 0.002,0.041 0.019,0.078 0.026,0.153 0.015,0.233 -0.005,0.064 -0.015,0.122 -0.037,0.182 -0.015,0.04 -0.034,0.074 -0.055,0.112 -0.038,0.068 -0.077,0.128 -0.132,0.183 -0.041,0.043 -0.085,0.074 -0.133,0.108 -0.046,0.031 -0.089,0.059 -0.141,0.08 -0.027,0.012 -0.049,0.037 -0.078,0.045 -0.063,0.017 -0.127,0.023 -0.191,0.023 -0.008,0 -0.014,0.005 -0.021,0.005 -0.126,0 -0.248,-0.04 -0.36,-0.102 -0.219,-0.113 -0.386,-0.313 -0.433,-0.55 -0.04,-0.158 -0.024,-0.323 0.063,-0.477 l 0.024,-0.066 c 0.018,-0.223 0.036,-0.446 0.054,-0.668 0.003,-0.036 0.01,-0.07 0.013,-0.106 -1.075,-0.08 -2.13,-0.417 -3.004,-1.022 0.085,2.991 2.237,5.277 5.805,5.05 0.336,-0.022 0.597,0.138 0.78,0.37 0.044,0.002 0.084,-0.008 0.131,0.001 C -2.718,-0.063 -1.349,0.105 0,0 m -8.284,-10.897 c -0.748,0.264 -1.456,-0.546 -1.257,-1.256 0.184,-0.658 0.36,-1.314 0.515,-1.978 0.163,-0.706 0.537,-0.731 -0.03,-0.645 -1.199,0.181 -2.391,0.666 -3.548,1.012 -0.671,0.2 -1.284,-0.343 -1.314,-1.001 -0.074,-1.655 -0.655,-2.91 -1.285,-4.219 -1.972,3.918 -0.658,8.638 3.122,10.873 0.413,-0.592 1.288,-0.225 1.446,0.415 0.051,0.003 0.1,-0.006 0.152,0.007 2.293,0.567 5.262,1.968 6.508,-1.086 1.257,-3.08 -2.534,-2.748 -4.309,-2.122 m -67.866,-46.05 c 0.124,-0.47 0.291,-0.933 0.494,-1.388 -2.313,0.087 -5.516,0.88 -5.461,3.75 0.054,2.856 4.101,2.841 6.081,2.764 -1.151,-1.239 -1.689,-2.949 -1.114,-5.126 m 6.816,-7.545 c -0.832,-2.209 -2.524,-4.114 -5.11,-2.904 -3.107,1.454 -2.124,5.089 -0.353,7.161 0.048,0.057 0.08,0.119 0.116,0.18 1.318,-1.917 3.253,-3.521 5.347,-4.437 m -3.491,14.231 c -0.042,-0.018 -0.078,-0.043 -0.12,-0.061 -1.3,2.239 -2.5,5.38 0.058,7.261 2.987,2.195 5.031,-1.929 5.61,-4.267 -1.979,0.014 -3.976,-0.856 -5.548,-2.933 m 8.665,-0.47 c 2.453,-1.958 2.878,-5.193 2.233,-8.074 -0.601,-2.681 -2.239,-4.235 -4.61,-4.025 0.006,0.168 0.012,0.341 0.02,0.498 0.081,1.447 -1.926,1.401 -2.233,0.131 -2.288,1.078 -4.365,3.281 -5.222,5.577 -0.896,2.4 0.248,3.871 1.979,4.823 0.26,-0.021 0.523,0.052 0.727,0.287 0.043,0.049 0.092,0.085 0.135,0.132 0.706,0.299 1.462,0.534 2.193,0.726 0.442,0.116 0.516,0.615 0.312,0.923 1.45,0.442 3.017,0.159 4.466,-0.998 m 4.893,-17.475 c -1.433,-0.827 -3.423,-1.333 -5.003,-0.633 -1.43,0.633 -1.988,2.069 -2.186,3.584 2.462,-0.207 4.269,0.99 5.464,2.797 1.631,-0.508 3.733,-0.858 4.229,-2.503 0.412,-1.365 -1.567,-2.705 -2.504,-3.245 m 1.285,14.864 c 3.347,0.488 6.873,-0.782 5.56,-4.731 -0.431,-1.297 -1.551,-2.357 -2.821,-2.804 -1.716,-0.605 -3.1,0.3 -4.518,1.079 0.368,1.212 0.555,2.498 0.559,3.723 0.012,4.08 -2.769,7.42 -6.064,8.435 0.026,0.054 0.061,0.1 0.078,0.16 0.878,3.115 3.383,5.993 6.583,3.488 2.718,-2.127 1.928,-5.499 -0.487,-7.444 -1.003,-0.808 0.132,-2.049 1.11,-1.906 m 24.551,27.955 c -0.412,0.157 -0.914,0.089 -1.237,-0.391 -1.459,-2.168 -2.672,-3.518 -2.89,-5.332 -2.445,1.86 -5.467,2.572 -7.849,-0.342 -1.899,-2.322 -0.946,-4.748 0.805,-6.548 -2.531,-0.317 -4.594,-1.729 -4.655,-4.963 -0.069,-3.699 3.272,-5.129 6.448,-5.358 -4.618,-6.105 3.437,-11.161 8.62,-5.506 1.605,-3.966 5.393,-6.93 8.245,-2.671 1.425,-4.798 2.976,-9.56 4.687,-14.274 -12.785,-4.239 -26.452,-6.634 -39.846,-5.49 -0.004,0.079 -0.006,0.157 -0.01,0.236 -0.045,1 -1.508,1 -1.552,0 -0.002,-0.033 -0.003,-0.065 -0.004,-0.098 -4.506,0.48 -8.976,1.365 -13.365,2.734 -7.044,2.198 -8.436,5.474 -8.157,12.75 0.071,1.863 0.369,3.708 0.803,5.539 0.058,-3.077 2.981,-4.694 5.843,-5.243 -1.775,-3.137 -1.717,-6.985 1.949,-9.023 3.117,-1.732 5.641,-0.279 7.242,2.092 0.483,-1.496 1.367,-2.802 2.898,-3.593 2.404,-1.243 5.419,-0.487 7.607,0.849 1.876,1.145 3.515,3.079 3.132,5.391 -0.092,0.558 -0.352,1.049 -0.718,1.479 2.159,0.42 4.133,1.854 5.025,4.14 1.887,4.836 -1.443,7.521 -5.513,7.92 1.783,3.006 1.648,6.792 -1.732,9.05 -3.545,2.368 -6.692,0.718 -8.473,-2.278 -1.426,2.837 -4.025,4.881 -7.449,3.229 -3.487,-1.681 -3.159,-5.79 -1.449,-8.647 -2.726,0.437 -6.096,-0.23 -7.592,-2.547 1.62,5.256 4.098,10.401 5.588,15.5 4.135,14.153 6.289,29.229 8.165,43.912 0.137,-0.18 0.365,-0.285 0.667,-0.197 3.77,1.1 6.083,2.396 6.478,5.752 2.424,-1.979 5.576,-3.149 7.938,-0.212 2.101,2.612 0.245,5.65 -1.856,7.683 6.188,2.563 4.06,9.64 -2.511,9.509 1.776,5.507 -2.251,8.934 -6.985,7.22 0.699,2.858 1.608,5.601 2.837,8.128 2.718,-1.263 5.593,-2.153 8.531,-2.693 -0.721,-1.036 -1.101,-2.225 -0.662,-3.555 0.64,-1.936 2.893,-2.149 4.804,-1.983 -0.936,-2.364 -1.399,-5.217 0.405,-7.182 1.776,-1.934 3.756,0.192 5.013,2.154 0.453,-1.157 1.088,-2.204 1.61,-3.52 0.303,-0.762 1.252,-0.747 1.653,-0.3 1.889,-17.813 4.115,-35.702 7.512,-53.321 m 1.644,-8.12 c -1.144,0.094 -2.2,-0.023 -3.163,-0.302 -1.133,3.134 0.607,4.581 1.872,6.681 0.42,-2.129 0.833,-4.259 1.291,-6.379 m -7.735,-14.441 c 1.106,-1.677 2.732,-2.855 4.581,-3.445 -1.263,-2.016 -2.907,-3.587 -5.538,-3.126 -4.904,0.861 -0.175,5.613 0.957,6.571 m -3.861,15.608 c 2.181,2.663 5.18,-0.764 6.45,-2.353 -1.445,-0.908 -2.545,-2.265 -3.24,-3.859 -0.077,0.075 -0.161,0.148 -0.278,0.202 -2.265,1.06 -5.262,3.167 -2.932,6.01 m 2.112,-7.956 c 0.188,-0.043 0.363,-0.018 0.527,0.033 -0.319,-1.368 -0.37,-2.839 -0.111,-4.313 0.1,-0.568 0.261,-1.095 0.448,-1.602 -0.047,-0.002 -0.094,0.008 -0.142,10e-4 -7.72,-1.192 -8.282,7.604 -0.722,5.881 m 13.103,-8.291 c -2.256,-0.822 -4.471,-1.588 -6.837,-0.523 -1.915,0.863 -3.029,2.761 -3.586,4.699 -1.537,5.35 2.234,8.733 7.105,9.491 1.008,-4.582 2.111,-9.139 3.318,-13.667 m 1.702,-6.13 c -3.817,-0.62 -5.884,0.357 -6.229,2.904 1.697,-0.106 3.462,0.238 5.093,1.095 0.367,-1.337 0.75,-2.668 1.136,-3.999 m -40.767,-49.925 c -0.998,-0.117 -8.768,2.005 -5.783,4.236 2.865,2.142 7.474,1.053 10.257,-0.547 -0.51,-2.398 -2,-3.629 -4.474,-3.689 m -1.221,114.993 c 0.118,0.934 0.222,1.895 0.321,2.866 1.687,-0.066 3.259,0.17 4.665,0.674 0.085,-3.449 -1.807,-4.409 -5.085,-5.669 -0.075,-0.028 -0.132,-0.072 -0.188,-0.116 0.095,0.748 0.193,1.5 0.287,2.245 m 10.669,9.207 c 2.89,-1.621 3.293,-3.936 1.161,-6.96 -2.023,0.154 -3.643,0.906 -4.862,2.253 1.682,1.074 2.966,2.664 3.701,4.707 m -0.338,8.086 c 4.562,0.135 5.807,-4.286 0.869,-5.976 0.021,0.137 0.05,0.268 0.067,0.408 0.228,1.889 -0.172,3.816 -0.936,5.568 m -7.937,4.791 c 3.824,-1.255 6.498,-5.179 6.807,-9.082 0.427,-5.385 -3.882,-8.223 -8.712,-8.428 0.525,5.616 0.902,11.695 1.905,17.51 m 0.425,2.171 c 0.954,0.599 2.026,0.947 3.239,0.993 2.434,-1.562 3.285,-3.274 2.608,-5.132 -1.62,2.075 -3.577,2.912 -5.967,3.593 0.036,0.184 0.083,0.362 0.12,0.546 m 24.063,-0.666 c 0.157,-1.535 0.321,-3.072 0.482,-4.608 -0.729,1.567 -1.669,2.922 -1.848,4.715 0.459,-0.084 0.92,-0.128 1.366,-0.107 m -3.977,3.163 c -1.417,1.137 -1.982,2.844 -2.048,4.581 1.744,-0.029 3.488,0.061 5.215,0.279 0.204,-2.05 0.413,-4.103 0.621,-6.156 -0.392,0.009 -0.786,0.022 -1.178,0.093 -0.956,0.173 -1.855,0.597 -2.61,1.203 m -7.384,2.54 c -0.259,0.77 0.08,1.643 0.591,2.438 1.141,-0.165 2.289,-0.276 3.439,-0.336 -0.031,-1.064 0.11,-2.096 0.451,-3.067 -1.254,-0.237 -3.885,-0.806 -4.481,0.965 m 5.307,-2.603 c 0.196,-0.291 0.408,-0.578 0.655,-0.851 0.568,-0.629 1.375,-1.183 2.271,-1.587 -0.431,-0.945 -2.657,-5.603 -3.749,-2.982 -0.707,1.697 0.058,3.825 0.823,5.42 m -22.746,17.193 c -8.964,9.061 -8.567,23.433 -2.67,33.965 0.11,0.198 0.234,0.374 0.348,0.567 2.033,-5.537 6.705,-3.401 9.53,0.075 4.08,-3.102 10.675,-2.153 12.488,2.685 2.06,-5.88 9.54,-7.054 12.851,-1.335 3.57,-4.113 9.147,-6.196 13.369,-1.577 1.357,-1.55 2.592,-3.247 3.659,-5.153 5.123,-9.149 3.262,-20.923 -3.076,-28.919 -11.249,-14.192 -34.486,-12.45 -46.499,-0.308 m -4.988,-4.347 c -0.959,-0.194 -1.855,0.343 -2.346,1.129 -1.333,2.129 0.078,4.409 1.627,6.07 1.104,-1.833 2.443,-3.591 4.043,-5.241 -1.047,-0.76 -1.924,-1.676 -3.324,-1.958 m 33.113,52.549 c -0.267,-0.553 -0.176,-1.236 0.566,-1.629 5.636,-2.986 11.084,-6.036 15.481,-10.341 -3.755,-4.141 -8.399,-0.958 -10.829,2.787 -0.592,0.913 -1.949,0.755 -2.279,-0.298 -2.175,-6.945 -9.42,-4.387 -10.196,1.831 -0.126,1.016 -1.569,1.112 -1.686,0.12 -0.25,-0.033 -0.494,-0.156 -0.651,-0.395 -0.932,-1.412 -1.461,-2.78 -2.677,-4.023 -2.507,-2.562 -5.868,-1.423 -8.031,0.755 -0.513,0.516 -1.362,0.377 -1.736,-0.224 -1.419,-2.28 -4.921,-5.85 -7.034,-1.613 -0.159,0.319 -0.474,0.404 -0.77,0.347 6.714,10.484 18.028,13.885 29.842,12.683 m 16.338,-53.791 c 1.81,1.421 3.475,3.058 4.95,4.915 0.13,0.165 0.245,0.338 0.371,0.505 0.057,-0.033 0.112,-0.067 0.177,-0.094 2.449,-1.004 4.165,-3.258 1.906,-5.439 -2.125,-2.052 -5.18,-1.371 -7.404,0.113 m -30.296,56.231 c 0.429,4.518 2.735,8.353 5.882,11.532 1.441,1.456 3.144,2.606 5.107,3.201 3.668,1.11 4.308,-3.689 4.496,-6.085 0.095,-1.208 1.491,-1.542 2.186,-0.592 2.389,0.047 4.777,0.092 7.166,0.139 0.304,-1.537 0.309,-3.067 0.013,-4.592 -0.099,-0.841 1.095,-1.535 1.772,-1.017 9.221,7.054 17.142,-3.993 15.534,-13.075 -0.083,-0.467 0.092,-0.838 0.364,-1.104 -0.002,-0.348 0.172,-0.68 0.584,-0.739 2.885,-0.415 9.355,-2.964 3.263,-7.609 -0.729,-0.557 -0.745,-1.749 0.266,-2.032 C -1.242,80.564 0.6,66.5 -9.276,65.47 c -1.017,-0.106 -1.367,-1.592 -0.254,-1.877 0.077,-0.02 0.152,-0.026 0.229,-0.044 0.038,-0.105 0.096,-0.208 0.205,-0.296 9.138,-7.393 1.95,-30.348 -10.384,-22.204 -0.507,0.335 -1.384,0.143 -1.646,-0.432 -2.501,-5.475 -6.642,-4.624 -10.597,-1.432 -0.386,0.311 -0.862,0.263 -1.171,0.022 0.04,0.267 0.079,0.535 0.114,0.803 0.043,0.324 -0.463,0.365 -0.551,0.075 -0.817,-2.696 -2.967,-4.341 -5.505,-5.131 -0.249,2.409 -0.494,4.815 -0.737,7.218 -0.009,0.088 -0.029,0.168 -0.05,0.247 4.379,0.901 8.573,2.598 12.248,5.146 3.013,-2.872 7.791,-3.641 10.923,-0.396 1.233,1.278 1.742,3.025 1.39,4.755 -0.42,2.066 -2.324,3.347 -4.146,4.157 4.733,7.655 5.374,17.401 2.325,25.82 -3.44,9.498 -12.468,16.158 -21.402,20.366 0.275,0.346 0.215,0.926 -0.347,1.148 -6.248,2.465 -12.248,2.621 -17.661,1.168 0.044,0.082 0.077,0.177 0.088,0.292 m 25.506,-209.865 c 1.056,-3.623 -5.836,-1.509 -6.944,-0.55 -0.695,0.601 -1.163,1.399 -1.517,2.261 2.907,3.069 7.104,2.944 8.461,-1.711 M -86.21,-7.22 c 0.859,-1.335 0.539,-2.481 -0.075,-3.621 -0.036,10e-4 -0.07,0.01 -0.109,0.007 -1.001,-0.069 -1.919,-0.383 -2.864,-0.623 0.043,0.3 0.091,0.651 0.07,0.747 -0.144,0.671 -0.462,1.102 -0.899,1.621 -0.003,0.004 -0.007,0.005 -0.01,0.008 0.03,0.316 0.063,0.631 0.117,0.945 0.123,0.701 0.505,1.31 0.52,2.02 0.011,0.494 -0.58,0.676 -0.917,0.38 -0.806,-0.71 -0.934,-2.056 -0.919,-3.274 -0.287,-0.139 -0.632,-0.291 -0.987,-0.47 -0.284,0.807 -0.8,1.35 -1.507,1.827 0.538,0.923 1.059,1.867 1.347,2.857 0.155,0.53 -0.538,0.739 -0.829,0.35 -0.591,-0.789 -1.017,-1.733 -1.415,-2.679 -0.208,0.106 -0.402,0.212 -0.636,0.32 -0.744,0.345 -1.415,-0.372 -1.315,-0.967 -0.007,-0.015 -0.012,-0.03 -0.02,-0.045 -0.217,1.576 -0.395,3.467 1.402,4.128 1.559,0.572 3.32,0.169 4.826,-0.37 1.647,-0.589 3.266,-1.678 4.22,-3.161 m -6.511,-8.369 c -0.48,0.222 -0.879,0.52 -1.241,0.846 0.146,0.385 0.282,0.784 0.395,1.212 0.195,0.74 -0.759,1.342 -1.308,0.761 -0.104,-0.111 -0.204,-0.216 -0.306,-0.324 -0.62,1.346 -0.692,2.944 -0.265,4.424 0.028,-0.014 0.054,-0.028 0.082,-0.042 -0.012,-0.026 -0.022,-0.054 -0.034,-0.079 -0.215,-0.474 0.451,-0.89 0.712,-0.416 0.011,0.02 0.023,0.04 0.034,0.061 0.47,-0.366 0.766,-0.847 0.853,-1.702 -0.032,-0.094 -0.066,-0.187 -0.074,-0.289 -0.027,-0.377 0.289,-0.773 0.652,-0.856 0.035,-0.008 0.07,-0.016 0.105,-0.024 0.435,-0.099 0.898,0.137 1.054,0.543 0.012,0.01 0.016,0.011 0.029,0.021 0.274,0.179 0.567,0.332 0.854,0.489 0.032,0.017 0.065,0.033 0.098,0.05 0.156,-0.698 -0.18,-1.474 0.247,-2.178 0.168,-0.276 0.499,-0.504 0.837,-0.48 0.744,0.054 1.457,0.246 2.178,0.41 -0.78,-2.078 -2.409,-3.581 -4.902,-2.427 m -15.889,-32.053 c 0.791,-2.442 1.336,-4.939 1.474,-7.506 0.256,-4.77 -3.803,-5.709 -7.636,-6.064 -5.205,-0.482 -10.682,0.026 -15.893,0.33 -1.5,0.088 -3.354,0.175 -5.189,0.472 -0.111,0.057 -0.234,0.076 -0.357,0.058 -2.542,0.452 -4.998,1.342 -6.36,3.254 -2.146,3.013 -0.344,8.401 0.37,11.584 2.361,10.51 4.38,21.079 6.284,31.672 0.398,-0.112 0.784,-0.235 1.202,-0.328 5.275,-1.171 9.763,-0.241 13.356,1.973 3.029,-12.151 8.891,-23.53 12.749,-35.445 m -3.246,-55.66 c 2.222,-0.56 4.754,-0.625 7.025,-1.043 v -1.571 c -4.875,-0.112 -9.707,-0.645 -14.532,-1.325 -0.189,1.07 -0.405,2.102 -0.475,3.167 2.743,-0.373 5.323,-0.197 7.982,0.772 m -7.759,15.745 c 0.461,7.872 1.352,15.719 1.471,23.609 1.364,0.041 2.713,0.111 4.041,0.22 -0.003,-0.017 -0.012,-0.029 -0.014,-0.046 -1.384,-11.969 1.053,-24.425 1.312,-36.429 -0.082,-0.335 -0.206,-0.615 -0.354,-0.862 -0.045,-0.014 -0.098,-0.017 -0.143,-0.032 -0.391,-0.133 -0.587,-0.42 -0.628,-0.727 -0.588,-0.318 -1.377,-0.368 -2.373,-0.141 -2.82,-0.318 -3.591,1.091 -3.647,3.597 -0.08,3.604 0.125,7.214 0.335,10.811 m -9.357,-6.996 c -0.324,-2.365 -0.899,-4.735 -2.097,-6.814 -0.601,-1.043 -1.496,-1.701 -2.639,-2.024 -3.321,-0.939 -1.975,3.72 -1.949,5.743 0.147,11.56 0.805,23.156 0.21,34.711 0.637,-0.113 1.29,-0.215 1.976,-0.298 1.548,-0.186 3.132,-0.34 4.733,-0.463 -1.197,-10.148 1.162,-20.639 -0.234,-30.855 m -2.294,-13.511 c -4.523,0.01 -9.055,-0.554 -13.537,-1.176 0.292,1.339 0.746,2.656 1.013,4.002 2.071,0.14 4.205,0.472 6.259,0.222 0.115,-0.09 0.241,-0.166 0.386,-0.209 2.728,-0.822 4.809,-0.424 6.407,0.814 0.109,-1.251 -0.251,-2.433 -0.528,-3.653 M -146.352,3.891 c 0.112,-0.029 0.235,-0.038 0.366,-0.02 9.553,1.316 17.69,6.384 23.366,13.944 0.798,-5.476 3.253,-10.196 8.726,-12.495 -0.043,-0.791 -0.114,-1.587 -0.241,-2.386 -1.688,-10.64 -10.478,-16.633 -20.937,-14.308 -7.5,1.668 -11.28,8.268 -11.28,15.265 m -1.094,-15.216 c -0.49,0.526 -0.27,1.466 -0.064,2.048 0.317,0.897 0.987,1.688 1.732,2.361 0.928,-1.393 2.086,-2.658 3.479,-3.75 -1.691,-0.719 -3.695,-2.217 -5.147,-0.659 m 1.486,19.192 c 0.076,0.368 0.179,0.718 0.274,1.073 7.222,1.037 14.476,5.061 20.474,9.477 -5.27,-6.645 -12.633,-11.095 -21.068,-12.862 0.066,0.772 0.162,1.545 0.32,2.312 m 3.932,7.962 c 2.554,-1.551 6.683,-0.8 10.222,0.714 -0.415,-0.292 -0.829,-0.582 -1.241,-0.862 -3.892,-2.64 -7.898,-4.848 -12.415,-5.932 0.745,2.349 1.933,4.385 3.434,6.08 m 14.925,5.345 c -0.004,-0.003 -0.008,-0.002 -0.013,-0.005 -4.195,-2.546 -9.096,-5.538 -14.234,-4.614 3.585,3.574 8.73,5.313 14.247,4.619 m 0.816,-0.103 c 0.311,-0.053 0.573,0.03 0.775,0.182 0.353,-0.035 0.694,-0.087 1.028,-0.149 -0.544,-0.237 -1.076,-0.51 -1.602,-0.797 0.097,0.277 -0.008,0.573 -0.211,0.765 0.003,0 0.007,-10e-4 0.01,-10e-4 m 12.001,-10.39 c -0.98,0.743 -1.994,1.443 -2.83,2.407 -1.491,1.718 -2.302,3.899 -2.608,6.129 2.886,-1.916 4.68,-4.977 5.438,-8.536 m 0.407,-2.917 c -3.022,1.713 -4.772,4.263 -5.706,7.283 0.231,-0.553 0.495,-1.098 0.801,-1.635 0.992,-1.738 2.793,-3.858 4.798,-4.617 0.037,-0.343 0.087,-0.682 0.107,-1.031 m 3.191,-13.633 c 0.541,-0.921 0.409,-1.991 -0.11,-2.874 -0.507,-0.862 -1.416,-1.406 -2.421,-1.377 -1.411,0.042 -2.434,1.3 -3.209,2.41 0.953,1.221 1.782,2.55 2.475,3.958 1.291,-0.362 2.562,-0.921 3.265,-2.117 m -65.289,11.4 c 0.153,0.42 0.301,0.841 0.447,1.265 0.714,2.06 1.87,0.033 2.684,-1.061 0.218,-0.293 0.523,-0.464 0.898,-0.366 0.917,0.241 1.651,0.595 2.368,1.213 0.069,0.06 0.112,0.099 0.163,0.143 0.341,-0.706 0.564,-1.541 0.82,-2.24 0.212,-0.58 0.85,-0.753 1.321,-0.349 1.029,0.882 2.422,1.873 3.809,2.351 1.072,-7.396 -11.082,-8.512 -12.51,-0.956 M 14.826,71.236 C 4.935,56.299 -0.586,39.579 -3.702,22.029 -4.405,18.065 -4.903,14.07 -5.337,10.069 -5.548,8.131 -5.7,6.189 -5.844,4.245 -6.05,1.444 -5.788,2.035 -8.052,1.324 c -3.992,-1.252 -5.712,-4.409 -4.565,-8.125 -0.413,-0.154 -0.807,-0.327 -1.174,-0.529 -5.709,7.716 -12.582,14.498 -16.976,23.175 -0.711,1.406 -6.894,14.57 -7.338,14.557 0.313,0.009 0.302,0.448 0,0.477 -0.11,0.011 -0.209,0.01 -0.3,-0.002 -0.059,0.558 -0.12,1.117 -0.178,1.675 1.534,0.441 3.003,1.235 4.053,2.441 0.793,0.91 1.191,1.997 1.439,3.134 3.185,-5.964 10.338,-4.73 13.46,0.212 13.424,-7.41 23.328,16.6 12.886,25.11 3.611,0.57 6.17,4.128 6.392,7.982 0.309,5.389 -2.027,10.732 -6.901,12.972 3.484,4.029 1.125,8.845 -4.413,9.657 1.554,10.271 -7.123,22.281 -17.234,16.662 -0.205,6.614 -5.067,9.878 -9.872,5.424 -2.824,12.167 -17.435,1.407 -18.689,-8.68 -3.998,8.207 -17.826,12.852 -19.127,2.259 -6.47,3.444 -10.772,-3.322 -7.637,-9.901 -7.345,2.271 -14.292,0.547 -15.661,-8.063 -1.125,-7.077 1.645,-15.624 6.485,-21.053 -3.888,-1.79 -6.43,-5.054 -5.762,-9.704 0.701,-4.881 6.02,-6.203 10.005,-4.844 0.445,0.152 0.403,0.929 -0.117,0.868 -9.491,-1.103 -10.272,9.483 -1.864,12.171 0.796,0.254 1.108,1.257 0.494,1.874 -4.55,4.577 -6.83,11.261 -7.037,17.625 -0.291,8.985 6.192,11.242 13.868,8.585 1.332,-0.462 1.905,1.483 0.784,2.106 0.165,0.148 0.252,0.366 0.148,0.614 -1.895,4.508 -0.095,12.168 6.512,6.966 0.72,-0.567 1.912,-0.273 1.903,0.789 -0.103,11.573 14.821,4.071 15.775,-3.604 0.013,-0.11 0.059,-0.197 0.096,-0.29 -16.827,-6.144 -26.964,-28.237 -18.468,-44.999 -2.964,-2.004 -4.734,-6.055 -2.698,-9.317 0.909,-1.456 2.53,-2.227 4.218,-2.201 1.804,0.027 4.15,1.198 5.356,2.757 1.985,-1.74 4.175,-3.19 6.486,-4.395 -0.681,-1.148 -1.246,-2.367 -1.729,-3.627 -0.189,0.023 -0.384,-0.013 -0.542,-0.149 -5.867,-5.066 -18.813,-10.903 -19.263,1.681 -0.028,0.774 -0.715,1.284 -1.464,1.115 -3.251,-0.735 -7.306,-0.376 -6.703,3.982 0.365,2.636 2.533,4.303 4.54,5.728 0.737,0.523 0.309,1.734 -0.63,1.495 -3.925,-1 -6.546,-5.068 -6.189,-9.059 0.388,-4.345 4.663,-5.072 8.223,-4.615 0.463,-4.821 2.702,-8.57 8.146,-8.841 4.586,-0.229 9.706,2.632 13,6.051 -0.335,-1.126 -0.624,-2.267 -0.891,-3.406 -0.19,-0.04 -0.374,-0.122 -0.523,-0.305 -0.25,-0.308 -0.486,-0.629 -0.731,-0.942 -0.038,-0.045 -0.08,-0.09 -0.107,-0.138 -4.536,-5.829 -8.219,-12.429 -11.786,-18.859 -2.146,-3.866 -4.187,-7.795 -5.966,-11.844 -0.906,-2.06 -2.409,-4.666 -1.888,-6.979 -0.561,0.297 -1.14,0.555 -1.719,0.776 -2.048,0.781 -4.69,1.106 -6.65,-0.07 -2.2,-1.321 -2.105,-4.224 -1.155,-6.289 0.144,-0.313 0.406,-0.364 0.641,-0.275 -0.666,-1.963 -0.501,-4.023 0.465,-5.735 -2.794,-2.829 -5.233,-4.602 -10.002,-4.582 -3.569,0.015 -7.15,1.09 -10.543,2.251 -0.671,2.019 -1.298,4.052 -1.832,6.115 -0.025,0.099 -0.059,0.188 -0.099,0.27 0.582,0.501 1.124,1.048 1.644,1.617 0.916,-1.503 2.329,-2.772 4.104,-3.002 1.674,-0.218 3.171,0.652 4.151,1.955 1.02,1.358 1.162,3.24 0.509,4.776 -0.763,1.795 -2.559,2.87 -4.394,3.423 4.451,11.437 0.739,26.272 -13.668,25.847 -0.59,-0.017 -0.964,-0.336 -1.157,-0.739 -16.728,2.461 -25.233,-17.089 -18.548,-29.112 -2.171,-1.557 -4.257,-4.105 -2.725,-6.68 0.695,-1.169 2.117,-1.595 3.399,-1.595 1.596,0 4.215,0.813 5.165,2.239 0.905,-0.547 1.877,-1.042 2.946,-1.45 -0.841,-1.536 -1.425,-3.293 -1.878,-5.124 -12.354,-7.985 -30.009,3.087 -30.927,17.07 4.811,-0.448 10.242,2.929 8.538,9.129 -0.137,0.498 -0.61,0.693 -1.083,0.615 -1.603,-0.268 -3.133,-1.245 -4.419,-2.325 -0.338,1.098 -0.845,2.45 -1.689,2.564 -0.912,0.123 -1.842,-1.028 -2.753,-1.549 -0.879,1.248 -2.167,2.996 -3.714,2.425 -1.497,-0.553 -1.975,-3.352 -2.423,-4.622 -0.287,-0.811 0.597,-1.215 1.204,-0.91 0.556,-2.615 2.318,-4.224 4.464,-4.934 -2.353,-15.725 19.789,-27.383 32.372,-19.402 -0.639,-3.297 -0.943,-6.714 -1.41,-9.568 -1.066,-6.505 -3.086,-12.787 -4.238,-19.274 -1.461,-8.23 2.031,-11.951 8.821,-13.497 -0.876,-13.32 -1.134,-26.724 -1.159,-40.07 -2.254,0.152 -4.546,-0.201 -6.804,-0.246 -0.679,-0.013 -1.086,-0.518 -1.153,-1.153 -0.233,-2.2 -1.236,-4.279 -1.47,-6.487 -0.089,-0.845 0.817,-1.235 1.496,-1.139 5.176,0.736 10.318,1.259 15.541,1.467 0.575,0.022 1.158,0.49 1.115,1.114 -0.129,1.874 0.141,3.907 -0.517,5.694 6.447,7.416 2.89,31.803 3.224,39.644 2.328,-0.131 4.676,-0.18 6.999,-0.147 -1.406,-12.853 -3.19,-25.749 -2.633,-38.705 0.022,-0.498 0.342,-1.035 0.868,-1.139 0.043,-0.009 0.086,-0.014 0.129,-0.022 -0.174,-1.515 -0.114,-3.044 -0.187,-4.604 -0.037,-0.784 0.721,-1.145 1.383,-1.054 5.408,0.742 10.823,1.307 16.286,1.354 0.622,0.006 1.141,0.515 1.141,1.141 v 3.604 c 0,0.493 -0.346,0.982 -0.838,1.099 -1.931,0.46 -4.658,1.328 -7.08,1.484 -0.177,12.366 -1.424,24.68 -1.535,37.056 -0.001,0.105 -0.032,0.185 -0.053,0.273 3.939,0.658 7.322,2.633 7.488,7.182 0.227,6.22 -2.402,12.095 -4.462,17.835 -2.395,6.669 -5.248,13.2 -7.578,19.898 6.891,-2.925 17.491,-4.664 21.718,1.973 0.345,-0.275 0.718,-0.53 1.13,-0.751 3.952,-2.125 7.271,0.684 8.216,4.427 1.702,1.458 2.313,3.915 1.359,5.999 -0.699,1.529 -1.939,2.683 -3.36,3.552 1.555,1.7 2.133,4.206 3.092,6.272 1.858,4.006 3.956,7.908 6.094,11.769 3.122,5.638 6.403,11.26 10.1,16.56 -1.416,-6.884 -2.213,-13.898 -3.099,-20.864 -2.46,-19.338 -5.63,-38.913 -12.34,-57.25 -2.538,-6.936 -4.091,-13.48 -2.975,-20.844 0.728,-4.8 4.237,-6.572 8.456,-8.047 5.01,-1.751 10.184,-2.829 15.428,-3.372 -0.24,-6.123 -0.388,-12.251 -0.486,-18.379 -3.178,1.309 -6.617,1.452 -9.983,0.253 -2.138,-0.762 -4.732,-3.398 -3.201,-5.849 4.511,-7.221 16.009,-5.343 16.718,3.327 0.054,0.663 -0.285,1.081 -0.746,1.264 -0.096,6.409 -0.247,12.819 -0.496,19.224 6.088,-0.484 12.255,-0.247 18.362,0.539 0.77,-7.692 -4.989,-34.832 10.755,-30.939 9.877,2.442 -2.062,17.248 -8.228,9.604 -1.752,7.086 0.558,14.487 -0.58,21.609 7.431,1.1 14.751,2.988 21.7,5.383 0.709,0.245 1.324,1.027 1.032,1.817 -11.365,30.737 -16.226,63.46 -19.798,96.001 1.066,-2.533 2.365,-4.961 2.547,-5.32 4.968,-9.806 10.943,-20.914 19.667,-27.948 -3.488,-3.315 -3.651,-9.279 -0.289,-13.448 0.565,-0.7 1.571,-0.203 1.826,0.482 0.741,1.986 1.643,3.454 1.994,5.403 1.411,-0.479 3.007,-1.006 4.316,-0.446 1.08,0.463 0.916,2.003 0.593,3.305 2.699,-0.359 5.371,0.622 5.343,3.531 1.077,-0.999 2.52,-0.502 3.54,0.314 2.195,1.755 3.764,5.638 2.72,8.355 -1.291,3.366 -5.371,3.081 -8.314,2.315 2.514,24.427 7.341,47.831 19.427,69.531 0.295,0.529 -0.475,0.968 -0.804,0.47"
             style="fill:#1d1d1b;fill-opacity:1;fill-rule:nonzero;stroke:#d4ff2a;stroke-opacity:1"
             id="path308"
             inkscape:connector-curvature="0" /></g><g
           id="g310"
           transform="translate(585.0317,171.099)"
           style="stroke:#d4ff2a;stroke-opacity:1"><path
             d="M 0,0 C -2.866,0.505 -4.05,2.338 -3.699,4.445 -3.183,4.316 -2.667,4.186 -2.152,4.057 -1.89,3.652 -1.281,3.399 -0.844,3.714 -0.31,4.098 0.278,4.51 0.49,5.169 0.521,5.265 0.547,5.33 0.569,5.379 0.845,5.51 1.202,5.587 1.576,5.634 1.645,4.847 1.298,3.799 1.243,3.098 1.169,2.143 2.395,1.804 3.008,2.366 4.059,3.33 5.034,3.599 6.161,3.864 5.656,0.992 3.161,-0.556 0,0 m -26.649,-44.212 c 1.991,-5.044 3.152,-10.004 2.983,-15.439 -0.193,-6.211 -6.596,-4.661 -10.86,-4.42 -5.981,0.337 -11.982,-0.237 -17.972,0.009 -1.745,0.038 -3.457,0.306 -5.136,0.805 -0.043,1.478 0.083,2.961 0.194,4.433 0.238,3.144 0.847,6.255 1.479,9.34 2.167,10.571 5.86,20.767 8.176,31.288 1.68,-0.524 3.442,-0.889 5.259,-1.074 2.341,-0.239 4.592,-0.127 6.716,0.281 1.041,-8.869 5.928,-17.036 9.161,-25.223 m -26.331,31.334 c 0.092,0.705 -0.656,1.261 -1.281,1.046 -3.84,3.453 -6.041,8.525 -5.565,14.539 0.076,0.972 0.245,1.894 0.454,2.793 11.079,-4.336 25.374,-6.075 35.17,1.735 0.163,0.13 0.266,0.284 0.328,0.447 3.939,-10.822 -1.872,-24.609 -17.37,-24.363 -4.517,0.072 -8.564,1.454 -11.736,3.803 m -6.6,-2.079 c -1.415,1.306 -0.665,3.318 0.254,4.881 0.952,-1.361 2.085,-2.592 3.368,-3.683 -1.02,-1.248 -2.311,-2.407 -3.622,-1.198 m -20.215,31.593 c 0.606,0.165 1.165,0.391 1.704,0.648 0.018,-0.028 0.029,-0.057 0.056,-0.084 4.166,-4.36 13.189,-6.846 19.105,-4.496 -0.441,-0.681 -0.845,-1.393 -1.218,-2.13 -7.542,-3.026 -14.374,-0.428 -19.647,6.062 m 4.186,2.299 c 1.433,-0.643 3.093,-0.766 4.745,-0.952 2.812,-0.316 6.593,-0.858 9.428,0.029 -0.287,-0.731 -0.365,-1.54 -0.194,-2.324 0.113,-0.519 0.355,-0.956 0.675,-1.331 -5.804,-0.701 -11.337,-0.534 -16.314,3.363 0.588,0.347 1.132,0.765 1.66,1.215 m 3.147,3.461 c 0.338,0.455 0.667,0.911 0.995,1.365 1.827,-0.425 3.617,-0.908 5.395,-1.565 1.596,-0.591 2.797,-1.407 3.949,-2.33 -2.586,0.162 -5.37,-0.316 -7.942,-0.231 -1.416,0.047 -3.086,0.032 -4.596,0.161 0.764,0.771 1.487,1.642 2.199,2.6 m 5.044,5.931 c 2.061,-0.699 3.975,-1.613 5.781,-2.842 1.916,-1.304 3.204,-3.002 4.486,-4.801 -0.742,-0.001 -1.472,-0.192 -2.139,-0.52 -1.237,1.351 -3.194,2.292 -4.674,2.969 -2.044,0.935 -4.273,1.583 -6.516,1.964 0.904,1.186 1.874,2.295 3.062,3.23 m 13.679,-8.496 c -0.301,0.174 -0.636,0.31 -0.979,0.427 -2.202,4.41 -6.812,7.396 -11.418,8.951 6.522,3.788 12.804,-3.081 12.397,-9.378 m -4.514,-1.397 c -10e-4,0.004 -0.004,0.007 -0.005,0.012 0.482,0.171 1.009,0.23 1.515,0.206 0.873,-0.041 1.609,-0.576 2.376,-0.912 -1.227,-0.964 -2.336,-2.082 -3.327,-3.317 -0.194,0.197 -0.476,0.321 -0.787,0.274 -0.21,-0.032 -0.418,-0.061 -0.628,-0.091 -0.722,0.901 -1.029,2.022 -0.283,3.016 0.557,-0.304 1.356,0.081 1.139,0.812 m 16.901,1.744 c -0.488,-0.34 -0.946,-0.693 -1.337,-0.951 -1.785,-1.175 -3.513,-2.43 -5.197,-3.745 -2.325,-1.815 -6.479,-4.962 -6.128,-8.374 0.047,-0.46 0.393,-1.003 0.938,-0.938 0.16,-0.09 0.307,-0.2 0.439,-0.329 0.165,-0.136 0.432,0.036 0.31,0.239 -0.092,0.073 -0.184,0.145 -0.276,0.218 0.285,0.141 0.472,0.499 0.465,0.81 -0.068,2.988 4.5,5.905 6.564,7.465 1.079,0.817 2.196,1.582 3.322,2.334 -1.037,-1.203 -1.949,-2.523 -2.732,-3.931 -1.249,-2.244 -2.663,-5.393 -2.662,-8.14 -3.785,0.519 -7.58,1.394 -11.279,2.266 0.153,0.461 0.325,0.91 0.513,1.348 0.794,0.513 1.572,1.118 2.325,1.841 0.582,0.558 0.261,1.36 -0.318,1.651 3.433,4.662 9.031,7.517 15.053,8.236 m 2.025,-2.186 c -0.01,-2.057 -1.641,-8.497 -1.849,-9.337 -0.283,-1.141 -0.915,-2.717 -0.438,-3.888 0.065,-0.159 0.149,-0.282 0.242,-0.388 -1.368,0 -2.745,0.073 -4.127,0.207 0.876,2.368 1.166,5.067 2.176,7.42 0.979,2.278 2.321,4.261 3.996,5.986 m 0.394,-9.532 c 0.459,2.034 0.886,4.08 1.192,6.143 0.097,0.652 0.274,2.503 -0.033,3.741 0.388,-0.343 0.816,-0.932 1.054,-1.199 0.918,-1.032 1.612,-2.244 2.247,-3.463 0.704,-1.348 1.229,-2.756 1.587,-4.232 0.264,-1.093 0.063,-2.175 0.506,-3.207 0.077,-0.18 0.196,-0.296 0.334,-0.365 -2.523,-0.892 -5.128,-1.343 -7.779,-1.462 0.114,0.12 0.217,0.256 0.291,0.428 0.103,0.24 0.08,0.523 -0.023,0.763 0.036,0.134 0.076,0.266 0.103,0.405 0.156,0.82 0.338,1.634 0.521,2.448 m 1.4,11.18 c 6.392,-1.553 10.735,-5.537 12.995,-10.354 -0.366,0.224 -0.815,0.272 -1.22,-0.035 -1.608,-1.216 -3.272,-2.158 -4.979,-2.879 1.52,2.321 -1.119,6.884 -2.33,8.828 -1.135,1.821 -2.587,3.974 -4.835,4.101 0.121,0.115 0.239,0.232 0.369,0.339 m 5.786,1.318 c 0.723,3.414 3.57,6.953 6.893,8.375 -2.745,-2.068 -3.578,-6.011 -3.194,-9.511 -0.189,-0.326 -0.348,-0.671 -0.472,-1.02 -1.042,0.746 -2.156,1.395 -3.331,1.933 0.047,0.06 0.084,0.133 0.104,0.223 m 10.705,8.012 c 0.418,0.2 0.52,0.55 0.442,0.88 1.135,-0.238 2.247,-0.808 3.277,-1.795 0.838,-0.802 1.485,-1.8 2.031,-2.879 -0.183,0.176 -0.475,0.242 -0.78,0.11 -1.198,-0.518 -2.114,-1.761 -3.193,-2.513 -1.165,-0.812 -2.468,-1.371 -3.823,-1.777 -0.857,0.548 -1.908,0.755 -2.906,0.514 -0.242,-0.059 -0.461,-0.155 -0.669,-0.268 0.058,1.291 0.28,2.566 0.793,3.779 0.93,2.201 2.823,2.989 4.828,3.949 m 5.934,-4.171 c 0.873,-1.826 1.487,-3.848 2.212,-5.575 0.197,-0.468 0.406,-0.913 0.627,-1.339 -1.258,-0.301 -2.475,-0.657 -3.832,-0.722 -1.739,-0.083 -3.461,0.345 -5.107,0.864 -0.088,0.713 -0.389,1.404 -0.816,1.982 1.228,0.352 2.392,0.835 3.509,1.481 1.157,0.67 2.778,1.654 3.341,2.898 0.066,0.145 0.082,0.284 0.066,0.411 m 9.357,-11.651 c -0.397,-0.531 -0.824,-1.009 -1.278,-1.441 0.037,0.534 -0.34,1.064 -1.009,0.857 -2.39,-0.74 -4.316,-1.408 -6.874,-0.921 -2.63,0.502 -4.843,2.214 -6.698,4.048 0.154,0.371 0.258,0.75 0.333,1.124 3.008,-1.167 6.853,-1.698 9.902,-0.399 1.389,-1.996 3.192,-3.239 5.624,-3.268 m -20.871,5.818 c 0.759,0.747 1.767,1.04 2.739,0.127 0.474,-0.444 0.748,-1.151 0.661,-1.8 -0.132,-0.979 -0.755,-1.549 -1.369,-2.185 -0.846,1.02 -1.782,1.959 -2.802,2.802 0.076,0.148 0.164,0.29 0.255,0.429 0.287,0.06 0.541,0.272 0.516,0.614 0,0.004 0,0.009 0,0.013 m 6.866,-9.701 c -0.534,0.144 -0.951,-0.068 -1.197,-0.411 -0.616,1.614 -1.407,3.154 -2.371,4.573 0.379,0.27 0.709,0.616 0.996,1 2.881,-3.379 7.969,-5.994 12.356,-4.708 -2.872,-1.316 -6.298,-1.389 -9.784,-0.454 m -4.173,-24.806 c -0.67,-0.205 -1.477,-0.159 -2.176,-0.04 -0.443,0.075 -0.953,0.299 -1.38,0.049 -0.027,-0.016 -0.039,-0.028 -0.056,-0.041 -0.013,0.008 -0.019,0.014 -0.037,0.023 -0.125,0.058 -0.112,0.118 -0.081,0.001 -0.008,0.031 -0.035,0.04 -0.049,0.065 1.597,1.163 3.005,2.565 4.186,4.173 0.077,-0.198 0.16,-0.403 0.235,-0.621 0.237,-0.694 0.401,-1.405 0.396,-2.14 -0.005,-0.807 -0.354,-1.26 -1.038,-1.469 m -4.609,-59.604 c 1.296,-0.727 1.468,-2.728 0.824,-3.912 -1.38,-2.54 -5.444,0.482 -6.219,1.94 -0.06,0.114 -0.108,0.233 -0.16,0.35 1.596,1.291 3.702,2.661 5.555,1.622 m -25.195,-1.953 c -1.017,-1.608 -4.564,-2.955 -5.794,-0.966 -0.787,1.272 -0.628,3.254 0.432,4.315 1.589,1.59 4.229,-0.85 5.884,-2.351 -0.16,-0.34 -0.322,-0.681 -0.522,-0.998 M 7.037,6.293 C 5.69,5.897 4.599,5.682 3.556,5.202 3.601,5.887 3.534,6.555 3.133,7.201 2.883,7.604 2.465,7.74 2.014,7.656 1.124,7.491 -0.224,7.427 -0.922,6.73 -1.177,6.474 -1.249,6.22 -1.351,5.972 -1.796,6.336 -2.302,6.564 -2.831,6.623 -2.705,6.822 -2.568,7.02 -2.417,7.217 -2.13,7.592 -2.737,8.024 -3.055,7.709 -3.487,7.281 -3.891,6.818 -4.246,6.328 -4.391,6.251 -4.536,6.174 -4.68,6.064 -5.051,5.78 -5.125,5.358 -5.028,4.993 -5.454,4.032 -5.629,2.985 -5.371,1.864 -5.162,0.957 -4.59,0.215 -3.868,-0.382 -5.194,-7.596 -9.954,-14.08 -14.843,-19.327 c -2.565,-2.753 -5.54,-5.082 -8.881,-6.807 -2.336,-1.205 -4.929,-0.483 -7.082,-1.446 -1.107,2.943 -1.965,5.948 -2.282,9.056 -0.009,0.087 -0.029,0.167 -0.05,0.246 1.752,0.583 3.381,1.394 4.867,2.397 0.079,-0.152 0.215,-0.274 0.354,-0.377 0.061,-0.046 0.123,-0.089 0.186,-0.13 -0.296,0.195 -0.183,0.049 -0.033,-0.208 0.187,-0.319 0.528,-0.45 0.856,-0.57 1.121,-0.408 2.337,-0.535 3.508,-0.294 1.319,0.273 2.291,1.308 2.58,2.605 0.2,0.901 0.051,1.852 -0.155,2.737 -0.211,0.907 -0.502,2.156 -1.282,2.743 1.418,2.503 2.344,5.397 2.649,8.599 0.254,2.661 -0.025,5.295 -0.731,7.787 7.319,-2.121 14.154,0.281 17.851,7.033 0.484,0.884 -0.307,1.976 -1.309,1.702 -7.493,-2.049 -8.523,11.497 -13.515,15.248 -6.492,4.878 -15.594,-3.044 -15.594,-9.815 -1.628,0.632 -3.361,1.056 -5.177,1.226 -0.438,0.042 -0.757,-0.16 -0.971,-0.452 -5.004,0.571 -9.667,-0.557 -13.51,-2.953 2.594,7.595 -3.684,13.791 -11.284,13.352 -8.838,-0.51 -9.691,-13.039 -18.199,-13.569 -0.875,-0.055 -1.697,-1.07 -1.097,-1.912 4.821,-6.769 13.644,-12.433 21.545,-9.932 -0.292,-0.957 -0.545,-1.935 -0.717,-2.958 -0.815,-4.841 0.074,-9.138 2.124,-12.695 -1.975,-2.101 -3.047,-5.573 -0.718,-7.791 2.084,-1.985 5.044,-0.655 6.739,1.381 1.553,-1.061 3.259,-1.952 5.09,-2.633 -0.823,-2.294 -1.675,-4.622 -2.524,-6.973 -0.158,0.021 -0.315,0.042 -0.483,0.079 -0.609,0.133 -1.222,0.328 -1.851,0.315 -0.895,-0.018 -0.839,-1.243 0,-1.349 0.569,-0.073 1.172,-0.367 1.773,-0.599 -4.441,-12.379 -8.639,-25.432 -8.21,-38.366 0.019,-0.573 0.406,-1.238 1.022,-1.342 2.564,-0.435 5.138,-0.664 7.717,-0.785 -0.144,-2.309 -0.23,-4.834 -0.803,-7.123 -2.015,2.078 -5.116,3.689 -7.661,2.205 -2.324,-1.356 -2.776,-4.885 -1.735,-7.156 1.529,-3.337 5.211,-2.947 7.934,-1.395 1.431,0.816 2.331,2.118 2.883,3.661 0.008,0.014 0.011,0.03 0.018,0.044 0.002,0.005 0.004,0.011 0.006,0.016 0.037,0.083 0.064,0.168 0.077,0.258 0.932,2.9 0.723,6.55 0.47,9.438 5.066,-0.174 10.152,0.028 15.232,-0.063 -0.646,-2.735 -1.547,-6.043 -1.152,-8.96 -0.106,-0.097 -0.214,-0.195 -0.313,-0.29 -0.811,-0.777 -0.019,-1.829 0.864,-1.775 0.363,-0.856 0.893,-1.649 1.657,-2.342 2.292,-2.077 6.42,-2.731 8.312,0.111 1.335,2.005 0.649,5.064 -1.128,6.546 -2.329,1.945 -5.317,0.795 -7.646,-0.84 -0.155,2.478 0.645,5.258 0.83,7.515 1.013,-0.03 2.026,-0.07 3.038,-0.134 4.271,-0.271 7.896,0.254 9.443,4.656 2.244,6.388 -0.931,14.596 -3.242,20.443 -1.702,4.305 -3.936,8.586 -5.709,12.99 3.779,-2.879 12.709,4.148 15.006,6.166 6.028,5.295 11.83,13.185 13.404,21.247 0.339,-0.137 0.677,-0.259 1.003,-0.349 C 4.154,-3.286 8.624,0.065 8.393,5.26 8.363,5.941 7.73,6.496 7.037,6.293"
             style="fill:#1d1d1b;fill-opacity:1;fill-rule:nonzero;stroke:#d4ff2a;stroke-opacity:1"
             id="path312"
             inkscape:connector-curvature="0" /></g><g
           id="g314"
           transform="translate(554.1461,163.3955)"
           style="stroke:#d4ff2a;stroke-opacity:1"><path
             d="m 0,0 c -2.906,-3.222 -5.646,-4.866 -10.106,-4.869 -1.719,-0.001 -3.497,0.414 -5.059,1.125 -1.035,0.472 -1.667,1.231 -2.843,1.329 -0.197,0.016 -0.424,-0.157 -0.461,-0.351 -0.677,-3.596 6.017,-4.519 8.363,-4.657 4.44,-0.263 10.438,1.729 11.833,6.418 C 2.015,-0.035 0.699,0.775 0,0"
             style="fill:#1d1d1b;fill-opacity:1;fill-rule:nonzero;stroke:#d4ff2a;stroke-opacity:1"
             id="path316"
             inkscape:connector-curvature="0" /></g><g
           id="g318"
           transform="translate(540.0542,167.71)"
           style="stroke:#d4ff2a;stroke-opacity:1"><path
             d="m 0,0 c 0.084,-1.678 0.154,-3.371 0.299,-5.045 0.092,-1.069 1.568,-1.069 1.66,0 C 2.103,-3.371 2.174,-1.678 2.257,0 2.33,1.455 -0.073,1.455 0,0"
             style="fill:#1d1d1b;fill-opacity:1;fill-rule:nonzero;stroke:#d4ff2a;stroke-opacity:1"
             id="path320"
             inkscape:connector-curvature="0" /></g><g
           id="g322"
           transform="translate(548.8157,168.4307)"
           style="stroke:#d4ff2a;stroke-opacity:1"><path
             d="M 0,0 C -0.012,0.161 -0.025,0.322 -0.037,0.482 0.021,1.232 -0.563,1.574 -1.146,1.535 -1.73,1.574 -2.314,1.232 -2.256,0.482 -2.268,0.322 -2.28,0.161 -2.293,0 c -0.022,-0.279 0.07,-0.488 0.201,-0.662 0.057,-0.317 0.112,-0.653 0.145,-1.111 0.064,-0.904 0.097,-1.814 0.219,-2.712 0.078,-0.578 1.085,-0.578 1.163,0 0.122,0.898 0.155,1.808 0.219,2.712 0.033,0.458 0.089,0.794 0.145,1.111 C -0.07,-0.488 0.022,-0.279 0,0"
             style="fill:#1d1d1b;fill-opacity:1;fill-rule:nonzero;stroke:#d4ff2a;stroke-opacity:1"
             id="path324"
             inkscape:connector-curvature="0" /></g><g
           id="g326"
           transform="translate(546.3945,161.1074)"
           style="stroke:#d4ff2a;stroke-opacity:1"><path
             d="m 0,0 c -0.142,0.042 -0.29,0.141 -0.434,0.194 -0.21,0.076 -0.468,0.064 -0.688,0.085 -0.104,0.009 -0.204,0.043 -0.307,0.06 0.03,0.013 0.061,0.026 0.089,0.039 0.474,0.228 0.249,1.023 -0.268,0.99 -0.606,-0.038 -1.357,-0.104 -1.836,-0.52 -0.453,-0.395 -0.415,-1.004 -0.064,-1.445 0.311,-0.39 0.843,-0.538 1.308,-0.642 0.354,-0.079 0.718,-0.119 1.078,-0.157 C -0.685,-1.44 -0.405,-1.323 0,-1.209 0.606,-1.04 0.591,-0.176 0,0"
             style="fill:#1d1d1b;fill-opacity:1;fill-rule:nonzero;stroke:#d4ff2a;stroke-opacity:1"
             id="path328"
             inkscape:connector-curvature="0" /></g><g
           id="g330"
           transform="translate(287.1218,204.0461)"
           style="stroke:#d4ff2a;stroke-opacity:1"><path
             d="m 0,0 c -3.096,-10.111 -13.461,-8.883 -20.884,-3.99 -0.694,0.458 -1.519,-0.605 -0.889,-1.154 7.342,-6.398 22.089,-7.84 23.949,4.544 C 2.388,0.806 0.437,1.425 0,0"
             style="fill:#1d1d1b;fill-opacity:1;fill-rule:nonzero;stroke:#d4ff2a;stroke-opacity:1"
             id="path332"
             inkscape:connector-curvature="0" /></g><g
           id="g334"
           transform="translate(273.7955,204.604)"
           style="stroke:#d4ff2a;stroke-opacity:1"><path
             d="m 0,0 c -0.143,-0.006 -0.285,-0.013 -0.428,-0.019 -0.077,0.148 -0.261,0.253 -0.458,0.166 -0.25,-0.111 -0.5,-0.198 -0.76,-0.261 -0.03,0.027 -0.061,0.054 -0.093,0.078 -0.031,0.077 -0.063,0.152 -0.116,0.221 -0.048,0.062 -0.084,0.109 -0.112,0.146 -0.077,0.186 -0.061,0.159 -0.061,0.504 -10e-4,0.738 0.21,1.532 0.4,2.285 0.412,1.63 -2.122,2.323 -2.51,0.692 C -4.44,2.544 -4.74,1.165 -4.388,-0.125 -4.22,-0.74 -3.772,-1.3 -3.16,-1.512 c 0.621,-0.215 1.346,0.142 1.665,0.68 0.32,0.123 0.635,0.251 0.94,0.411 0.081,0.043 0.125,0.102 0.147,0.165 C -0.272,-0.262 -0.136,-0.269 0,-0.275 0.177,-0.281 0.177,0.007 0,0"
             style="fill:#1d1d1b;fill-opacity:1;fill-rule:nonzero;stroke:#d4ff2a;stroke-opacity:1"
             id="path336"
             inkscape:connector-curvature="0" /></g><g
           id="g338"
           transform="translate(282.5181,206.1272)"
           style="stroke:#d4ff2a;stroke-opacity:1"><path
             d="m 0,0 c -0.557,1.581 -0.321,3.193 -0.267,4.826 0.053,1.61 -2.551,1.61 -2.496,0 0.062,-1.834 0.332,-3.85 1.257,-5.461 C -1.049,-1.431 0.315,-0.897 0,0"
             style="fill:#1d1d1b;fill-opacity:1;fill-rule:nonzero;stroke:#d4ff2a;stroke-opacity:1"
             id="path340"
             inkscape:connector-curvature="0" /></g><g
           id="g342"
           transform="translate(280.282,202.9793)"
           style="stroke:#d4ff2a;stroke-opacity:1"><path
             d="m 0,0 c -1.026,0.044 -1.759,-0.505 -2.52,-1.118 -0.932,-0.751 -1.508,-0.493 -2.313,0.19 -0.041,0.489 -0.031,0.7 0.562,0.756 0.598,0.057 1.141,0.161 1.672,0.454 0.553,0.306 0.177,1.222 -0.433,1.026 -0.9,-0.29 -1.857,0.186 -2.705,-0.341 -0.501,-0.311 -0.732,-0.863 -0.87,-1.408 -0.263,-1.037 -0.019,-1.51 0.747,-2.204 2.32,-2.102 4.545,-0.229 6.337,1.493 C 0.919,-0.727 0.569,-0.024 0,0"
             style="fill:#1d1d1b;fill-opacity:1;fill-rule:nonzero;stroke:#d4ff2a;stroke-opacity:1"
             id="path344"
             inkscape:connector-curvature="0" /></g><g
           id="g346"
           transform="translate(195.237,145.4035)"
           style="stroke:#d4ff2a;stroke-opacity:1"><path
             d="M 0,0 C -0.046,0 -0.046,-0.072 0,-0.072 0.046,-0.072 0.046,0 0,0"
             style="fill:#1d1d1b;fill-opacity:1;fill-rule:nonzero;stroke:#d4ff2a;stroke-opacity:1"
             id="path348"
             inkscape:connector-curvature="0" /></g><g
           id="g350"
           transform="translate(238.1804,137.631)"
           style="stroke:#d4ff2a;stroke-opacity:1"><path
             d="m 0,0 c -0.955,-0.884 -3.548,-1.803 -4.216,-0.101 -0.467,1.189 -0.039,2.736 0.628,3.792 0.956,0.217 1.945,0.104 2.864,-0.205 C 1.146,2.857 1.366,1.266 0,0 m -12.604,-31.081 c -0.629,-2.05 -1.609,-3.9 -2.829,-5.563 -1.301,0.137 -2.639,0.111 -3.981,-0.103 -1.068,-0.171 -0.811,-1.937 0.254,-1.877 0.697,0.039 1.387,0.028 2.067,-0.022 -4.592,-4.832 -11.497,-7.55 -18.038,-7.815 -6.636,-0.269 -11.799,3.077 -14.546,8.245 1.434,1.521 3.092,2.782 4.918,3.558 0.758,0.322 0.185,1.394 -0.529,1.255 -2.033,-0.395 -3.816,-1.359 -5.359,-2.671 -0.57,1.538 -0.955,3.192 -1.124,4.932 -0.721,7.476 3.124,15.551 10.897,17.081 6.661,-1.252 11.704,0.178 15.398,3.317 0.064,-0.032 0.127,-0.064 0.2,-0.089 4.039,-1.352 7.552,-3.44 9.976,-6.203 -0.735,-0.563 -1.491,-1.109 -2.267,-1.64 -1.191,-0.816 -0.075,-2.766 1.139,-1.949 0.843,0.567 1.671,1.155 2.481,1.763 2.117,-3.312 2.82,-7.403 1.343,-12.219 m -16.32,66.487 c -0.191,-0.816 0.539,-1.474 1.249,-1.438 0.426,-0.497 1.102,-1.137 1.839,-1.512 0.381,-0.645 1.304,-0.711 1.747,-0.139 0.086,0.04 0.176,0.063 0.259,0.123 0.727,0.528 0.907,1.361 0.812,2.281 6.723,-17.499 6.303,-50.34 -18.086,-46.179 -21.502,3.669 4.26,36.881 12.18,46.864 M -4.8,-57.981 c -0.682,-1.063 -2.457,-1.466 -3.621,-1.506 -1.442,-0.05 -2.575,0.871 -2.189,2.523 0.248,1.056 1.717,1.566 3.098,1.84 0.117,-0.906 1.338,-1.464 2.145,-0.836 0.643,-0.603 1.026,-1.304 0.567,-2.021 m -47.905,-5.249 c -0.005,0.749 0.302,1.612 0.534,2.32 0.367,1.117 1.117,1.622 1.981,2.133 1.112,-0.23 2.443,0.208 3.452,-0.026 0.067,-0.017 0.133,-0.036 0.198,-0.058 0.016,-0.004 0.022,-0.006 0.033,-0.009 0.012,-0.007 0.021,-0.012 0.042,-0.023 0.023,-0.012 0.034,-0.019 0.049,-0.028 -0.012,-0.026 -0.009,-0.13 0.006,-0.06 -0.103,-0.48 -0.538,-1.045 -1.001,-1.547 -0.654,-0.708 -1.37,-1.286 -2.152,-1.807 -0.744,-0.496 -1.447,-0.877 -2.199,-1.111 -0.477,-0.148 -0.426,-0.137 -0.796,-0.132 -0.094,0.001 0.082,-0.039 -0.112,0.019 -0.061,0.167 -0.033,-0.006 -0.035,0.329 m 0.573,61.727 c -2.823,0.874 -5.615,1.781 -8.358,2.864 3.089,1.444 6.28,2.259 9.616,3.19 -0.686,-2.108 -1.133,-4.145 -1.258,-6.054 m 43.009,18.03 c 1.155,-0.035 2.584,-1.198 2.967,-2.371 0.18,-0.549 0.154,-1.059 -0.251,-1.543 -0.806,-0.961 -2.185,-1.243 -3.375,-1.258 -2.421,-0.029 -1.299,2.785 -0.954,4.173 0.012,0.05 0.012,0.096 0.013,0.141 0.034,0.056 0.052,0.119 0.089,0.174 0.4,0.588 0.912,0.702 1.511,0.684 M 1.318,5.007 C 0.113,5.902 -1.556,6.17 -3.016,6.089 -4.681,5.996 -7.12,5.322 -7.788,3.655 -8.006,3.112 -7.456,2.472 -6.907,2.499 c 0.37,0.018 0.721,0.122 1.066,0.26 -0.585,-1.245 -0.689,-2.715 -0.111,-3.999 0.229,-0.509 0.548,-0.9 0.923,-1.197 -0.056,-0.098 -0.116,-0.191 -0.147,-0.32 -1.246,-5.26 -4.224,-9.25 -8.061,-12.597 -1.594,1.804 -3.558,3.358 -5.74,4.621 4.114,5.984 7.486,12.396 8.857,19.605 0.03,0.16 0.02,0.305 -0.004,0.443 2.765,-0.342 6.333,1.367 6.241,4.437 -0.07,2.351 -2.234,4.472 -4.455,4.945 -3.108,0.662 -5.378,-2.233 -5.293,-5.155 0.01,-0.325 0.073,-0.67 0.18,-0.974 0.062,-0.175 0.181,-0.314 0.323,-0.416 0.107,-0.818 0.47,-1.571 1.117,-2.099 -0.15,-0.135 -0.277,-0.308 -0.332,-0.569 -1.483,-7.079 -4.465,-13.284 -8.103,-19.426 -0.964,0.479 -1.96,0.904 -2.98,1.269 9.789,11.682 7.226,37.795 0.295,49.47 -0.39,0.657 -1.414,0.862 -1.953,0.252 -0.039,-0.044 -0.071,-0.089 -0.109,-0.133 -0.686,0.13 -1.373,0.173 -2.154,-0.05 -0.926,-0.264 -1.685,-0.912 -2.012,-1.824 -0.184,-0.512 -0.206,-1.034 -0.136,-1.55 -4.378,-5.038 -13.896,-16.473 -19.097,-27.355 -2.536,1.119 -4.936,2.426 -7.286,3.853 1.098,0.079 2.196,0.174 3.294,0.266 1.856,0.156 4.017,-0.082 5.72,0.718 0.514,0.241 0.533,1.147 0,1.382 -1.751,0.77 -3.858,0.279 -5.72,0.131 -2.31,-0.184 -4.617,-0.396 -6.936,-0.42 -1.097,-0.012 -1.559,-1.54 -0.567,-2.092 3.507,-1.951 7.074,-3.873 10.91,-5.087 -0.382,-0.85 -0.741,-1.696 -1.06,-2.532 -0.157,0.139 -0.366,0.225 -0.634,0.204 -4.464,-0.351 -8.96,-2.13 -12.813,-4.351 -0.879,-0.507 -0.612,-1.721 0.265,-2.03 3.654,-1.286 7.406,-2.568 11.26,-3.101 0.101,-4.48 2.216,-8.112 7.442,-10.092 -6.621,-2.196 -9.781,-10.034 -9.709,-17.177 0.029,-2.908 0.65,-5.597 1.727,-7.993 -2.16,-2.632 -3.68,-5.929 -4.576,-8.945 -1.056,-3.556 -0.624,-10.862 3.689,-12.099 -0.008,-0.013 -0.019,-0.023 -0.028,-0.037 -0.825,-1.3 -1.423,-3.181 -1.156,-4.723 0.404,-2.329 3.156,-1.77 4.663,-1.117 1.963,0.851 3.794,2.333 5.063,4.049 1.202,1.625 1.075,3.768 -1.112,4.364 -1.237,0.337 -3.388,0.377 -4.459,-0.363 -0.191,-0.132 -0.313,-0.316 -0.378,-0.512 -0.138,-0.03 -0.273,-0.066 -0.407,-0.107 -1.605,1.359 -3.15,2.02 -3.803,4.371 -0.665,2.395 0.147,5.138 0.914,7.399 0.626,1.843 1.581,3.729 2.791,5.449 3.131,-4.968 8.532,-8.214 15.041,-8.609 8.522,-0.517 16.889,3.466 22.19,9.958 6.164,-1.607 10.532,-6.874 7.854,-13.366 -0.879,0.403 -1.669,-0.382 -1.661,-1.148 -1.949,-0.161 -3.842,-0.856 -4.613,-2.771 -0.513,-1.272 0.053,-3.146 0.925,-4.141 0.723,-0.825 1.793,-1.108 2.844,-1.205 2.218,-0.203 4.782,0.782 6.102,2.596 1.371,1.885 0.227,3.733 -1.311,5.093 3.821,7.576 -1.388,14.823 -8.699,16.895 1.122,1.669 2.06,3.466 2.758,5.373 2.029,5.554 1.016,10.569 -1.755,14.609 4.282,3.63 7.721,8.042 8.95,13.78 0.017,0.08 0,0.147 0.003,0.223 1.496,-0.064 3.139,0.526 4.204,1.356 2.484,1.936 2.514,4.94 -0.016,6.819"
             style="fill:#1d1d1b;fill-opacity:1;fill-rule:nonzero;stroke:#d4ff2a;stroke-opacity:1"
             id="path352"
             inkscape:connector-curvature="0" /></g><g
           id="g354"
           transform="translate(205.2667,144.3354)"
           style="stroke:#d4ff2a;stroke-opacity:1"><path
             d="m 0,0 c -2.321,1.527 -4.86,2.902 -7.518,3.741 -1.078,0.34 -1.707,-0.606 -1.574,-1.463 -0.991,-0.416 -1.158,-2.096 0.148,-2.537 2.553,-0.862 5.189,-1.577 7.664,-2.652 1.121,-0.488 1.932,0.461 1.796,1.302 C 0.722,-1.07 0.604,-0.398 0,0"
             style="fill:#1d1d1b;fill-opacity:1;fill-rule:nonzero;stroke:#d4ff2a;stroke-opacity:1"
             id="path356"
             inkscape:connector-curvature="0" /></g><g
           id="g358"
           transform="translate(278.7931,646.8251)"
           style="stroke:#d4ff2a;stroke-opacity:1" /></g></g></g></svg>