<?xml version="1.0" encoding="UTF-8" standalone="no"?>
<svg
   xmlns:dc="http://purl.org/dc/elements/1.1/"
   xmlns:cc="http://creativecommons.org/ns#"
   xmlns:rdf="http://www.w3.org/1999/02/22-rdf-syntax-ns#"
   xmlns:svg="http://www.w3.org/2000/svg"
   xmlns="http://www.w3.org/2000/svg"
   xmlns:xlink="http://www.w3.org/1999/xlink"
   xmlns:sodipodi="http://sodipodi.sourceforge.net/DTD/sodipodi-0.dtd"
   xmlns:inkscape="http://www.inkscape.org/namespaces/inkscape"
   id="Warstwa_1"
   version="1.1"
   viewBox="-14 16 55.078426 114.46026"
   xml:space="preserve"
   sodipodi:docname="iphone-parent.svg"
   inkscape:version="0.92.2 5c3e80d, 2017-08-06"
   width="55.078426"
   height="114.46026"><metadata
     id="metadata25"><rdf:RDF><cc:Work
         rdf:about=""><dc:format>image/svg+xml</dc:format><dc:type
           rdf:resource="http://purl.org/dc/dcmitype/StillImage" /><dc:title></dc:title></cc:Work></rdf:RDF></metadata><defs
     id="defs23"><linearGradient
       id="linearGradient5272"
       inkscape:collect="always"><stop
         id="stop5268"
         offset="0"
         style="stop-color:#9300b8;stop-opacity:1;" /><stop
         id="stop5270"
         offset="1"
         style="stop-color:#9300b8;stop-opacity:0;" /></linearGradient><linearGradient
       id="linearGradient3879"
       inkscape:collect="always"><stop
         id="stop3875"
         offset="0"
         style="stop-color:#ffffff;stop-opacity:1;" /><stop
         id="stop3877"
         offset="1"
         style="stop-color:#ffffff;stop-opacity:0;" /></linearGradient><linearGradient
       id="linearGradient3827"
       inkscape:collect="always"><stop
         id="stop3823"
         offset="0"
         style="stop-color:#87aade;stop-opacity:1" /><stop
         id="stop3825"
         offset="1"
         style="stop-color:#dbdee3;stop-opacity:1" /></linearGradient><linearGradient
       id="linearGradient3805"
       inkscape:collect="always"><stop
         id="stop3801"
         offset="0"
         style="stop-color:#162d50;stop-opacity:1;" /><stop
         id="stop3803"
         offset="1"
         style="stop-color:#162d50;stop-opacity:0" /></linearGradient><linearGradient
       id="linearGradient3570"
       inkscape:collect="always"><stop
         id="stop3566"
         offset="0"
         style="stop-color:#00fe00;stop-opacity:1;" /><stop
         id="stop3568"
         offset="1"
         style="stop-color:#00fe00;stop-opacity:0;" /></linearGradient><linearGradient
       id="linearGradient2736"
       inkscape:collect="always"><stop
         id="stop2732"
         offset="0"
         style="stop-color:#554400;stop-opacity:1" /><stop
         id="stop2734"
         offset="1"
         style="stop-color:#ffcc00;stop-opacity:1" /></linearGradient><linearGradient
       id="linearGradient13699"
       inkscape:collect="always"><stop
         id="stop13695"
         offset="0"
         style="stop-color:#ff5555;stop-opacity:1" /><stop
         id="stop13697"
         offset="1"
         style="stop-color:#ff0000;stop-opacity:1" /></linearGradient><linearGradient
       id="linearGradient11714"
       inkscape:collect="always"><stop
         id="stop11710"
         offset="0"
         style="stop-color:#000000;stop-opacity:1;" /><stop
         id="stop11712"
         offset="1"
         style="stop-color:#554400;stop-opacity:1" /></linearGradient><linearGradient
       inkscape:collect="always"
       id="linearGradient11708"><stop
         style="stop-color:#554400;stop-opacity:1"
         offset="0"
         id="stop11704" /><stop
         style="stop-color:#000000;stop-opacity:1"
         offset="1"
         id="stop11706" /></linearGradient><linearGradient
       id="linearGradient11639"
       inkscape:collect="always"><stop
         id="stop11635"
         offset="0"
         style="stop-color:#2b2200;stop-opacity:1;" /><stop
         id="stop11637"
         offset="1"
         style="stop-color:#000000;stop-opacity:1" /></linearGradient><linearGradient
       id="linearGradient11591"
       inkscape:collect="always"><stop
         id="stop11587"
         offset="0"
         style="stop-color:#2b2200;stop-opacity:1;" /><stop
         id="stop11589"
         offset="1"
         style="stop-color:#907300;stop-opacity:1" /></linearGradient><linearGradient
       id="linearGradient11559"
       inkscape:collect="always"><stop
         id="stop11555"
         offset="0"
         style="stop-color:#aa8800;stop-opacity:1;" /><stop
         id="stop11557"
         offset="1"
         style="stop-color:#ffcc00;stop-opacity:1" /></linearGradient><linearGradient
       id="linearGradient11535"
       inkscape:collect="always"><stop
         id="stop11531"
         offset="0"
         style="stop-color:#554400;stop-opacity:1;" /><stop
         id="stop11533"
         offset="1"
         style="stop-color:#554400;stop-opacity:0;" /></linearGradient><linearGradient
       id="linearGradient11483"
       inkscape:collect="always"><stop
         id="stop11479"
         offset="0"
         style="stop-color:#554400;stop-opacity:1;" /><stop
         id="stop11481"
         offset="1"
         style="stop-color:#a0892c;stop-opacity:1" /></linearGradient><linearGradient
       id="linearGradient11467"
       inkscape:collect="always"><stop
         id="stop11463"
         offset="0"
         style="stop-color:#d4aa00;stop-opacity:1;" /><stop
         id="stop11465"
         offset="1"
         style="stop-color:#554400;stop-opacity:1" /></linearGradient><linearGradient
       id="linearGradient11451"
       inkscape:collect="always"><stop
         id="stop11447"
         offset="0"
         style="stop-color:#222b00;stop-opacity:1;" /><stop
         id="stop11449"
         offset="1"
         style="stop-color:#000000;stop-opacity:1" /></linearGradient><linearGradient
       id="linearGradient11441"
       inkscape:collect="always"><stop
         id="stop11437"
         offset="0"
         style="stop-color:#28220b;stop-opacity:1;" /><stop
         id="stop11439"
         offset="1"
         style="stop-color:#000000;stop-opacity:1" /></linearGradient><linearGradient
       id="linearGradient10712"
       inkscape:collect="always"><stop
         id="stop10708"
         offset="0"
         style="stop-color:#5d6c53;stop-opacity:1;" /><stop
         id="stop10710"
         offset="1"
         style="stop-color:#2b2200;stop-opacity:1" /></linearGradient><linearGradient
       id="linearGradient5851"
       inkscape:collect="always"><stop
         id="stop5847"
         offset="0"
         style="stop-color:#00aa88;stop-opacity:1;" /><stop
         id="stop5849"
         offset="1"
         style="stop-color:#005544;stop-opacity:1" /></linearGradient><linearGradient
       id="linearGradient5134"
       inkscape:collect="always"><stop
         id="stop5130"
         offset="0"
         style="stop-color:#939dac;stop-opacity:1;" /><stop
         id="stop5132"
         offset="1"
         style="stop-color:#939dac;stop-opacity:0;" /></linearGradient><linearGradient
       id="linearGradient4892"
       inkscape:collect="always"><stop
         id="stop4888"
         offset="0"
         style="stop-color:#214478;stop-opacity:1;" /><stop
         id="stop4890"
         offset="1"
         style="stop-color:#214478;stop-opacity:0;" /></linearGradient><linearGradient
       gradientUnits="userSpaceOnUse"
       y2="76.369003"
       x2="78.844505"
       y1="76.369003"
       x1="54.909721"
       id="linearGradient4894"
       xlink:href="#linearGradient4892"
       inkscape:collect="always" /><linearGradient
       gradientTransform="translate(-73.248985,38.91643)"
       gradientUnits="userSpaceOnUse"
       y2="161.1933"
       x2="-6.8345628"
       y1="-88.010132"
       x1="-12.778862"
       id="linearGradient5136"
       xlink:href="#linearGradient5134"
       inkscape:collect="always" /><linearGradient
       gradientTransform="translate(-0.2285689,0.99821375)"
       y2="100.34581"
       x2="320.46729"
       y1="104.91491"
       x1="320.61758"
       gradientUnits="userSpaceOnUse"
       id="linearGradient5855"
       xlink:href="#linearGradient5851"
       inkscape:collect="always" /><linearGradient
       gradientTransform="translate(79.375002,52.916669)"
       gradientUnits="userSpaceOnUse"
       y2="601.45782"
       x2="283.86301"
       y1="619.91956"
       x1="313.77054"
       id="linearGradient7990"
       xlink:href="#linearGradient11714"
       inkscape:collect="always" /><linearGradient
       gradientUnits="userSpaceOnUse"
       y2="325.71582"
       x2="63.527805"
       y1="512.95837"
       x1="64.491188"
       id="linearGradient10714"
       xlink:href="#linearGradient10712"
       inkscape:collect="always" /><linearGradient
       gradientTransform="translate(2.0163302,88.242674)"
       gradientUnits="userSpaceOnUse"
       y2="573.39673"
       x2="429.83542"
       y1="558.82568"
       x1="402.8605"
       id="linearGradient11443"
       xlink:href="#linearGradient11441"
       inkscape:collect="always" /><linearGradient
       gradientTransform="translate(1.5561202,82.685504)"
       gradientUnits="userSpaceOnUse"
       y2="637.26495"
       x2="357.4267"
       y1="592.51556"
       x1="359.04874"
       id="linearGradient11453"
       xlink:href="#linearGradient11451"
       inkscape:collect="always" /><linearGradient
       gradientTransform="translate(1.5561202,82.685504)"
       gradientUnits="userSpaceOnUse"
       y2="588.64325"
       x2="348.11783"
       y1="518.90112"
       x1="350.95239"
       id="linearGradient11469"
       xlink:href="#linearGradient11467"
       inkscape:collect="always" /><linearGradient
       gradientTransform="translate(1.5561202,50.935503)"
       gradientUnits="userSpaceOnUse"
       y2="568.66229"
       x2="330.65869"
       y1="595.44684"
       x1="343.34433"
       id="linearGradient11477"
       xlink:href="#linearGradient11483"
       inkscape:collect="always" /><linearGradient
       gradientTransform="translate(1.5561202,50.935503)"
       gradientUnits="userSpaceOnUse"
       y2="568.66229"
       x2="330.65869"
       y1="608.15826"
       x1="331.68094"
       id="linearGradient11485"
       xlink:href="#linearGradient11483"
       inkscape:collect="always" /><linearGradient
       gradientTransform="translate(1.5561202,82.685504)"
       gradientUnits="userSpaceOnUse"
       y2="612.49072"
       x2="317.7218"
       y1="597.13116"
       x1="317.58954"
       id="linearGradient11537"
       xlink:href="#linearGradient11535"
       inkscape:collect="always" /><linearGradient
       gradientTransform="translate(1.5561202,82.685504)"
       gradientUnits="userSpaceOnUse"
       y2="535.54846"
       x2="308.21674"
       y1="596.86835"
       x1="307.28714"
       id="linearGradient11593"
       xlink:href="#linearGradient11591"
       inkscape:collect="always" /><linearGradient
       gradientTransform="translate(1.5561202,82.685504)"
       gradientUnits="userSpaceOnUse"
       y2="597.51276"
       x2="312.62866"
       y1="588.7359"
       x1="329.80084"
       id="linearGradient11641"
       xlink:href="#linearGradient11639"
       inkscape:collect="always" /><linearGradient
       y2="552.05945"
       x2="373.01385"
       y1="577.68439"
       x1="374.85495"
       gradientTransform="matrix(1.5054753,0,0,1.3473626,-227.53751,-139.98561)"
       gradientUnits="userSpaceOnUse"
       id="linearGradient11694"
       xlink:href="#linearGradient11559"
       inkscape:collect="always" /><linearGradient
       gradientTransform="matrix(1.895197,0,0,2.2584794,-412.52435,-641.21214)"
       y2="544.77649"
       x2="376.49164"
       y1="517.39709"
       x1="375.50555"
       gradientUnits="userSpaceOnUse"
       id="linearGradient11702"
       xlink:href="#linearGradient11708"
       inkscape:collect="always" /><radialGradient
       gradientUnits="userSpaceOnUse"
       gradientTransform="matrix(0.94948755,0.31380469,-0.3198394,0.96774696,3.2260671,-9.7611682)"
       r="62.496632"
       fy="534.58228"
       fx="-99.61071"
       cy="534.58228"
       cx="-99.61071"
       id="radialGradient13703"
       xlink:href="#linearGradient13699"
       inkscape:collect="always" /><radialGradient
       r="62.496632"
       fy="546.29144"
       fx="113.7719"
       cy="546.29144"
       cx="113.7719"
       gradientTransform="matrix(0.94948755,0.31380469,-0.3198394,0.96774696,3.2260671,-9.7611682)"
       gradientUnits="userSpaceOnUse"
       id="radialGradient13721"
       xlink:href="#linearGradient13699"
       inkscape:collect="always" /><linearGradient
       gradientTransform="translate(6.6666666e-8,-1.0666666e-6)"
       gradientUnits="userSpaceOnUse"
       y2="938.14185"
       x2="107.77657"
       y1="995.87384"
       x1="87.238396"
       id="linearGradient2740"
       xlink:href="#linearGradient2736"
       inkscape:collect="always" /><radialGradient
       gradientUnits="userSpaceOnUse"
       gradientTransform="matrix(0.69893251,-0.03330499,0.03327505,0.69830411,166.02901,300.57565)"
       r="94.024368"
       fy="924.13342"
       fx="653.60626"
       cy="924.13342"
       cx="653.60626"
       id="radialGradient3572"
       xlink:href="#linearGradient3570"
       inkscape:collect="always" /><linearGradient
       gradientUnits="userSpaceOnUse"
       y2="956.12378"
       x2="-327.60294"
       y1="858.55872"
       x1="-305.95526"
       id="linearGradient3799"
       xlink:href="#linearGradient3805"
       inkscape:collect="always" /><linearGradient
       gradientUnits="userSpaceOnUse"
       y2="1104.6816"
       x2="-426.27332"
       y1="978.82269"
       x1="-353.04562"
       id="linearGradient3807"
       xlink:href="#linearGradient3805"
       inkscape:collect="always" /><linearGradient
       gradientTransform="translate(2.9666667e-6)"
       y2="956.12378"
       x2="-327.60294"
       y1="858.55872"
       x1="-305.95526"
       gradientUnits="userSpaceOnUse"
       id="linearGradient3811"
       xlink:href="#linearGradient3805"
       inkscape:collect="always" /><linearGradient
       gradientTransform="translate(-1.3966667e-6)"
       y2="1122.7511"
       x2="-244.31454"
       y1="941.66205"
       x1="-244.65642"
       gradientUnits="userSpaceOnUse"
       id="linearGradient3815"
       xlink:href="#linearGradient3805"
       inkscape:collect="always" /><linearGradient
       y2="956.12378"
       x2="-327.60294"
       y1="858.55872"
       x1="-305.95526"
       gradientTransform="translate(3.1031457e-6)"
       gradientUnits="userSpaceOnUse"
       id="linearGradient3819"
       xlink:href="#linearGradient3805"
       inkscape:collect="always" /><linearGradient
       gradientUnits="userSpaceOnUse"
       y2="844.82806"
       x2="-227.32668"
       y1="598.96399"
       x1="-221.47278"
       id="linearGradient3829"
       xlink:href="#linearGradient3827"
       inkscape:collect="always" /><linearGradient
       gradientUnits="userSpaceOnUse"
       y2="-1098.6392"
       x2="14.961507"
       y1="-1078.6383"
       x1="37.630531"
       id="linearGradient3881"
       xlink:href="#linearGradient3879"
       inkscape:collect="always" /><linearGradient
       gradientUnits="userSpaceOnUse"
       y2="848.56659"
       x2="-411.17413"
       y1="872.3938"
       x1="-427.85361"
       id="linearGradient3923"
       xlink:href="#linearGradient3827"
       inkscape:collect="always" /><linearGradient
       gradientUnits="userSpaceOnUse"
       y2="1052.4124"
       x2="-314.53064"
       y1="844.59875"
       x1="-191.42099"
       id="linearGradient4083"
       xlink:href="#linearGradient3879"
       inkscape:collect="always" /><linearGradient
       y2="-941.76904"
       x2="1172.1039"
       y1="-1364.186"
       x1="1336.9044"
       gradientUnits="userSpaceOnUse"
       id="linearGradient5266"
       xlink:href="#linearGradient5272"
       inkscape:collect="always" /><linearGradient
       gradientUnits="userSpaceOnUse"
       y2="23.806196"
       x2="1356.9921"
       y1="-195.6684"
       x1="1525.1714"
       id="linearGradient5675"
       xlink:href="#linearGradient5272"
       inkscape:collect="always" /><linearGradient
       gradientUnits="userSpaceOnUse"
       y2="-59.015114"
       x2="1424.1705"
       y1="-195.6684"
       x1="1525.1714"
       id="linearGradient5683"
       xlink:href="#linearGradient5272"
       inkscape:collect="always" /><linearGradient
       y2="4.188067"
       x2="1440.4407"
       y1="-198.17149"
       x1="1453.2074"
       gradientTransform="matrix(1.3783808,0,0,1.3783808,-548.56964,33.56843)"
       gradientUnits="userSpaceOnUse"
       id="linearGradient5898"
       xlink:href="#linearGradient5272"
       inkscape:collect="always" /><linearGradient
       y2="23.806196"
       x2="1356.9921"
       y1="-198.17149"
       x1="1453.2074"
       gradientTransform="matrix(1.3783808,0,0,1.3783808,-548.56964,33.56843)"
       gradientUnits="userSpaceOnUse"
       id="linearGradient5900"
       xlink:href="#linearGradient5272"
       inkscape:collect="always" /><clipPath
       id="clipPath5386"
       clipPathUnits="userSpaceOnUse"><path
         inkscape:connector-curvature="0"
         id="path5384"
         d="M 0,500 H 500 V 0 H 0 Z" /></clipPath><clipPath
       id="clipPath14166"
       clipPathUnits="userSpaceOnUse"><path
         inkscape:connector-curvature="0"
         id="path14164"
         d="M 0,500 H 500 V 0 H 0 Z" /></clipPath></defs><sodipodi:namedview
     pagecolor="#ffffff"
     bordercolor="#666666"
     borderopacity="1"
     objecttolerance="10"
     gridtolerance="10"
     guidetolerance="10"
     inkscape:pageopacity="0"
     inkscape:pageshadow="2"
     inkscape:window-width="785"
     inkscape:window-height="749"
     id="namedview21"
     showgrid="false"
     inkscape:zoom="5.6568542"
     inkscape:cx="37.11657"
     inkscape:cy="53.227864"
     inkscape:window-x="126"
     inkscape:window-y="0"
     inkscape:window-maximized="0"
     inkscape:current-layer="Warstwa_1"
     fit-margin-top="0"
     fit-margin-left="0"
     fit-margin-right="0"
     fit-margin-bottom="0" /><style
     type="text/css"
     id="style2">
	.st0{fill:#E5E5E5;}
	.st1{fill:#231F20;}
	.st2{fill:#FFFFFF;}
	.st3{fill:#8CE014;}
</style><g
     id="Warstwa_2"
     transform="translate(-7.4607868,28.730157)" /><g
     id="Warstwa_1_1_"
     transform="matrix(1.4494323,0,0,1.4494323,-16.898865,5.8091043)"><path
       class="st1"
       d="M 40,23 H 2 v -1 c 0,-3.3 2.7,-6 6,-6 h 26 c 3.3,0 6,2.7 6,6 z"
       id="XMLID_1_"
       inkscape:connector-curvature="0"
       style="fill:#231f20" /><path
       class="st1"
       d="M 34,86 H 8 C 4.7,86 2,83.3 2,80 v -1 h 38 v 1 c 0,3.3 -2.7,6 -6,6 z"
       id="XMLID_2_"
       inkscape:connector-curvature="0"
       style="fill:#231f20" /><rect
       class="st1"
       height="56"
       id="XMLID_3_"
       width="1.4"
       x="2"
       y="23"
       style="fill:#231f20" /><rect
       class="st1"
       height="56"
       id="XMLID_4_"
       width="1.4"
       x="38.599998"
       y="23"
       style="fill:#231f20" /><path
       class="st2"
       d="M 33.9,20 H 8.1 c -0.6,0 -1,-0.5 -1,-1 v 0 c 0,-0.6 0.5,-1 1,-1 h 25.8 c 0.6,0 1,0.5 1,1 v 0 c 0,0.6 -0.4,1 -1,1 z"
       id="XMLID_6_"
       inkscape:connector-curvature="0"
       style="fill:#ffffff" /></g><g
     id="Warstwa_3"
     transform="translate(-7.4607868,28.730157)" /><g
     id="Warstwa_4"
     transform="translate(-7.4607868,28.730157)" /><rect
     style="fill:#34495e;fill-opacity:1;stroke:none;stroke-width:1.5;stroke-miterlimit:4;stroke-dasharray:none;stroke-opacity:1"
     id="rect4517"
     width="51.020016"
     height="81.168205"
     x="-11.970795"
     y="39.146049" /><path
     style="fill:none;stroke:#ffffff;stroke-width:0.15819955;stroke-linecap:butt;stroke-linejoin:miter;stroke-miterlimit:4;stroke-dasharray:none;stroke-opacity:1"
     d="M -12.007516,44.57375 H 39.039589"
     id="path4519"
     inkscape:connector-curvature="0" /><g
     transform="matrix(1.2132455,0,0,1.2132455,-90.559085,-33.043719)"
     id="layer1"
     inkscape:label="Layer 1"
     style="fill:none;stroke:#ffffff;stroke-width:0.21759817;stroke-miterlimit:4;stroke-dasharray:none;stroke-opacity:1"><g
       transform="matrix(-1,0,0,1,398.24852,1.4480552e-6)"
       id="g5737"
       style="fill:none;stroke:#ffffff;stroke-width:0.21759817;stroke-miterlimit:4;stroke-dasharray:none;stroke-opacity:1"><g
         id="g5735"
         style="fill:none;stroke:#ffffff;stroke-width:0.21759817;stroke-miterlimit:4;stroke-dasharray:none;stroke-opacity:1" /></g><g
       transform="matrix(0.83550484,0,0,0.83550484,36.238825,73.187212)"
       id="g9600"
       style="fill:none;stroke:#ffffff;stroke-width:0.26043916;stroke-miterlimit:4;stroke-dasharray:none;stroke-opacity:1" /><g
       transform="translate(15.875,-15.875)"
       id="g12776"
       style="fill:none;stroke:#ffffff;stroke-width:0.21759817;stroke-miterlimit:4;stroke-dasharray:none;stroke-opacity:1" /><g
       transform="rotate(-37.418013,126.6673,554.28453)"
       id="g13761"
       style="fill:none;stroke:#ffffff;stroke-width:0.21759817;stroke-miterlimit:4;stroke-dasharray:none;stroke-opacity:1" /><flowRoot
       xml:space="preserve"
       id="flowRoot6931"
       style="font-style:normal;font-weight:normal;font-size:40px;line-height:125%;font-family:Sans;letter-spacing:0px;word-spacing:0px;fill:none;fill-opacity:1;stroke:#ffffff;stroke-width:0.82241827;stroke-linecap:butt;stroke-linejoin:miter;stroke-miterlimit:4;stroke-dasharray:none;stroke-opacity:1"
       transform="matrix(0.26458333,0,0,0.26458334,-180.70673,792.85701)"><flowRegion
         id="flowRegion6933"
         style="fill:none;stroke:#ffffff;stroke-width:0.82241827;stroke-miterlimit:4;stroke-dasharray:none;stroke-opacity:1"><rect
           id="rect6935"
           width="48.476715"
           height="128.17375"
           x="1082.707"
           y="2419.5564"
           style="fill:none;stroke:#ffffff;stroke-width:0.82241827;stroke-miterlimit:4;stroke-dasharray:none;stroke-opacity:1" /></flowRegion><flowPara
         id="flowPara6937" /></flowRoot><g
       style="fill:none;stroke:#ffffff;stroke-width:0.26182041;stroke-miterlimit:4;stroke-dasharray:none;stroke-opacity:1"
       transform="matrix(0.83109708,0,0,0.83109708,-1261.6929,-297.08303)"
       id="g5657"><path
         style="fill:none;fill-rule:evenodd;stroke:#ffffff;stroke-width:0.26182041;stroke-linecap:butt;stroke-linejoin:miter;stroke-miterlimit:4;stroke-dasharray:none;stroke-opacity:1"
         d="m 1611.666,467.33946 9.3031,2.29634 9.365,-2.0913 -5.7077,-3.29539 -2.8963,-10.68886 2.9808,-2.47152 1.7757,2.26027 -1.1627,-4.16146 -6.7225,4.26708 -1.2895,10.98463 z"
         id="path7816"
         inkscape:connector-curvature="0" /></g></g><text
     id="text5193"
     y="42.432297"
     x="2.0030093"
     style="font-style:normal;font-weight:normal;font-size:40px;line-height:1.25;font-family:sans-serif;letter-spacing:0px;word-spacing:0px;fill:#000000;fill-opacity:1;stroke:none"
     xml:space="preserve"><tspan
       style="font-style:normal;font-variant:normal;font-weight:normal;font-stretch:normal;font-size:2.66666675px;font-family:'.Aqua Kana';-inkscape-font-specification:'.Aqua Kana';fill:#ffffff"
       y="77.822922"
       x="2.0030093"
       id="tspan5191"
       sodipodi:role="line" /></text>
<g
     transform="matrix(1.3333333,0,0,-1.3333333,59.503563,471.98433)"
     inkscape:label="163238-OWU7LD-563"
     id="g5376"><g
       id="g5380"><g
         clip-path="url(#clipPath5386)"
         id="g5382"><g
           transform="rotate(-180,225.22694,198.62085)"
           id="g7224"><path
             inkscape:connector-curvature="0"
             id="path7226"
             style="fill:#202020;fill-opacity:1;fill-rule:nonzero;stroke:none"
             d="M 0,0 C 0.166,0.074 0.343,0.396 0.1,0.478 L -0.407,0.087 Z" /></g><g
           transform="rotate(-180,224.71193,198.74532)"
           id="g7228"><path
             inkscape:connector-curvature="0"
             id="path7230"
             style="fill:#202020;fill-opacity:1;fill-rule:nonzero;stroke:none"
             d="m 0,0 c -0.412,-0.073 -0.988,-0.305 -1.165,-0.867 0.577,0.312 0.489,0.075 1.154,0.463 0.243,-0.084 0.235,-0.405 0.068,-0.562 0.164,0.076 0.231,-0.327 0.568,-0.095 0.021,0.565 -0.303,0.815 -0.88,0.742 C -0.249,-0.158 -0.083,-0.079 0,0" /></g><g
           transform="rotate(-180,214.9617,205.90715)"
           id="g7232"><path
             inkscape:connector-curvature="0"
             id="path7234"
             style="fill:#202020;fill-opacity:1;fill-rule:nonzero;stroke:none"
             d="M 0,0 0.108,-0.132 C 0.088,-0.078 0.05,-0.035 0,0" /></g><g
           transform="rotate(-180,208.17956,209.14177)"
           id="g7236"><path
             inkscape:connector-curvature="0"
             id="path7238"
             style="fill:#202020;fill-opacity:1;fill-rule:nonzero;stroke:none"
             d="M 0,0 C 0.113,-0.024 0.18,0.017 0.205,0.066 0.091,0.064 -0.005,0.059 0,0" /></g><g
           transform="rotate(-180,207.043,209.81909)"
           id="g7240"><path
             inkscape:connector-curvature="0"
             id="path7242"
             style="fill:#202020;fill-opacity:1;fill-rule:nonzero;stroke:none"
             d="M 0,0 C 0.046,-0.037 0.087,-0.061 0.129,-0.09 0.094,-0.018 0.049,0.031 0,0" /></g><g
           transform="rotate(-180,214.75408,206.14565)"
           id="g7244"><path
             inkscape:connector-curvature="0"
             id="path7246"
             style="fill:#202020;fill-opacity:1;fill-rule:nonzero;stroke:none"
             d="M 0,0 -0.277,0.345 C -0.391,0.178 -0.157,0.124 0,0" /></g><g
           transform="rotate(-180,223.33615,199.6894)"
           id="g7248"><path
             inkscape:connector-curvature="0"
             id="path7250"
             style="fill:#202020;fill-opacity:1;fill-rule:nonzero;stroke:none"
             d="M 0,0 C 0.085,-0.023 0.174,-0.016 0.268,0.009 0.197,0.026 0.131,0.046 0.065,0.072 0.043,0.047 0.024,0.026 0,0" /></g><g
           transform="rotate(-180,218.11505,204.672)"
           id="g7252"><path
             inkscape:connector-curvature="0"
             id="path7254"
             style="fill:#202020;fill-opacity:1;fill-rule:nonzero;stroke:none"
             d="m 0,0 0.108,-0.058 c 0.066,0.044 0.136,0.101 0.21,0.169 z" /></g><g
           transform="rotate(-180,219.91795,203.16057)"
           id="g7256"><path
             inkscape:connector-curvature="0"
             id="path7258"
             style="fill:#202020;fill-opacity:1;fill-rule:nonzero;stroke:none"
             d="m 0,0 c -0.086,0.08 -0.388,-0.344 -0.542,-0.515 0.165,0.149 0.29,0.192 0.396,0.173 C -0.093,-0.259 -0.045,-0.149 0,0" /></g><g
           transform="rotate(-180,223.4154,200.84105)"
           id="g7260"><path
             inkscape:connector-curvature="0"
             id="path7262"
             style="fill:#202020;fill-opacity:1;fill-rule:nonzero;stroke:none"
             d="M 0,0 0.157,-0.022 C 0.114,-0.02 0.052,-0.001 0,0" /></g><g
           transform="rotate(-180,216.4019,205.6621)"
           id="g7264"><path
             inkscape:connector-curvature="0"
             id="path7266"
             style="fill:#202020;fill-opacity:1;fill-rule:nonzero;stroke:none"
             d="M 0,0 C 0.027,0.072 0.043,0.141 0.045,0.187 0.015,0.129 0.002,0.065 0,0" /></g><g
           transform="rotate(-180,204.89196,210.93554)"
           id="g7276"><path
             inkscape:connector-curvature="0"
             id="path7278"
             style="fill:#202020;fill-opacity:1;fill-rule:nonzero;stroke:none"
             d="M 0,0 C 0.008,-0.007 0.01,-0.009 0.017,-0.016 0.154,0.005 0.084,0.015 0,0" /></g><g
           transform="rotate(-180,183.43241,213.98385)"
           id="g7280"><path
             inkscape:connector-curvature="0"
             id="path7282"
             style="fill:#202020;fill-opacity:1;fill-rule:nonzero;stroke:none"
             d="M 0,0 C 0.465,-0.485 -0.826,-0.561 -0.117,-1.108 -0.176,-0.902 0.595,-0.329 0,0" /></g><g
           transform="rotate(-180,223.08345,199.7826)"
           id="g7284"><path
             inkscape:connector-curvature="0"
             id="path7286"
             style="fill:#202020;fill-opacity:1;fill-rule:nonzero;stroke:none"
             d="M 0,0 C -0.059,0.034 -0.117,0.07 -0.17,0.114 -0.104,0.046 -0.051,0.012 0,0" /></g><g
           transform="rotate(-180,183.46425,213.95565)"
           id="g7288"><path
             inkscape:connector-curvature="0"
             id="path7290"
             style="fill:#202020;fill-opacity:1;fill-rule:nonzero;stroke:none"
             d="M 0,0 V -0.004 L 0.073,-0.056 C 0.043,-0.033 0.025,-0.02 0,0" /></g><g
           transform="rotate(-180,199.57472,212.13135)"
           id="g7292"><path
             inkscape:connector-curvature="0"
             id="path7294"
             style="fill:#202020;fill-opacity:1;fill-rule:nonzero;stroke:none"
             d="M 0,0 C 0,-0.094 0.025,-0.172 0.054,-0.248 0.062,-0.195 0.054,-0.125 0,0" /></g><g
           transform="rotate(-180,203.27335,210.8989)"
           id="g7296"><path
             inkscape:connector-curvature="0"
             id="path7298"
             style="fill:#202020;fill-opacity:1;fill-rule:nonzero;stroke:none"
             d="M 0,0 -0.172,0.124 C -0.109,0.056 -0.053,0.022 0,0" /></g><g
           transform="rotate(-180,197.2765,212.43081)"
           id="g7300"><path
             inkscape:connector-curvature="0"
             id="path7302"
             style="fill:#202020;fill-opacity:1;fill-rule:nonzero;stroke:none"
             d="M 0,0 C -0.098,0.061 -0.119,0.138 -0.279,0.1 -0.271,0.071 -0.262,0.05 -0.249,0.029 -0.181,0.087 -0.104,0.105 0,0" /></g><g
           transform="rotate(-180,195.3754,212.7491)"
           id="g7304"><path
             inkscape:connector-curvature="0"
             id="path7306"
             style="fill:#202020;fill-opacity:1;fill-rule:nonzero;stroke:none"
             d="m 0,0 c 0.016,-0.043 0.04,-0.079 0.06,-0.118 0.044,0 0.095,-0.001 0.14,-0.001 z" /></g><g
           transform="rotate(-180,223.16865,199.6965)"
           id="g7312"><path
             inkscape:connector-curvature="0"
             id="path7314"
             style="fill:#202020;fill-opacity:1;fill-rule:nonzero;stroke:none"
             d="M 0,0 C -0.096,-0.093 -0.162,-0.125 -0.232,-0.111 -0.188,-0.134 -0.144,-0.153 -0.1,-0.169 -0.045,-0.113 -0.001,-0.055 0,0" /></g><g
           transform="rotate(-180,196.57445,210.4949)"
           id="g7316"><path
             inkscape:connector-curvature="0"
             id="path7318"
             style="fill:#202020;fill-opacity:1;fill-rule:nonzero;stroke:none"
             d="M 0,0 -0.647,0.209 C -0.473,0.122 -0.237,0.048 0,0" /></g><g
           transform="rotate(-180,168.89715,212.05851)"
           id="g7320"><path
             inkscape:connector-curvature="0"
             id="path7322"
             style="fill:#202020;fill-opacity:1;fill-rule:nonzero;stroke:none"
             d="M 0,0 -0.15,-0.074 C -0.089,-0.081 -0.035,-0.062 0,0" /></g><g
           transform="rotate(-180,195.37855,210.87125)"
           id="g7324"><path
             inkscape:connector-curvature="0"
             id="path7326"
             style="fill:#202020;fill-opacity:1;fill-rule:nonzero;stroke:none"
             d="M 0,0 C -0.083,0.204 -0.187,0.333 -0.305,0.428 -0.34,0.394 -0.378,0.368 -0.407,0.312 Z" /></g><g
           transform="rotate(-180,214.96186,205.87275)"
           id="g7340"><path
             inkscape:connector-curvature="0"
             id="path7342"
             style="fill:#202020;fill-opacity:1;fill-rule:nonzero;stroke:none"
             d="M 0,0 -0.02,0.022 C -0.008,-0.006 0.002,-0.033 0,-0.068 -0.006,-0.038 0.002,-0.023 0,0" /></g><g
           transform="rotate(-180,168.2228,211.9605)"
           id="g7344"><path
             inkscape:connector-curvature="0"
             id="path7346"
             style="fill:#202020;fill-opacity:1;fill-rule:nonzero;stroke:none"
             d="M 0,0 -0.016,0.131 -0.114,0.004 Z" /></g><g
           transform="rotate(-180,217.68844,203.3697)"
           id="g7348"><path
             inkscape:connector-curvature="0"
             id="path7350"
             style="fill:#202020;fill-opacity:1;fill-rule:nonzero;stroke:none"
             d="M 0,0 C -0.011,-0.046 -0.011,-0.1 0.016,-0.16 0.029,-0.128 0.017,-0.069 0,0" /></g><g
           transform="rotate(-180,219.10915,202.45985)"
           id="g7352"><path
             inkscape:connector-curvature="0"
             id="path7354"
             style="fill:#202020;fill-opacity:1;fill-rule:nonzero;stroke:none"
             d="M 0,0 0.271,-0.386 C 0.167,-0.197 0.077,-0.083 0,0" /></g><g
           transform="rotate(-180,219.97545,202.01325)"
           id="g7356"><path
             inkscape:connector-curvature="0"
             id="path7358"
             style="fill:#202020;fill-opacity:1;fill-rule:nonzero;stroke:none"
             d="M 0,0 C 0.072,0.062 0.115,0.116 0.154,0.166 L 0.152,0.171 Z" /></g><g
           transform="rotate(-180,202.83258,209.13884)"
           id="g7360"><path
             inkscape:connector-curvature="0"
             id="path7362"
             style="fill:#202020;fill-opacity:1;fill-rule:nonzero;stroke:none"
             d="M 0,0 C -0.031,0.006 -0.062,0.008 -0.093,0.003 -0.323,-0.033 -0.175,-0.036 0,0" /></g><g
           transform="rotate(-180,208.1479,207.86718)"
           id="g7364"><path
             inkscape:connector-curvature="0"
             id="path7366"
             style="fill:#202020;fill-opacity:1;fill-rule:nonzero;stroke:none"
             d="M 0,0 C -0.143,-0.044 -0.286,-0.096 -0.422,-0.108 -0.251,-0.211 -0.11,-0.271 0,0" /></g><g
           transform="rotate(-180,196.8996,210.3904)"
           id="g7368"><path
             inkscape:connector-curvature="0"
             id="path7370"
             style="fill:#202020;fill-opacity:1;fill-rule:nonzero;stroke:none"
             d="M 0,0 C 0,0 0.002,0.004 0.003,0.009 L -0.07,0.024 Z" /></g><g
           transform="rotate(-180,208.14775,207.90968)"
           id="g7372"><path
             inkscape:connector-curvature="0"
             id="path7374"
             style="fill:#202020;fill-opacity:1;fill-rule:nonzero;stroke:none"
             d="M 0,0 C 0.148,-0.163 0.312,-0.197 0.481,-0.18 0.342,-0.094 0.181,0.02 0,0" /></g><g
           transform="rotate(-180,224.1066,199.0037)"
           id="g7376"><path
             inkscape:connector-curvature="0"
             id="path7378"
             style="fill:#202020;fill-opacity:1;fill-rule:nonzero;stroke:none"
             d="m 0,0 0.079,-0.082 c 0.019,0.029 0.04,0.048 0.06,0.061 z" /></g><g
           transform="rotate(-180,224.17545,199.03178)"
           id="g7380"><path
             inkscape:connector-curvature="0"
             id="path7382"
             style="fill:#202020;fill-opacity:1;fill-rule:nonzero;stroke:none"
             d="M 0,0 0.138,-0.022 C 0.091,0.011 0.048,0.036 0,0" /></g><g
           transform="rotate(-180,224.1753,199.00344)"
           id="g7384"><path
             inkscape:connector-curvature="0"
             id="path7386"
             style="fill:#202020;fill-opacity:1;fill-rule:nonzero;stroke:none"
             d="M 0,0 -0.291,0.044 C -0.218,-0.009 -0.136,-0.086 0,0" /></g><g
           transform="rotate(-180,222.7772,199.9613)"
           id="g7388"><path
             inkscape:connector-curvature="0"
             id="path7390"
             style="fill:#202020;fill-opacity:1;fill-rule:nonzero;stroke:none"
             d="M 0,0 -0.136,-0.135 C -0.098,-0.114 -0.054,-0.071 0,0" /></g><g
           transform="rotate(-180,222.7773,199.91504)"
           id="g7392"><path
             inkscape:connector-curvature="0"
             id="path7394"
             style="fill:#202020;fill-opacity:1;fill-rule:nonzero;stroke:none"
             d="m 0,0 c 0.159,-0.164 0.233,-0.655 0.554,-0.736 l 0.108,0.107 C 0.386,-0.777 0.353,0.141 0,0" /></g><g
           transform="rotate(-180,221.88325,202.16649)"
           id="g7396"><path
             inkscape:connector-curvature="0"
             id="path7398"
             style="fill:#202020;fill-opacity:1;fill-rule:nonzero;stroke:none"
             d="M 0,0 0.597,-0.547 C 0.587,-0.305 0.575,0.019 0.911,-0.132 0.376,0.904 0.846,-0.62 0,0" /></g><g
           transform="rotate(-180,220.52348,203.24832)"
           id="g7400"><path
             inkscape:connector-curvature="0"
             id="path7402"
             style="fill:#202020;fill-opacity:1;fill-rule:nonzero;stroke:none"
             d="M 0,0 C 0.414,-0.147 0.147,0.251 0.226,0.336 -0.102,0.324 -0.182,0.319 0,0" /></g><g
           transform="rotate(-180,212.65455,207.49804)"
           id="g7404"><path
             inkscape:connector-curvature="0"
             id="path7406"
             style="fill:#202020;fill-opacity:1;fill-rule:nonzero;stroke:none"
             d="M 0,0 0.232,0.413 C -0.096,0.494 0.154,0.247 0,0" /></g><g
           transform="rotate(-180,210.7318,206.6331)"
           id="g7408"><path
             inkscape:connector-curvature="0"
             id="path7410"
             style="fill:#202020;fill-opacity:1;fill-rule:nonzero;stroke:none"
             d="M 0,0 0.179,-0.391 0.487,-0.05 Z" /></g><g
           transform="rotate(-180,210.07265,208.79855)"
           id="g7412"><path
             inkscape:connector-curvature="0"
             id="path7414"
             style="fill:#202020;fill-opacity:1;fill-rule:nonzero;stroke:none"
             d="M 0,0 0.16,0.007 -0.418,0.06 Z" /></g><g
           transform="rotate(-180,195.81219,212.66665)"
           id="g7416"><path
             inkscape:connector-curvature="0"
             id="path7418"
             style="fill:#202020;fill-opacity:1;fill-rule:nonzero;stroke:none"
             d="M 0,0 -0.013,-0.591 C 0.227,-0.533 0.399,0.1 0,0" /></g><g
           transform="rotate(-180,188.87505,213.84365)"
           id="g7420"><path
             inkscape:connector-curvature="0"
             id="path7422"
             style="fill:#202020;fill-opacity:1;fill-rule:nonzero;stroke:none"
             d="M 0,0 C -0.106,0.306 -0.45,0.535 -0.705,0.277 -0.42,0.203 -0.156,-0.057 0,0" /></g><g
           transform="rotate(-180,169.7726,214.4813)"
           id="g7424"><path
             inkscape:connector-curvature="0"
             id="path7426"
             style="fill:#202020;fill-opacity:1;fill-rule:nonzero;stroke:none"
             d="M 0,0 0.245,0.215 -0.233,0.014 Z" /></g></g></g></g><circle
     style="fill:none;fill-opacity:1;stroke:#ffffff;stroke-width:0.25600001;stroke-miterlimit:4;stroke-dasharray:none;stroke-opacity:0.94117647"
     id="path19741"
     cx="13.842329"
     cy="71.040764"
     r="15.114408" /><rect
     style="fill:#ffffff;fill-opacity:1;stroke:#ffffff;stroke-width:0.1756348;stroke-miterlimit:4;stroke-dasharray:none;stroke-opacity:0.94117647"
     id="rect19743"
     width="3.6277032"
     height="0.28382951"
     x="-11.046782"
     y="40.926872" /><rect
     y="41.664829"
     x="-11.079174"
     height="0.28382951"
     width="3.6277032"
     id="rect19745"
     style="fill:#ffffff;fill-opacity:1;stroke:#ffffff;stroke-width:0.1756348;stroke-miterlimit:4;stroke-dasharray:none;stroke-opacity:0.94117647" /><rect
     style="fill:#ffffff;fill-opacity:1;stroke:#ffffff;stroke-width:0.1756348;stroke-miterlimit:4;stroke-dasharray:none;stroke-opacity:0.94117647"
     id="rect19747"
     width="3.6277032"
     height="0.28382951"
     x="-11.079174"
     y="42.402782" /><rect
     style="fill:none;fill-opacity:1;stroke:#ffffff;stroke-width:0.25600001;stroke-miterlimit:4;stroke-dasharray:none;stroke-opacity:0.94117647"
     id="rect19749"
     width="46.845825"
     height="6.8942909"
     x="-9.9341354"
     y="96.695908" /><rect
     y="106.69753"
     x="-11.447606"
     height="6.8910546"
     width="49.595112"
     id="rect19751"
     style="fill:none;fill-opacity:1;stroke:#ffffff;stroke-width:0.26334316;stroke-miterlimit:4;stroke-dasharray:none;stroke-opacity:0.94117647" /><path
     style="fill:none;stroke:#ffffff;stroke-width:0.30000001;stroke-linecap:butt;stroke-linejoin:miter;stroke-miterlimit:4;stroke-dasharray:none;stroke-opacity:1"
     d="m 4.617009,106.94896 0.176777,6.54074"
     id="path19753"
     inkscape:connector-curvature="0" /><path
     inkscape:connector-curvature="0"
     id="path19755"
     d="m 20.617009,106.94896 0.176777,6.54074"
     style="fill:none;stroke:#ffffff;stroke-width:0.30000001;stroke-linecap:butt;stroke-linejoin:miter;stroke-miterlimit:4;stroke-dasharray:none;stroke-opacity:1" /><text
     xml:space="preserve"
     style="font-style:normal;font-weight:normal;font-size:5.33333349px;line-height:1.25;font-family:sans-serif;letter-spacing:0px;word-spacing:0px;fill:#000000;fill-opacity:1;stroke:none"
     x="1.5563495"
     y="92.685501"
     id="text19759"><tspan
       sodipodi:role="line"
       id="tspan19757"
       x="1.5563495"
       y="92.685501"
       style="fill:#ffffff">Invitation</tspan></text>
<text
     id="text19763"
     y="100.81723"
     x="1.909903"
     style="font-style:normal;font-weight:normal;font-size:5.33333349px;line-height:1.25;font-family:sans-serif;letter-spacing:0px;word-spacing:0px;fill:#000000;fill-opacity:1;stroke:none"
     xml:space="preserve"><tspan
       style="font-size:2px;fill:#ffffff"
       y="100.81723"
       x="1.909903"
       id="tspan19761"
       sodipodi:role="line">inviter d'autres parents</tspan></text>
<text
     xml:space="preserve"
     style="font-style:normal;font-weight:normal;font-size:5.33333349px;line-height:1.25;font-family:sans-serif;letter-spacing:0px;word-spacing:0px;fill:#000000;fill-opacity:1;stroke:none"
     x="-7.1057086"
     y="111.07028"
     id="text19767"><tspan
       sodipodi:role="line"
       id="tspan19765"
       x="-7.1057086"
       y="111.07028"
       style="font-size:2px;fill:#ffffff">invités</tspan></text>
<text
     id="text19771"
     y="111.07028"
     x="10.187184"
     style="font-style:normal;font-weight:normal;font-size:5.33333349px;line-height:1.25;font-family:sans-serif;letter-spacing:0px;word-spacing:0px;fill:#000000;fill-opacity:1;stroke:none"
     xml:space="preserve"><tspan
       style="font-size:2px;fill:#ffffff"
       y="111.07028"
       x="10.187184"
       id="tspan19769"
       sodipodi:role="line">amis</tspan></text>
<text
     xml:space="preserve"
     style="font-style:normal;font-weight:normal;font-size:5.33333349px;line-height:1.25;font-family:sans-serif;letter-spacing:0px;word-spacing:0px;fill:#000000;fill-opacity:1;stroke:none"
     x="24.187183"
     y="111.07028"
     id="text19775"><tspan
       sodipodi:role="line"
       id="tspan19773"
       x="24.187183"
       y="111.07028"
       style="font-size:2px;fill:#ffffff">demandes</tspan></text>
<g
     id="g19786"
     transform="rotate(-11.956938,26.869576,68.374984)"><path
       inkscape:connector-curvature="0"
       id="path19777"
       d="m -7.1057089,92.276492 c 0,0 -3.3587571,-8.662058 -2.298097,-19.445436 1.0606602,-10.783379 6.3639609,-15.55635 6.3639609,-15.55635 0,0 -6.3639609,9.899495 -5.126524,19.79899 1.2374368,9.899495 2.4748737,15.202796 2.4748737,15.202796 z"
       style="fill:#d4ff2a;fill-opacity:0;stroke:none;stroke-width:1px;stroke-linecap:butt;stroke-linejoin:miter;stroke-opacity:1" /><path
       sodipodi:nodetypes="cscssc"
       inkscape:connector-curvature="0"
       id="path19779"
       d="m -6.7521555,88.740958 c 0,0 -5.1265245,-16.617009 -2.4748737,-25.986174 C -6.5753788,53.385619 1.202796,48.259095 1.202796,48.259095 c 0,0 -7.6013981,6.717514 -9.5459418,14.318912 -1.9445432,7.601398 -0.3535534,13.611806 0.5303301,19.268661 0.8838835,5.656854 1.0606602,6.89429 1.0606602,6.89429 z"
       style="fill:#d4ff2a;fill-opacity:1;stroke:none;stroke-width:1px;stroke-linecap:butt;stroke-linejoin:miter;stroke-opacity:1" /><path
       inkscape:connector-curvature="0"
       id="path19781"
       d="m -6.6875,87.522758 -3.375,-1.4375 3.3103445,2.6557 3.0646555,-2.9057 z"
       style="fill:#d4ff2a;fill-opacity:1;stroke:none;stroke-width:1px;stroke-linecap:butt;stroke-linejoin:miter;stroke-opacity:1" /></g><circle
     style="fill:none;fill-opacity:1;stroke:#d4ff2a;stroke-width:0.2;stroke-miterlimit:4;stroke-dasharray:none;stroke-opacity:1"
     id="path19788"
     cx="2.8821735"
     cy="51.352688"
     r="3.2703688" /><text
     xml:space="preserve"
     style="font-style:normal;font-weight:normal;font-size:5.33333349px;line-height:1.25;font-family:sans-serif;letter-spacing:0px;word-spacing:0px;fill:#d4ff2a;fill-opacity:1;stroke:none"
     x="2.0866783"
     y="52.148182"
     id="text19792"><tspan
       sodipodi:role="line"
       id="tspan19790"
       x="2.0866783"
       y="52.148182"
       style="font-size:2.66666675px">3</tspan></text>
</svg>