<?xml version="1.0" encoding="UTF-8" standalone="no"?>
<svg
   xmlns:dc="http://purl.org/dc/elements/1.1/"
   xmlns:cc="http://creativecommons.org/ns#"
   xmlns:rdf="http://www.w3.org/1999/02/22-rdf-syntax-ns#"
   xmlns:svg="http://www.w3.org/2000/svg"
   xmlns="http://www.w3.org/2000/svg"
   xmlns:sodipodi="http://sodipodi.sourceforge.net/DTD/sodipodi-0.dtd"
   xmlns:inkscape="http://www.inkscape.org/namespaces/inkscape"
   enable-background="new 0 0 24 32"
   height="125.20294"
   overflow="visible"
   viewBox="0 0 93.902206 125.20294"
   width="93.902206"
   xml:space="preserve"
   version="1.1"
   id="svg11"
   sodipodi:docname="Pacman_Ghost.svg"
   style="overflow:visible"
   inkscape:version="0.92.2 5c3e80d, 2017-08-06"><metadata
     id="metadata17"><rdf:RDF><cc:Work
         rdf:about=""><dc:format>image/svg+xml</dc:format><dc:type
           rdf:resource="http://purl.org/dc/dcmitype/StillImage" /><dc:title></dc:title></cc:Work></rdf:RDF></metadata><defs
     id="defs15" /><sodipodi:namedview
     pagecolor="#ffffff"
     bordercolor="#666666"
     borderopacity="1"
     objecttolerance="10"
     gridtolerance="10"
     guidetolerance="10"
     inkscape:pageopacity="0"
     inkscape:pageshadow="2"
     inkscape:window-width="1230"
     inkscape:window-height="766"
     id="namedview13"
     showgrid="false"
     fit-margin-top="0"
     fit-margin-left="0"
     fit-margin-right="0"
     fit-margin-bottom="0"
     inkscape:zoom="2.6074563"
     inkscape:cx="33.694915"
     inkscape:cy="87.508029"
     inkscape:window-x="0"
     inkscape:window-y="0"
     inkscape:window-maximized="0"
     inkscape:current-layer="svg11" /><g
     id="g9"
     transform="scale(3.912592)"><g
       id="Layer_2"><g
         id="Green_x5F_pacman_ghost"><path
           d="M 12,0 C 5.373,0 0,5.373 0,12 v 20 l 3,-3 3,3 3,-3 3,3 3,-3 3,3 3,-3 3,3 V 12 C 24,5.373 18.627,0 12,0 Z"
           id="Body"
           inkscape:connector-curvature="0"
           style="fill:#34b67a" /><path
           d="M 21.325,11.125 C 20.775,10.444 19.943,10 19,10 c -1.657,0 -3,1.343 -3,3 0,1.657 1.343,3 3,3 0.943,0 1.775,-0.445 2.325,-1.125 C 20.555,14.597 20,13.866 20,13 c 0,-0.866 0.554,-1.597 1.325,-1.875 z"
           id="Right_x5F_eye"
           inkscape:connector-curvature="0"
           style="fill:#e6e6e6" /><path
           d="M 13.325,11.125 C 12.775,10.444 11.943,10 11,10 c -1.657,0 -3,1.343 -3,3 0,1.657 1.343,3 3,3 0.943,0 1.775,-0.445 2.325,-1.125 C 12.555,14.597 12,13.866 12,13 c 0,-0.866 0.554,-1.597 1.325,-1.875 z"
           id="Left_x5F_eye"
           inkscape:connector-curvature="0"
           style="fill:#e6e6e6" /><path
           d="M 22,13 C 22,12.287 21.74,11.64 21.325,11.125 20.554,11.403 20,12.134 20,13 c 0,0.866 0.555,1.597 1.325,1.875 C 21.74,14.36 22,13.713 22,13 Z"
           id="Right_x5F_eyeball"
           inkscape:connector-curvature="0"
           style="fill:#25374b" /><path
           d="M 14,13 C 14,12.287 13.74,11.64 13.325,11.125 12.554,11.403 12,12.134 12,13 c 0,0.866 0.555,1.597 1.325,1.875 C 13.74,14.36 14,13.713 14,13 Z"
           id="Left_x5F_eyeball"
           inkscape:connector-curvature="0"
           style="fill:#25374b" /></g></g></g></svg>