<?xml version="1.0" encoding="UTF-8" standalone="no"?>
<svg
   xmlns:dc="http://purl.org/dc/elements/1.1/"
   xmlns:cc="http://creativecommons.org/ns#"
   xmlns:rdf="http://www.w3.org/1999/02/22-rdf-syntax-ns#"
   xmlns:svg="http://www.w3.org/2000/svg"
   xmlns="http://www.w3.org/2000/svg"
   xmlns:sodipodi="http://sodipodi.sourceforge.net/DTD/sodipodi-0.dtd"
   xmlns:inkscape="http://www.inkscape.org/namespaces/inkscape"
   enable-background="new 0 0 24 32"
   height="125.20294"
   overflow="visible"
   viewBox="0 0 93.902206 125.20294"
   width="93.902206"
   xml:space="preserve"
   version="1.1"
   id="svg11"
   sodipodi:docname="Pacman_Ghost.svg"
   style="overflow:visible"
   inkscape:version="0.92.2 5c3e80d, 2017-08-06"><metadata
     id="metadata17"><rdf:RDF><cc:Work
         rdf:about=""><dc:format>image/svg+xml</dc:format><dc:type
           rdf:resource="http://purl.org/dc/dcmitype/StillImage" /><dc:title /></cc:Work></rdf:RDF></metadata><defs
     id="defs15" /><sodipodi:namedview
     pagecolor="#ffffff"
     bordercolor="#666666"
     borderopacity="1"
     objecttolerance="10"
     gridtolerance="10"
     guidetolerance="10"
     inkscape:pageopacity="0"
     inkscape:pageshadow="2"
     inkscape:window-width="1230"
     inkscape:window-height="766"
     id="namedview13"
     showgrid="false"
     fit-margin-top="0"
     fit-margin-left="0"
     fit-margin-right="0"
     fit-margin-bottom="0"
     inkscape:zoom="2.6074563"
     inkscape:cx="-35.337881"
     inkscape:cy="87.508029"
     inkscape:window-x="0"
     inkscape:window-y="0"
     inkscape:window-maximized="0"
     inkscape:current-layer="Green_x5F_pacman_ghost" /><g
     id="g9"
     transform="scale(3.912592)"><g
       id="Layer_2"><g
         id="Green_x5F_pacman_ghost"><path
           d="m 12.062768,5.6198613 c -5.4631623,0 -9.8925525,4.4293897 -9.8925525,9.8925517 V 32 L 4.6433536,29.526862 7.1164915,32 9.5896299,29.526862 12.062768,32 14.535906,29.526862 17.009044,32 19.482182,29.526862 21.95532,32 V 15.512413 c 0,-5.463162 -4.42939,-9.8925517 -9.892552,-9.8925517 z"
           id="Body"
           inkscape:connector-curvature="0"
           style="fill:#d4ff2a;fill-opacity:1;stroke-width:0.82437938" /><path
           d="m 19.750105,14.791081 c -0.453408,-0.561402 -1.139292,-0.927427 -1.916682,-0.927427 -1.365997,0 -2.473138,1.107142 -2.473138,2.473139 0,1.365996 1.107141,2.473138 2.473138,2.473138 0.77739,0 1.463274,-0.36685 1.916682,-0.927428 -0.634772,-0.229177 -1.092302,-0.831798 -1.092302,-1.54571 0,-0.713913 0.456706,-1.316534 1.092302,-1.545712 z"
           id="Right_x5F_eye"
           inkscape:connector-curvature="0"
           style="fill:#e6e6e6;stroke-width:0.82437938" /><path
           d="m 13.15507,14.791081 c -0.453408,-0.561402 -1.139291,-0.927427 -1.916682,-0.927427 -1.3659961,0 -2.4731377,1.107142 -2.4731377,2.473139 0,1.365996 1.1071416,2.473138 2.4731377,2.473138 0.777391,0 1.463274,-0.36685 1.916682,-0.927428 -0.634772,-0.229177 -1.092302,-0.831798 -1.092302,-1.54571 0,-0.713913 0.456706,-1.316534 1.092302,-1.545712 z"
           id="Left_x5F_eye"
           inkscape:connector-curvature="0"
           style="fill:#e6e6e6;stroke-width:0.82437938" /><path
           d="m 20.306561,16.336793 c 0,-0.587783 -0.214338,-1.121156 -0.556456,-1.545712 -0.635596,0.229178 -1.092302,0.831799 -1.092302,1.545712 0,0.713912 0.45753,1.316533 1.092302,1.54571 0.342118,-0.424554 0.556456,-0.957928 0.556456,-1.54571 z"
           id="Right_x5F_eyeball"
           inkscape:connector-curvature="0"
           style="fill:#25374b;stroke-width:0.82437938" /><path
           d="m 13.711526,16.336793 c 0,-0.587783 -0.214338,-1.121156 -0.556456,-1.545712 -0.635596,0.229178 -1.092302,0.831799 -1.092302,1.545712 0,0.713912 0.45753,1.316533 1.092302,1.54571 0.342118,-0.424554 0.556456,-0.957928 0.556456,-1.54571 z"
           id="Left_x5F_eyeball"
           inkscape:connector-curvature="0"
           style="fill:#25374b;stroke-width:0.82437938" /></g></g></g></svg>